{
.appVersion = "3091";
copyright = "Copyright 2021 The Albert Sans Project Authors (https://github.com/usted/Albert-Sans)";
customParameters = (
{
name = "Use Typo Metrics";
value = 1;
},
{
name = fsType;
value = (
);
},
{
name = "Variable Font Origin";
value = "9F107B1E-3A61-4335-981B-27DD48125C7E";
},
{
name = "Use Line Breaks";
value = 1;
},
{
name = license;
value = "This Font Software is licensed under the SIL Open Font License, Version 1.1. This license is available with a FAQ at: https://scripts.sil.org/OFL";
},
{
name = licenseURL;
value = "https://scripts.sil.org/OFL";
},
{
name = Axes;
value = (
{
Name = Weight;
Tag = wght;
}
);
}
);
date = "2021-08-28 16:00:04 +0000";
designer = "Andreas Rasmussen";
designerURL = "https://www.andreasrasmussen.net";
familyName = "Albert Sans";
fontMaster = (
{
ascender = 720;
capHeight = 700;
custom = Thin;
customParameters = (
{
name = typoAscender;
value = 950;
},
{
name = typoDescender;
value = -250;
},
{
name = typoLineGap;
value = 0;
},
{
name = winAscent;
value = 1100;
},
{
name = winDescent;
value = 320;
},
{
name = underlineThickness;
value = 50;
},
{
name = underlinePosition;
value = -100;
},
{
name = strikeoutPosition;
value = 300;
},
{
name = strikeoutSize;
value = 50;
},
{
name = subscriptXOffset;
value = 0;
},
{
name = subscriptXSize;
value = 650;
},
{
name = subscriptYOffset;
value = 75;
},
{
name = subscriptYSize;
value = 600;
},
{
name = superscriptXOffset;
value = 0;
},
{
name = superscriptXSize;
value = 650;
},
{
name = superscriptYOffset;
value = 350;
},
{
name = superscriptYSize;
value = 600;
},
{
name = hheaAscender;
value = 950;
},
{
name = hheaDescender;
value = -250;
},
{
name = hheaLineGap;
value = 0;
}
);
descender = -200;
guideLines = (
{
locked = 1;
position = "{0, 250}";
},
{
position = "{0, -186}";
},
{
position = "{0, 711}";
}
);
horizontalStems = (
20
);
iconName = Light;
id = "6E968933-CD79-43C6-9231-80D77C940F4D";
verticalStems = (
22
);
weightValue = 0;
xHeight = 500;
},
{

glyphs = (
{
glyphname = A;
lastChange = "2021-09-01 17:33:15 +0000";
layers = (
{
anchors = (
{
name = ogonek;
position = "{636, 0}";
},
{
name = top;
position = "{354, 700}";
}
);
guideLines = (
{
angle = -70.8724;
position = "{553, 86.5}";
},
{
angle = 70.5773;
position = "{155.5, 86.5}";
}
);
hints = (
{
horizontal = 1;
place = "{175, 92}";
type = Stem;
},
{
horizontal = 1;
place = "{700, -20}";
target = down;
type = TopGhost;
},
{
horizontal = 1;
place = "{0, 21}";
target = up;
type = BottomGhost;
}
);
layerId = "0CF0EA28-C756-4A9E-9D7C-CFEF350B4CFE";
paths = (
{
closed = 1;
nodes = (
"125 0 LINE",
"186 173 LINE",
"523 173 LINE",
"583 0 LINE",
"701 0 LINE",
"452 700 LINE",
"256 700 LINE",
"8 0 LINE"
);
},
{
closed = 1;
nodes = (
"491 268 LINE",
"219 268 LINE",
"337 605 LINE",
"373 605 LINE"
);
}
);
width = 709;
},
{
anchors = (
{
name = ogonek;
position = "{579, 0}";
},
{
name = top;
position = "{310, 697}";
}
);
guideLines = (
{
angle = -69.1455;
position = "{543, 105}";
},
{
angle = 68.9077;
position = "{73.5, 105}";
}
);
hints = (
{
horizontal = 1;
place = "{700, -20}";
target = down;
type = TopGhost;
},
{
horizontal = 1;
place = "{0, 21}";
target = up;
type = BottomGhost;
}
);
layerId = "6E968933-CD79-43C6-9231-80D77C940F4D";
paths = (
{
closed = 1;
nodes = (
"33 0 LINE",
"114 210 LINE",
"503 210 LINE",
"583 0 LINE",
"606 0 LINE",
"339 700 LINE",
"278 700 LINE",
"10 0 LINE"
);
},
{
closed = 1;
nodes = (
"496 230 LINE",
"121 230 LINE",
"293 680 LINE",
"325 680 LINE"
);
}
);
width = 615.99653;
},
{
anchors = (
{
name = ogonek;
position = "{713.5, 1}";
},
{
name = top;
position = "{398.5, 700}";
}
);
guideLines = (
{
angle = -70.3462;
position = "{586.5, 70}";
},
{
angle = 70.71;
position = "{210, 70}";
}
);
hints = (
{
horizontal = 1;
place = "{375, 141}";
type = Stem;
},
{
horizontal = 1;
place = "{297, -20}";
target = down;
type = TopGhost;
},
{
horizontal = 1;
place = "{0, 21}";
target = up;
type = BottomGhost;
}
);
layerId = "BAF31694-0472-4296-B0EA-1654553C45D2";
paths = (
{
closed = 1;
nodes = (
"185.5 0 LINE",
"234.5 140 LINE",
"561.5 140 LINE",
"611.5 0 LINE",
"790.5 0 LINE",
"536.5 700 LINE",
"261.5 700 LINE",
"5.5 0 LINE"
);
},
{
closed = 1;
nodes = (
"508.5 286 LINE",
"285.5 286 LINE",
"379.5 554 LINE",
"414.5 554 LINE"
);
}
);
width = 795.9967;
},
{
anchors = (
{
name = ogonek;
position = "{615, 0}";
},
{
name = top;
position = "{337, 699}";
}
);
guideLines = (
{
angle = 69.7174;
position = "{124, 92}";
},
{
angle = -69.9919;
position = "{549.5, 92}";
}
);
hints = (
{
horizontal = 1;
place = "{700, -20}";
target = down;
type = TopGhost;
},
{
horizontal = 1;
place = "{0, 21}";
target = up;
type = BottomGhost;
}
);
layerId = "9F107B1E-3A61-4335-981B-27DD48125C7E";
paths = (
{
closed = 1;
nodes = (
"90 0 LINE",
"158 184 LINE",
"516 184 LINE",
"583 0 LINE",
"665 0 LINE",
"410 700 LINE",
"265 700 LINE",
"9 0 LINE"
);
},
{
closed = 1;
nodes = (
"491 254 LINE",
"184 254 LINE",
"321 630 LINE",
"354 630 LINE"
);
}
);
width = 673.9967;
}
);
leftMetricsKey = "=H*0.1";
rightMetricsKey = "=H*0.1";
unicode = 0041;
},
{
glyphname = Aogonek;
lastChange = "2021-09-01 17:33:15 +0000";
layers = (
{
anchors = (
{
name = _ogonek;
position = "{-334, 0}";
}
);
components = (
{
alignment = -1;
name = A;
}
);
hints = (
{
place = "{456, 93}";
type = Stem;
},
{
place = "{456, 214}";
type = Stem;
},
{
horizontal = 1;
place = "{-213, 74}";
type = Stem;
}
);
layerId = "0CF0EA28-C756-4A9E-9D7C-CFEF350B4CFE";
paths = (
{
closed = 1;
nodes = (
"582 39 LINE SMOOTH",
"488 -5 OFFCURVE",
"455 -53 OFFCURVE",
"455 -104 CURVE SMOOTH",
"455 -184 OFFCURVE",
"525 -213 OFFCURVE",
"588 -213 CURVE SMOOTH",
"617 -213 OFFCURVE",
"646 -206 OFFCURVE",
"669 -197 CURVE",
"669 -125 LINE",
"646 -134 OFFCURVE",
"622 -139 OFFCURVE",
"603 -139 CURVE SMOOTH",
"569 -139 OFFCURVE",
"548 -120 OFFCURVE",
"548 -92 CURVE SMOOTH",
"548 -68 OFFCURVE",
"562 -47 OFFCURVE",
"605 -25 CURVE SMOOTH",
"654 0 LINE",
"624 58 LINE"
);
}
);
width = 709;
},
{
anchors = (
{
name = _ogonek;
position = "{-270, 0}";
}
);
components = (
{
alignment = -1;
name = A;
}
);
hints = (
{
place = "{422, 21}";
type = Stem;
},
{
horizontal = 1;
place = "{-185, 21}";
target = up;
type = BottomGhost;
}
);
layerId = "6E968933-CD79-43C6-9231-80D77C940F4D";
paths = (
{
closed = 1;
nodes = (
"520 -15 LINE SMOOTH",
"457 -43 OFFCURVE",
"433 -77 OFFCURVE",
"433 -115 CURVE SMOOTH",
"433 -166 OFFCURVE",
"472 -189 OFFCURVE",
"524 -189 CURVE SMOOTH",
"543 -189 OFFCURVE",
"565 -185 OFFCURVE",
"586 -177 CURVE",
"586 -156 LINE",
"565 -164 OFFCURVE",
"543 -169 OFFCURVE",
"523 -169 CURVE SMOOTH",
"484 -169 OFFCURVE",
"454 -152 OFFCURVE",
"454 -114 CURVE SMOOTH",
"454 -85 OFFCURVE",
"472 -56 OFFCURVE",
"524 -33 CURVE SMOOTH",
"595 0 LINE",
"588 16 LINE"
);
}
);
width = 615.99553;
},
{
anchors = (
{
name = _ogonek;
position = "{281, 1}";
}
);
components = (
{
alignment = -1;
name = A;
}
);
hints = (
{
place = "{194, 39}";
type = Stem;
},
{
place = "{456, 180}";
type = Stem;
},
{
horizontal = 1;
place = "{-218, 99}";
type = Stem;
}
);
layerId = "BAF31694-0472-4296-B0EA-1654553C45D2";
paths = (
{
closed = 1;
nodes = (
"642 67 LINE SMOOTH",
"512 13 OFFCURVE",
"476 -37 OFFCURVE",
"476 -100 CURVE SMOOTH",
"476 -180 OFFCURVE",
"540 -218 OFFCURVE",
"624 -218 CURVE SMOOTH",
"661 -218 OFFCURVE",
"695 -212 OFFCURVE",
"724 -203 CURVE",
"724 -104 LINE",
"696 -114 OFFCURVE",
"670 -119 OFFCURVE",
"649 -119 CURVE SMOOTH",
"621 -119 OFFCURVE",
"604 -107 OFFCURVE",
"604 -86 CURVE SMOOTH",
"604 -67 OFFCURVE",
"617 -48 OFFCURVE",
"672 -23 CURVE SMOOTH",
"718 -1 LINE",
"681 84 LINE"
);
}
);
width = 795.99623;
},
{
anchors = (
{
name = _ogonek;
position = "{-310, 0}";
}
);
components = (
{
alignment = -1;
name = A;
}
);
hints = (
{
place = "{25, 54}";
type = Stem;
},
{
horizontal = 1;
place = "{-69, 21}";
target = up;
type = BottomGhost;
}
);
layerId = "9F107B1E-3A61-4335-981B-27DD48125C7E";
paths = (
{
closed = 1;
nodes = (
"566 19 LINE SMOOTH",
"484 -19 OFFCURVE",
"454 -62 OFFCURVE",
"454 -108 CURVE SMOOTH",
"454 -177 OFFCURVE",
"513 -204 OFFCURVE",
"572 -204 CURVE SMOOTH",
"597 -204 OFFCURVE",
"623 -198 OFFCURVE",
"645 -190 CURVE",
"645 -137 LINE",
"623 -145 OFFCURVE",
"600 -150 OFFCURVE",
"581 -150 CURVE SMOOTH",
"545 -150 OFFCURVE",
"520 -132 OFFCURVE",
"520 -100 CURVE SMOOTH",
"520 -74 OFFCURVE",
"536 -50 OFFCURVE",
"582 -28 CURVE SMOOTH",
"639 0 LINE",
"618 42 LINE"
);
}
);
width = 673.99707;
}
);
leftMetricsKey = A;
rightMetricsKey = A;
unicode = 0104;
},
{
glyphname = AE;
lastChange = "2021-09-01 17:33:15 +0000";
layers = (
{
hints = (
{
place = "{468, 114}";
type = Stem;
},
{
horizontal = 1;
place = "{0, 89}";
type = Stem;
},
{
horizontal = 1;
place = "{143, 89}";
type = Stem;
},
{
horizontal = 1;
place = "{310, 88}";
type = Stem;
},
{
horizontal = 1;
place = "{611, 89}";
type = Stem;
}
);
layerId = "0CF0EA28-C756-4A9E-9D7C-CFEF350B4CFE";
paths = (
{
closed = 1;
nodes = (
"147 172 LINE",
"519 172 LINE",
"519 267 LINE",
"196 267 LINE"
);
},
{
closed = 1;
nodes = (
"849 605 LINE",
"849 700 LINE",
"390 700 LINE",
"8 0 LINE",
"130 0 LINE",
"466 621 LINE",
"466 0 LINE",
"849 0 LINE",
"849 95 LINE",
"580 95 LINE",
"580 306 LINE",
"759 306 LINE",
"759 401 LINE",
"580 401 LINE",
"580 605 LINE"
);
}
);
width = 909;
},
{
hints = (
{
place = "{447, 21}";
type = Stem;
},
{
horizontal = 1;
place = "{685, -20}";
target = down;
type = TopGhost;
},
{
horizontal = 1;
place = "{0, 21}";
target = up;
type = BottomGhost;
}
);
layerId = "6E968933-CD79-43C6-9231-80D77C940F4D";
paths = (
{
closed = 1;
nodes = (
"156 210 LINE",
"452 210 LINE",
"452 230 LINE",
"163 230 LINE"
);
},
{
closed = 1;
nodes = (
"789 680 LINE",
"789 700 LINE",
"442 700 LINE",
"10 0 LINE",
"36 0 LINE",
"444 662 LINE",
"444 0 LINE",
"789 0 LINE",
"789 20 LINE",
"466 20 LINE",
"466 350 LINE",
"699 350 LINE",
"699 370 LINE",
"466 370 LINE",
"466 680 LINE"
);
}
);
width = 869.00043;
},
{
hints = (
{
place = "{483, 176}";
type = Stem;
},
{
horizontal = 1;
place = "{0, 140}";
type = Stem;
},
{
horizontal = 1;
place = "{116, 134}";
type = Stem;
},
{
horizontal = 1;
place = "{290, 133}";
type = Stem;
},
{
horizontal = 1;
place = "{561, 139}";
type = Stem;
}
);
layerId = "BAF31694-0472-4296-B0EA-1654553C45D2";
paths = (
{
closed = 1;
nodes = (
"152.5 140 LINE",
"566.5 140 LINE",
"566.5 286 LINE",
"227.5 286 LINE"
);
},
{
closed = 1;
nodes = (
"909.5 554 LINE",
"909.5 700 LINE",
"364.5 700 LINE",
"5.5 0 LINE",
"195.5 0 LINE",
"481.5 569 LINE",
"481.5 0 LINE",
"909.5 0 LINE",
"909.5 146 LINE",
"655.5 146 LINE",
"655.5 287 LINE",
"807.5 287 LINE",
"807.5 423 LINE",
"655.5 423 LINE",
"655.5 554 LINE"
);
}
);
width = 944.49519;
},
{
hints = (
{
place = "{550, 64}";
type = Stem;
},
{
horizontal = 1;
place = "{257, -20}";
target = down;
type = TopGhost;
},
{
horizontal = 1;
place = "{0, 21}";
target = up;
type = BottomGhost;
}
);
layerId = "9F107B1E-3A61-4335-981B-27DD48125C7E";
paths = (
{
closed = 1;
nodes = (
"145 184 LINE",
"495 184 LINE",
"495 254 LINE",
"178 254 LINE"
);
},
{
closed = 1;
nodes = (
"828 630 LINE",
"828 700 LINE",
"410 700 LINE",
"9 0 LINE",
"96 0 LINE",
"459 636 LINE",
"459 0 LINE",
"828 0 LINE",
"828 70 LINE",
"539 70 LINE",
"539 321 LINE",
"737 321 LINE",
"737 391 LINE",
"539 391 LINE",
"539 630 LINE"
);
}
);
width = 897.99891;
}
);
leftMetricsKey = A;
rightMetricsKey = E;
unicode = 00C6;
},
{
glyphname = B;
lastChange = "2021-09-01 17:33:15 +0000";
layers = (
{
hints = (
{
place = "{85, 114}";
type = Stem;
},
{
place = "{499, 116}";
type = Stem;
},
{
place = "{517, 114}";
type = Stem;
},
{
horizontal = 1;
place = "{0, 93}";
type = Stem;
},
{
horizontal = 1;
place = "{308, 93}";
type = Stem;
},
{
horizontal = 1;
place = "{607, 93}";
type = Stem;
}
);
layerId = "0CF0EA28-C756-4A9E-9D7C-CFEF350B4CFE";
paths = (
{
closed = 1;
nodes = (
"494 439 OFFCURVE",
"449 402 OFFCURVE",
"375 402 CURVE SMOOTH",
"194 402 LINE",
"194 605 LINE",
"375 605 LINE SMOOTH",
"449 605 OFFCURVE",
"494 567 OFFCURVE",
"494 503 CURVE SMOOTH"
);
},
{
closed = 1;
nodes = (
"626 302 OFFCURVE",
"556 350 OFFCURVE",
"456 355 CURVE",
"456 356 LINE",
"540 367 OFFCURVE",
"609 414 OFFCURVE",
"609 517 CURVE SMOOTH",
"609 616 OFFCURVE",
"532 700 OFFCURVE",
"385 700 CURVE SMOOTH",
"80 700 LINE",
"80 0 LINE",
"398 0 LINE SMOOTH",
"540 0 OFFCURVE",
"626 80 OFFCURVE",
"626 187 CURVE SMOOTH"
);
},
{
closed = 1;
nodes = (
"512 131 OFFCURVE",
"465 95 OFFCURVE",
"388 95 CURVE SMOOTH",
"194 95 LINE",
"194 307 LINE",
"384 307 LINE SMOOTH",
"460 307 OFFCURVE",
"512 269 OFFCURVE",
"512 199 CURVE SMOOTH"
);
},
{
closed = 1;
nodes = (
"403 334 LINE",
"482 334 LINE",
"482 388 LINE",
"403 388 LINE"
);
}
);
width = 678.8;
},
{
hints = (
{
place = "{103, 22}";
type = Stem;
},
{
place = "{539, 22}";
type = Stem;
},
{
place = "{561, 22}";
type = Stem;
},
{
horizontal = 1;
place = "{685, -20}";
target = down;
type = TopGhost;
},
{
horizontal = 1;
place = "{0, 21}";
target = up;
type = BottomGhost;
}
);
layerId = "6E968933-CD79-43C6-9231-80D77C940F4D";
paths = (
{
closed = 1;
nodes = (
"538 432 OFFCURVE",
"476 370 OFFCURVE",
"358 370 CURVE SMOOTH",
"122 370 LINE",
"122 680 LINE",
"352 680 LINE SMOOTH",
"483 680 OFFCURVE",
"538 612 OFFCURVE",
"538 525 CURVE"
);
},
{
closed = 1;
nodes = (
"576 290 OFFCURVE",
"492 360 OFFCURVE",
"395 360 CURVE",
"387 358 LINE",
"469 359 OFFCURVE",
"560 406 OFFCURVE",
"560 526 CURVE",
"560 621 OFFCURVE",
"500 700 OFFCURVE",
"353 700 CURVE SMOOTH",
"100 700 LINE",
"100 0 LINE",
"353 0 LINE SMOOTH",
"505 0 OFFCURVE",
"576 82 OFFCURVE",
"576 185 CURVE SMOOTH"
);
},
{
closed = 1;
nodes = (
"554 83 OFFCURVE",
"480 20 OFFCURVE",
"353 20 CURVE SMOOTH",
"122 20 LINE",
"122 350 LINE",
"351 350 LINE SMOOTH",
"478 350 OFFCURVE",
"554 286 OFFCURVE",
"554 185 CURVE SMOOTH"
);
},
{
closed = 1;
nodes = (
"338 354 LINE",
"427 354 LINE",
"427 367 LINE",
"338 367 LINE"
);
}
);
width = 641.99886;
},
{
hints = (
{
place = "{53, 176}";
type = Stem;
},
{
place = "{463, 179}";
type = Stem;
},
{
place = "{480, 179}";
type = Stem;
},
{
horizontal = 1;
place = "{0, 142}";
type = Stem;
},
{
horizontal = 1;
place = "{290, 133}";
type = Stem;
},
{
horizontal = 1;
place = "{559, 141}";
type = Stem;
}
);
layerId = "BAF31694-0472-4296-B0EA-1654553C45D2";
paths = (
{
closed = 1;
nodes = (
"466 444 OFFCURVE",
"433 424 OFFCURVE",
"379 424 CURVE SMOOTH",
"229 424 LINE",
"229 554 LINE",
"381 554 LINE SMOOTH",
"435 554 OFFCURVE",
"466 535 OFFCURVE",
"466 489 CURVE SMOOTH"
);
},
{
closed = 1;
nodes = (
"658 293 OFFCURVE",
"594 352 OFFCURVE",
"480 357 CURVE",
"477 361 LINE",
"573 366 OFFCURVE",
"642 412 OFFCURVE",
"642 515 CURVE SMOOTH",
"642 627 OFFCURVE",
"559 700 OFFCURVE",
"416 700 CURVE SMOOTH",
"55 700 LINE",
"55 0 LINE",
"427 0 LINE SMOOTH",
"576 0 OFFCURVE",
"658 76 OFFCURVE",
"658 192 CURVE SMOOTH"
);
},
{
closed = 1;
nodes = (
"483 170 OFFCURVE",
"451 146 OFFCURVE",
"395 146 CURVE SMOOTH",
"229 146 LINE",
"229 288 LINE",
"393 288 LINE SMOOTH",
"449 288 OFFCURVE",
"483 265 OFFCURVE",
"483 217 CURVE SMOOTH"
);
},
{
closed = 1;
nodes = (
"429 332 LINE",
"503 332 LINE",
"503 387 LINE",
"429 387 LINE"
);
}
);
width = 694.30114;
},
{
hints = (
{
place = "{39, 66}";
type = Stem;
},
{
place = "{395, 66}";
type = Stem;
},
{
place = "{590, 66}";
type = Stem;
},
{
horizontal = 1;
place = "{257, -20}";
target = down;
type = TopGhost;
},
{
horizontal = 1;
place = "{0, 21}";
target = up;
type = BottomGhost;
}
);
layerId = "9F107B1E-3A61-4335-981B-27DD48125C7E";
paths = (
{
closed = 1;
nodes = (
"513 436 OFFCURVE",
"461 391 OFFCURVE",
"371 391 CURVE SMOOTH",
"170 391 LINE",
"170 630 LINE",
"368 630 LINE SMOOTH",
"464 630 OFFCURVE",
"513 583 OFFCURVE",
"513 510 CURVE"
);
},
{
closed = 1;
nodes = (
"609 299 OFFCURVE",
"534 354 OFFCURVE",
"435 357 CURVE",
"432 357 LINE",
"515 364 OFFCURVE",
"592 410 OFFCURVE",
"592 520 CURVE",
"592 617 OFFCURVE",
"522 700 OFFCURVE",
"375 700 CURVE SMOOTH",
"90 700 LINE",
"90 0 LINE",
"383 0 LINE SMOOTH",
"529 0 OFFCURVE",
"609 83 OFFCURVE",
"609 188 CURVE SMOOTH"
);
},
{
closed = 1;
nodes = (
"530 115 OFFCURVE",
"473 70 OFFCURVE",
"377 70 CURVE SMOOTH",
"170 70 LINE",
"170 321 LINE",
"374 321 LINE SMOOTH",
"469 321 OFFCURVE",
"530 277 OFFCURVE",
"530 196 CURVE SMOOTH"
);
},
{
closed = 1;
nodes = (
"381 342 LINE",
"463 342 LINE",
"463 380 LINE",
"381 380 LINE"
);
}
);
width = 668.39747;
}
);
leftMetricsKey = H;
rightMetricsKey = "=H*0.66";
unicode = 0042;
},
{
glyphname = C;
lastChange = "2021-09-01 17:33:15 +0000";
layers = (
{
anchors = (
{
name = bottom;
position = "{389, 0}";
},
{
name = top;
position = "{397, 709}";
}
);
hints = (
{
place = "{42, 117}";
type = Stem;
},
{
horizontal = 1;
place = "{-6, 100}";
type = Stem;
},
{
horizontal = 1;
place = "{608, 101}";
type = Stem;
}
);
layerId = "0CF0EA28-C756-4A9E-9D7C-CFEF350B4CFE";
paths = (
{
closed = 1;
nodes = (
"40 141 OFFCURVE",
"199 -7 OFFCURVE",
"395 -7 CURVE SMOOTH",
"535 -7 OFFCURVE",
"655 58 OFFCURVE",
"717 202 CURVE",
"625 233 LINE",
"573 124 OFFCURVE",
"478 90 OFFCURVE",
"398 90 CURVE SMOOTH",
"260 90 OFFCURVE",
"156 193 OFFCURVE",
"156 350 CURVE SMOOTH",
"156 508 OFFCURVE",
"260 610 OFFCURVE",
"398 610 CURVE SMOOTH",
"476 610 OFFCURVE",
"569 575 OFFCURVE",
"616 486 CURVE",
"708 519 LINE",
"650 641 OFFCURVE",
"531 707 OFFCURVE",
"395 707 CURVE SMOOTH",
"199 707 OFFCURVE",
"40 560 OFFCURVE",
"40 350 CURVE SMOOTH"
);
}
);
width = 770.33085;
},
{
anchors = (
{
name = bottom;
position = "{401, 0}";
},
{
name = top;
position = "{379, 700}";
}
);
hints = (
{
place = "{64, 23}";
type = Stem;
},
{
horizontal = 1;
place = "{-7, 21}";
target = up;
type = BottomGhost;
},
{
horizontal = 1;
place = "{692, -20}";
target = down;
type = TopGhost;
}
);
layerId = "6E968933-CD79-43C6-9231-80D77C940F4D";
paths = (
{
closed = 1;
nodes = (
"50 141 OFFCURVE",
"188 -7 OFFCURVE",
"379 -7 CURVE SMOOTH",
"545 -7 OFFCURVE",
"649 75 OFFCURVE",
"698 201 CURVE",
"680 208 LINE",
"639 97 OFFCURVE",
"535 11 OFFCURVE",
"379 13 CURVE",
"210 13 OFFCURVE",
"72 141 OFFCURVE",
"72 350 CURVE SMOOTH",
"72 561 OFFCURVE",
"210 687 OFFCURVE",
"379 687 CURVE SMOOTH",
"533 687 OFFCURVE",
"633 609 OFFCURVE",
"676 501 CURVE",
"694 508 LINE",
"644 629 OFFCURVE",
"541 707 OFFCURVE",
"379 707 CURVE SMOOTH",
"188 707 OFFCURVE",
"50 561 OFFCURVE",
"50 350 CURVE SMOOTH"
);
}
);
width = 764.66148;
},
{
anchors = (
{
name = bottom;
position = "{375.5, 1}";
},
{
name = top;
position = "{380.5, 705}";
}
);
hints = (
{
place = "{26, 179}";
type = Stem;
},
{
horizontal = 1;
place = "{-5, 159}";
type = Stem;
},
{
horizontal = 1;
place = "{548, 159}";
type = Stem;
}
);
layerId = "BAF31694-0472-4296-B0EA-1654553C45D2";
paths = (
{
closed = 1;
nodes = (
"27.5 139 OFFCURVE",
"171.5 -7 OFFCURVE",
"379.5 -7 CURVE SMOOTH",
"541.5 -7 OFFCURVE",
"659.5 78 OFFCURVE",
"706.5 228 CURVE",
"559.5 258 LINE",
"522.5 171 OFFCURVE",
"458.5 139 OFFCURVE",
"379.5 139 CURVE SMOOTH",
"268.5 139 OFFCURVE",
"201.5 228 OFFCURVE",
"201.5 350 CURVE SMOOTH",
"201.5 470 OFFCURVE",
"268.5 561 OFFCURVE",
"379.5 561 CURVE SMOOTH",
"457.5 561 OFFCURVE",
"515.5 529 OFFCURVE",
"550.5 455 CURVE",
"701.5 488 LINE",
"654.5 624 OFFCURVE",
"537.5 707 OFFCURVE",
"379.5 707 CURVE SMOOTH",
"171.5 707 OFFCURVE",
"27.5 559 OFFCURVE",
"27.5 350 CURVE SMOOTH"
);
}
);
width = 743.1685;
},
{
anchors = (
{
name = bottom;
position = "{395, 0}";
},
{
name = top;
position = "{392, 706}";
}
);
hints = (
{
place = "{404, 72}";
type = Stem;
},
{
horizontal = 1;
place = "{-3, 21}";
target = up;
type = BottomGhost;
},
{
horizontal = 1;
place = "{260, -20}";
target = down;
type = TopGhost;
}
);
layerId = "9F107B1E-3A61-4335-981B-27DD48125C7E";
paths = (
{
closed = 1;
nodes = (
"45 141 OFFCURVE",
"196 -7 OFFCURVE",
"391 -7 CURVE SMOOTH",
"540 -7 OFFCURVE",
"654 64 OFFCURVE",
"711 201 CURVE",
"646 225 LINE",
"598 116 OFFCURVE",
"499 64 OFFCURVE",
"391 65 CURVE",
"241 65 OFFCURVE",
"127 173 OFFCURVE",
"127 350 CURVE SMOOTH",
"127 528 OFFCURVE",
"241 635 OFFCURVE",
"391 635 CURVE SMOOTH",
"497 635 OFFCURVE",
"594 588 OFFCURVE",
"639 491 CURVE",
"704 515 LINE",
"649 637 OFFCURVE",
"536 707 OFFCURVE",
"391 707 CURVE SMOOTH",
"196 707 OFFCURVE",
"45 561 OFFCURVE",
"45 350 CURVE SMOOTH"
);
}
);
width = 770.99802;
}
);
leftMetricsKey = O;
rightMetricsKey = "=O*1.3333";
unicode = 0043;
},
{
glyphname = D;
lastChange = "2021-09-01 17:33:15 +0000";
layers = (
{
anchors = (
{
name = top;
position = "{350, 701}";
}
);
hints = (
{
place = "{85, 114}";
type = Stem;
},
{
place = "{584, 117}";
type = Stem;
},
{
horizontal = 1;
place = "{0, 93}";
type = Stem;
},
{
horizontal = 1;
place = "{607, 93}";
type = Stem;
}
);
layerId = "0CF0EA28-C756-4A9E-9D7C-CFEF350B4CFE";
paths = (
{
closed = 1;
nodes = (
"80 700 LINE",
"80 0 LINE",
"327 0 LINE SMOOTH",
"550 0 OFFCURVE",
"696 132 OFFCURVE",
"696 347 CURVE SMOOTH",
"696 563 OFFCURVE",
"550 700 OFFCURVE",
"327 700 CURVE SMOOTH"
);
},
{
closed = 1;
nodes = (
"194 95 LINE",
"194 605 LINE",
"327 605 LINE SMOOTH",
"491 605 OFFCURVE",
"580 507 OFFCURVE",
"580 347 CURVE SMOOTH",
"580 188 OFFCURVE",
"491 95 OFFCURVE",
"327 95 CURVE SMOOTH"
);
}
);
width = 736;
},
{
anchors = (
{
name = top;
position = "{326, 679}";
}
);
hints = (
{
place = "{103, 22}";
type = Stem;
},
{
place = "{661, 22}";
type = Stem;
},
{
horizontal = 1;
place = "{0, 21}";
target = up;
type = BottomGhost;
},
{
horizontal = 1;
place = "{685, -20}";
target = down;
type = TopGhost;
}
);
layerId = "6E968933-CD79-43C6-9231-80D77C940F4D";
paths = (
{
closed = 1;
nodes = (
"100 700 LINE",
"100 0 LINE",
"305 0 LINE",
"550 0 OFFCURVE",
"677 129 OFFCURVE",
"677 350 CURVE",
"677 571 OFFCURVE",
"550 700 OFFCURVE",
"305 700 CURVE"
);
},
{
closed = 1;
nodes = (
"122 20 LINE",
"122 680 LINE",
"305 680 LINE",
"540 680 OFFCURVE",
"655 554 OFFCURVE",
"655 350 CURVE",
"655 146 OFFCURVE",
"540 20 OFFCURVE",
"305 20 CURVE"
);
}
);
width = 726.99649;
},
{
anchors = (
{
name = top;
position = "{342, 702}";
}
);
hints = (
{
place = "{53, 176}";
type = Stem;
},
{
place = "{529, 179}";
type = Stem;
},
{
horizontal = 1;
place = "{0, 153}";
type = Stem;
},
{
horizontal = 1;
place = "{549, 151}";
type = Stem;
}
);
layerId = "BAF31694-0472-4296-B0EA-1654553C45D2";
paths = (
{
closed = 1;
nodes = (
"55 700 LINE",
"55 0 LINE",
"341 0 LINE SMOOTH",
"566 0 OFFCURVE",
"710 144 OFFCURVE",
"710 350 CURVE SMOOTH",
"710 558 OFFCURVE",
"566 700 OFFCURVE",
"341 700 CURVE SMOOTH"
);
},
{
closed = 1;
nodes = (
"229 146 LINE",
"229 554 LINE",
"330 554 LINE SMOOTH",
"456 554 OFFCURVE",
"533 476 OFFCURVE",
"533 350 CURVE SMOOTH",
"533 224 OFFCURVE",
"456 146 OFFCURVE",
"330 146 CURVE SMOOTH"
);
}
);
width = 737.50255;
},
{
anchors = (
{
name = top;
position = "{343, 693}";
}
);
hints = (
{
place = "{39, 66}";
type = Stem;
},
{
place = "{627, 66}";
type = Stem;
},
{
horizontal = 1;
place = "{0, 21}";
target = up;
type = BottomGhost;
},
{
horizontal = 1;
place = "{257, -20}";
target = down;
type = TopGhost;
}
);
layerId = "9F107B1E-3A61-4335-981B-27DD48125C7E";
paths = (
{
closed = 1;
nodes = (
"90 700 LINE",
"90 0 LINE",
"321 0 LINE",
"552 0 OFFCURVE",
"691 131 OFFCURVE",
"691 348 CURVE",
"691 566 OFFCURVE",
"552 700 OFFCURVE",
"321 700 CURVE"
);
},
{
closed = 1;
nodes = (
"170 70 LINE",
"170 630 LINE",
"321 630 LINE",
"511 630 OFFCURVE",
"610 525 OFFCURVE",
"610 348 CURVE",
"610 172 OFFCURVE",
"511 70 OFFCURVE",
"321 70 CURVE"
);
}
);
width = 736.00243;
}
);
leftMetricsKey = H;
rightMetricsKey = "=H*0.5";
unicode = 0044;
},
{
glyphname = Eth;
lastChange = "2021-09-01 17:33:15 +0000";
layers = (
{
hints = (
{
place = "{142, 115}";
type = Stem;
},
{
place = "{621, 117}";
type = Stem;
},
{
horizontal = 1;
place = "{0, 87}";
type = Stem;
},
{
horizontal = 1;
place = "{295, 105}";
type = Stem;
},
{
horizontal = 1;
place = "{608, 92}";
type = Stem;
}
);
layerId = "0CF0EA28-C756-4A9E-9D7C-CFEF350B4CFE";
paths = (
{
closed = 1;
nodes = (
"60 295 LINE",
"430 295 LINE",
"430 400 LINE",
"60 400 LINE"
);
},
{
closed = 1;
nodes = (
"137 700 LINE",
"137 0 LINE",
"365 0 LINE SMOOTH",
"588 0 OFFCURVE",
"733 132 OFFCURVE",
"733 347 CURVE SMOOTH",
"733 563 OFFCURVE",
"588 700 OFFCURVE",
"365 700 CURVE SMOOTH"
);
},
{
closed = 1;
nodes = (
"252 87 LINE",
"252 608 LINE",
"365 608 LINE SMOOTH",
"528 608 OFFCURVE",
"616 507 OFFCURVE",
"616 347 CURVE SMOOTH",
"616 188 OFFCURVE",
"528 86 OFFCURVE",
"365 87 CURVE SMOOTH"
);
}
);
width = 773;
},
{
hints = (
{
place = "{202, 22}";
type = Stem;
},
{
place = "{734, 22}";
type = Stem;
},
{
horizontal = 1;
place = "{0, 21}";
target = up;
type = BottomGhost;
},
{
horizontal = 1;
place = "{685, -20}";
target = down;
type = TopGhost;
}
);
layerId = "6E968933-CD79-43C6-9231-80D77C940F4D";
paths = (
{
closed = 1;
nodes = (
"80 340 LINE",
"448 340 LINE",
"448 360 LINE",
"80 360 LINE"
);
},
{
closed = 1;
nodes = (
"194 700 LINE",
"194 0 LINE",
"380 0 LINE",
"624 0 OFFCURVE",
"752 129 OFFCURVE",
"752 350 CURVE",
"752 571 OFFCURVE",
"624 700 OFFCURVE",
"380 700 CURVE"
);
},
{
closed = 1;
nodes = (
"216 19 LINE",
"216 681 LINE",
"380 681 LINE",
"614 681 OFFCURVE",
"730 554 OFFCURVE",
"730 350 CURVE",
"730 146 OFFCURVE",
"614 19 OFFCURVE",
"380 19 CURVE"
);
}
);
width = 802.00298;
},
{
hints = (
{
place = "{95, 177}";
type = Stem;
},
{
place = "{550, 179}";
type = Stem;
},
{
horizontal = 1;
place = "{0, 151}";
type = Stem;
},
{
horizontal = 1;
place = "{277, 146}";
type = Stem;
},
{
horizontal = 1;
place = "{549, 151}";
type = Stem;
}
);
layerId = "BAF31694-0472-4296-B0EA-1654553C45D2";
paths = (
{
closed = 1;
nodes = (
"35 277 LINE",
"424 277 LINE",
"424 423 LINE",
"35 423 LINE"
);
},
{
closed = 1;
nodes = (
"97 700 LINE",
"97 0 LINE",
"363 0 LINE SMOOTH",
"588 0 OFFCURVE",
"731 144 OFFCURVE",
"731 350 CURVE SMOOTH",
"731 558 OFFCURVE",
"588 700 OFFCURVE",
"363 700 CURVE SMOOTH"
);
},
{
closed = 1;
nodes = (
"273 151 LINE",
"273 550 LINE",
"352 550 LINE SMOOTH",
"477 550 OFFCURVE",
"552 476 OFFCURVE",
"552 350 CURVE SMOOTH",
"552 224 OFFCURVE",
"477 150 OFFCURVE",
"352 151 CURVE SMOOTH"
);
}
);
width = 758.50245;
},
{
hints = (
{
place = "{260, 74}";
type = Stem;
},
{
place = "{655, 66}";
type = Stem;
},
{
horizontal = 1;
place = "{0, 21}";
target = up;
type = BottomGhost;
},
{
horizontal = 1;
place = "{257, -20}";
target = down;
type = TopGhost;
}
);
layerId = "9F107B1E-3A61-4335-981B-27DD48125C7E";
paths = (
{
closed = 1;
nodes = (
"70 312 LINE",
"439 312 LINE",
"439 385 LINE",
"70 385 LINE"
);
},
{
closed = 1;
nodes = (
"160 700 LINE",
"160 0 LINE",
"373 0 LINE",
"604 0 OFFCURVE",
"742 131 OFFCURVE",
"742 348 CURVE",
"742 566 OFFCURVE",
"604 700 OFFCURVE",
"373 700 CURVE"
);
},
{
closed = 1;
nodes = (
"241 62 LINE",
"241 635 LINE",
"373 635 LINE",
"562 635 OFFCURVE",
"661 525 OFFCURVE",
"661 348 CURVE",
"661 172 OFFCURVE",
"562 61 OFFCURVE",
"373 62 CURVE"
);
}
);
width = 787.00487;
}
);
leftMetricsKey = "=D-20";
rightMetricsKey = D;
unicode = 00D0;
},
{
glyphname = E;
lastChange = "2021-09-01 17:33:15 +0000";
layers = (
{
anchors = (
{
name = bottom;
position = "{307, 0}";
},
{
name = ogonek;
position = "{504, 0}";
},
{
name = top;
position = "{317, 701}";
}
);
hints = (
{
place = "{85, 114}";
type = Stem;
},
{
horizontal = 1;
place = "{0, 93}";
type = Stem;
},
{
horizontal = 1;
place = "{308, 93}";
type = Stem;
},
{
horizontal = 1;
place = "{607, 93}";
type = Stem;
}
);
layerId = "0CF0EA28-C756-4A9E-9D7C-CFEF350B4CFE";
paths = (
{
closed = 1;
nodes = (
"554 700 LINE",
"80 700 LINE",
"80 0 LINE",
"554 0 LINE",
"554 95 LINE",
"194 95 LINE",
"194 307 LINE",
"464 307 LINE",
"464 402 LINE",
"194 402 LINE",
"194 605 LINE",
"554 605 LINE"
);
}
);
width = 614;
},
{
anchors = (
{
name = bottom;
position = "{288, 0}";
},
{
name = ogonek;
position = "{484, 0}";
},
{
name = top;
position = "{317, 690}";
}
);
hints = (
{
place = "{116, 22}";
type = Stem;
},
{
horizontal = 1;
place = "{685, -20}";
target = down;
type = TopGhost;
},
{
horizontal = 1;
place = "{0, 21}";
target = up;
type = BottomGhost;
}
);
layerId = "6E968933-CD79-43C6-9231-80D77C940F4D";
paths = (
{
closed = 1;
nodes = (
"534 700 LINE",
"100 700 LINE",
"100 0 LINE",
"534 0 LINE",
"534 20 LINE",
"122 20 LINE",
"122 350 LINE",
"444 350 LINE",
"444 370 LINE",
"122 370 LINE",
"122 680 LINE",
"534 680 LINE"
);
}
);
width = 614;
},
{
anchors = (
{
name = bottom;
position = "{308, 1}";
},
{
name = ogonek;
position = "{530, 1}";
},
{
name = top;
position = "{312, 702}";
}
);
hints = (
{
place = "{53, 176}";
type = Stem;
},
{
horizontal = 1;
place = "{0, 141}";
type = Stem;
},
{
horizontal = 1;
place = "{286, 141}";
type = Stem;
},
{
horizontal = 1;
place = "{559, 141}";
type = Stem;
}
);
layerId = "BAF31694-0472-4296-B0EA-1654553C45D2";
paths = (
{
closed = 1;
nodes = (
"580 700 LINE",
"55 700 LINE",
"55 0 LINE",
"579.991 0 LINE",
"580 146 LINE",
"229 146 LINE",
"229 287 LINE",
"478 287 LINE",
"478 423 LINE",
"229 423 LINE",
"229 554 LINE",
"580 554 LINE"
);
}
);
width = 615.00434;
},
{
anchors = (
{
name = bottom;
position = "{302, 0}";
},
{
name = ogonek;
position = "{499, 0}";
},
{
name = top;
position = "{319, 697}";
}
);
hints = (
{
place = "{423, 66}";
type = Stem;
},
{
horizontal = 1;
place = "{257, -20}";
target = down;
type = TopGhost;
},
{
horizontal = 1;
place = "{0, 21}";
target = up;
type = BottomGhost;
}
);
layerId = "9F107B1E-3A61-4335-981B-27DD48125C7E";
paths = (
{
closed = 1;
nodes = (
"549 700 LINE",
"90 700 LINE",
"90 0 LINE",
"549 0 LINE",
"549 70 LINE",
"170 70 LINE",
"170 321 LINE",
"459 321 LINE",
"459 391 LINE",
"170 391 LINE",
"170 630 LINE",
"549 630 LINE"
);
}
);
width = 619.00375;
}
);
leftMetricsKey = H;
rightMetricsKey = "=H-20";
unicode = 0045;
},
{
glyphname = F;
lastChange = "2021-09-01 17:33:15 +0000";
layers = (
{
hints = (
{
place = "{85, 114}";
type = Stem;
},
{
horizontal = 1;
place = "{306, 93}";
type = Stem;
},
{
horizontal = 1;
place = "{607, 93}";
type = Stem;
},
{
horizontal = 1;
place = "{0, 21}";
target = up;
type = BottomGhost;
}
);
layerId = "0CF0EA28-C756-4A9E-9D7C-CFEF350B4CFE";
paths = (
{
closed = 1;
nodes = (
"80 0 LINE",
"194 0 LINE",
"194 307 LINE",
"464 307 LINE",
"464 402 LINE",
"194 402 LINE",
"194 605 LINE",
"554 605 LINE",
"554 700 LINE",
"80 700 LINE"
);
}
);
width = 593.956;
},
{
hints = (
{
place = "{116, 22}";
type = Stem;
},
{
horizontal = 1;
place = "{685, -20}";
target = down;
type = TopGhost;
},
{
horizontal = 1;
place = "{0, 21}";
target = up;
type = BottomGhost;
}
);
layerId = "6E968933-CD79-43C6-9231-80D77C940F4D";
paths = (
{
closed = 1;
nodes = (
"100 0 LINE",
"122 0 LINE",
"122 350 LINE",
"444 350 LINE",
"444 370 LINE",
"122 370 LINE",
"122 680 LINE",
"534 680 LINE",
"534 700 LINE",
"100 700 LINE"
);
}
);
width = 587.2825;
},
{
hints = (
{
place = "{53, 176}";
type = Stem;
},
{
horizontal = 1;
place = "{281, 136}";
type = Stem;
},
{
horizontal = 1;
place = "{559, 141}";
type = Stem;
},
{
horizontal = 1;
place = "{0, 21}";
target = up;
type = BottomGhost;
}
);
layerId = "BAF31694-0472-4296-B0EA-1654553C45D2";
paths = (
{
closed = 1;
nodes = (
"55 0 LINE",
"229 0 LINE",
"229 287 LINE",
"478 287 LINE",
"478 423 LINE",
"229 423 LINE",
"229 554 LINE",
"580 554 LINE",
"580 700 LINE",
"55 700 LINE"
);
}
);
width = 603.31045;
},
{
hints = (
{
place = "{423, 66}";
type = Stem;
},
{
horizontal = 1;
place = "{257, -20}";
target = down;
type = TopGhost;
},
{
horizontal = 1;
place = "{0, 21}";
target = up;
type = BottomGhost;
}
);
layerId = "9F107B1E-3A61-4335-981B-27DD48125C7E";
paths = (
{
closed = 1;
nodes = (
"90 0 LINE",
"170 0 LINE",
"170 321 LINE",
"459 321 LINE",
"459 391 LINE",
"170 391 LINE",
"170 630 LINE",
"549 630 LINE",
"549 700 LINE",
"90 700 LINE"
);
}
);
width = 595.61935;
}
);
leftMetricsKey = H;
rightMetricsKey = "=E*0.666";
unicode = 0046;
},
{
glyphname = G;
lastChange = "2021-09-01 17:33:15 +0000";
layers = (
{
anchors = (
{
name = bottom;
position = "{389, 0}";
},
{
name = top;
position = "{389, 701}";
}
);
hints = (
{
place = "{42, 117}";
type = Stem;
},
{
place = "{599, 122}";
type = Stem;
},
{
horizontal = 1;
place = "{-6, 103}";
type = Stem;
},
{
horizontal = 1;
place = "{292, 91}";
type = Stem;
},
{
horizontal = 1;
place = "{604, 104}";
type = Stem;
}
);
layerId = "0CF0EA28-C756-4A9E-9D7C-CFEF350B4CFE";
paths = (
{
closed = 1;
nodes = (
"709 520 LINE",
"655 641 OFFCURVE",
"528 707 OFFCURVE",
"395 707 CURVE SMOOTH",
"199 707 OFFCURVE",
"40 559 OFFCURVE",
"40 350 CURVE SMOOTH",
"40 140 OFFCURVE",
"199 -7 OFFCURVE",
"395 -7 CURVE SMOOTH",
"551 -7 OFFCURVE",
"676 89 OFFCURVE",
"724 214 CURVE",
"724 386 LINE",
"404 386 LINE",
"404 292 LINE",
"608 292 LINE",
"608 219 LINE",
"573 143 OFFCURVE",
"493 90 OFFCURVE",
"395 90 CURVE SMOOTH",
"257 90 OFFCURVE",
"156 196 OFFCURVE",
"156 350 CURVE SMOOTH",
"156 504 OFFCURVE",
"260 610 OFFCURVE",
"398 610 CURVE SMOOTH",
"486.675 610 OFFCURVE",
"559.579 573.242 OFFCURVE",
"609 483 CURVE"
);
}
);
width = 772;
},
{
anchors = (
{
name = bottom;
position = "{401, 0}";
},
{
name = top;
position = "{401, 679}";
}
);
hints = (
{
place = "{64, 23}";
type = Stem;
},
{
horizontal = 1;
place = "{691, -20}";
target = down;
type = TopGhost;
},
{
horizontal = 1;
place = "{-8, 21}";
target = up;
type = BottomGhost;
}
);
layerId = "6E968933-CD79-43C6-9231-80D77C940F4D";
paths = (
{
closed = 1;
nodes = (
"690 509 LINE",
"639 629 OFFCURVE",
"535 707 OFFCURVE",
"387 707 CURVE SMOOTH",
"191 707 OFFCURVE",
"50 560 OFFCURVE",
"50 350 CURVE SMOOTH",
"50 140 OFFCURVE",
"191 -7 OFFCURVE",
"387 -7 CURVE SMOOTH",
"546 -7 OFFCURVE",
"669 91 OFFCURVE",
"709 240 CURVE",
"709 359 LINE",
"387 359 LINE",
"387 339 LINE",
"687 339 LINE",
"687 242 LINE",
"647 98 OFFCURVE",
"528 13 OFFCURVE",
"387 13 CURVE SMOOTH",
"212 13 OFFCURVE",
"72 141 OFFCURVE",
"72 350 CURVE SMOOTH",
"72 560 OFFCURVE",
"212 687 OFFCURVE",
"387 687 CURVE SMOOTH",
"527 687 OFFCURVE",
"629 609 OFFCURVE",
"672 502 CURVE"
);
}
);
width = 769.0006;
},
{
anchors = (
{
name = bottom;
position = "{375.5, 1}";
},
{
name = top;
position = "{375.5, 702}";
}
);
hints = (
{
place = "{18, 50}";
type = Stem;
},
{
place = "{263, 181}";
type = Stem;
},
{
horizontal = 1;
place = "{-5, 156}";
type = Stem;
},
{
horizontal = 1;
place = "{267, 128}";
type = Stem;
},
{
horizontal = 1;
place = "{545, 162}";
type = Stem;
}
);
layerId = "BAF31694-0472-4296-B0EA-1654553C45D2";
paths = (
{
closed = 1;
nodes = (
"708.5 508 LINE",
"664.5 631 OFFCURVE",
"538.5 707 OFFCURVE",
"383.5 707 CURVE SMOOTH",
"172.5 707 OFFCURVE",
"27.5 559 OFFCURVE",
"27.5 350 CURVE SMOOTH",
"27.5 141 OFFCURVE",
"173.5 -7 OFFCURVE",
"385.5 -7 CURVE SMOOTH",
"556.5 -7 OFFCURVE",
"666.5 94 OFFCURVE",
"714.5 196 CURVE",
"714.5 401 LINE",
"386.5 401 LINE",
"386.5 265 LINE",
"554.5 265 LINE",
"554.5 236 LINE",
"521.5 179 OFFCURVE",
"469.5 141 OFFCURVE",
"398.5 141 CURVE SMOOTH",
"277.5 141 OFFCURVE",
"204.5 223 OFFCURVE",
"204.5 350 CURVE SMOOTH",
"204.5 468 OFFCURVE",
"281.5 559 OFFCURVE",
"389.5 559 CURVE SMOOTH",
"459.95 559 OFFCURVE",
"512.353 530.981 OFFCURVE",
"544.5 470 CURVE"
);
}
);
width = 747.50109;
},
{
anchors = (
{
name = bottom;
position = "{395, 0}";
},
{
name = top;
position = "{395, 693}";
}
);
hints = (
{
place = "{402, 74}";
type = Stem;
},
{
horizontal = 1;
place = "{259, -20}";
target = down;
type = TopGhost;
},
{
horizontal = 1;
place = "{-3, 21}";
target = up;
type = BottomGhost;
}
);
layerId = "9F107B1E-3A61-4335-981B-27DD48125C7E";
paths = (
{
closed = 1;
nodes = (
"705 516 LINE",
"652 637 OFFCURVE",
"532 707 OFFCURVE",
"394 707 CURVE SMOOTH",
"198 707 OFFCURVE",
"45 560 OFFCURVE",
"45 350 CURVE SMOOTH",
"45 140 OFFCURVE",
"198 -7 OFFCURVE",
"394 -7 CURVE SMOOTH",
"551 -7 OFFCURVE",
"676 90 OFFCURVE",
"721 224 CURVE",
"721 374 LINE",
"400 374 LINE",
"400 309 LINE",
"640 309 LINE",
"640 228 LINE",
"603 126 OFFCURVE",
"508 65 OFFCURVE",
"394 65 CURVE SMOOTH",
"242 65 OFFCURVE",
"126 176 OFFCURVE",
"126 350 CURVE SMOOTH",
"126 525 OFFCURVE",
"242 636 OFFCURVE",
"394 636 CURVE SMOOTH",
"497 636 OFFCURVE",
"585.457 590.513 OFFCURVE",
"635 490 CURVE"
);
}
);
width = 775.00073;
}
);
leftMetricsKey = O;
rightMetricsKey = "=O*1.2";
unicode = 0047;
},
{
glyphname = Gcommaaccent;
lastChange = "2021-09-01 17:33:15 +0000";
layers = (
{
anchors = (
{
name = _bottom;
position = "{386, 0}";
}
);
components = (
{
alignment = -1;
name = G;
}
);
hints = (
{
place = "{332, 117}";
type = Stem;
},
{
place = "{336, 113}";
type = Stem;
},
{
place = "{385, 64}";
type = Stem;
},
{
horizontal = 1;
place = "{-143, 96}";
type = Stem;
},
{
horizontal = 1;
place = "{-272, 21}";
target = up;
type = BottomGhost;
}
);
layerId = "0CF0EA28-C756-4A9E-9D7C-CFEF350B4CFE";
paths = (
{
closed = 1;
nodes = (
"332 -47 LINE",
"332 -143 LINE",
"385 -143 LINE",
"385 -165 LINE SMOOTH",
"385 -203.003 OFFCURVE",
"370 -222 OFFCURVE",
"336 -222 CURVE",
"336 -272 LINE",
"410 -272 OFFCURVE",
"449 -230 OFFCURVE",
"449 -146 CURVE SMOOTH",
"449 -117 OFFCURVE",
"444 -84 OFFCURVE",
"435 -47 CURVE"
);
}
);
width = 772;
},
{
anchors = (
{
name = _bottom;
position = "{396, -8}";
}
);
components = (
{
alignment = -1;
name = G;
}
);
hints = (
{
place = "{396, 24}";
type = Stem;
},
{
horizontal = 1;
place = "{-58, -20}";
target = down;
type = TopGhost;
},
{
horizontal = 1;
place = "{-177, 21}";
target = up;
type = BottomGhost;
}
);
layerId = "6E968933-CD79-43C6-9231-80D77C940F4D";
paths = (
{
closed = 1;
nodes = (
"376 -58 LINE",
"376 -97 LINE",
"408 -97 LINE",
"408 -105 LINE SMOOTH",
"408 -138 OFFCURVE",
"396 -158 OFFCURVE",
"364 -158 CURVE",
"364 -177 LINE",
"401 -177 OFFCURVE",
"430 -162 OFFCURVE",
"430 -91 CURVE SMOOTH",
"430 -81 OFFCURVE",
"429 -68 OFFCURVE",
"428 -58 CURVE"
);
}
);
width = 768.9966;
},
{
anchors = (
{
name = _bottom;
position = "{381, 1}";
}
);
components = (
{
alignment = -1;
name = G;
}
);
hints = (
{
place = "{312, 154}";
type = Stem;
},
{
place = "{356, 111}";
type = Stem;
},
{
place = "{-33, 73}";
type = Stem;
},
{
horizontal = 1;
place = "{-164, 125}";
type = Stem;
},
{
horizontal = 1;
place = "{-115, 21}";
target = up;
type = BottomGhost;
}
);
layerId = "BAF31694-0472-4296-B0EA-1654553C45D2";
paths = (
{
closed = 1;
nodes = (
"312 -38 LINE",
"312 -164 LINE",
"376 -164 LINE",
"376 -178 LINE SMOOTH",
"376 -224 OFFCURVE",
"358 -245 OFFCURVE",
"324 -245 CURVE",
"324 -312 LINE",
"421 -312 OFFCURVE",
"467 -248 OFFCURVE",
"467 -158 CURVE SMOOTH",
"467 -121 OFFCURVE",
"460 -81 OFFCURVE",
"446 -38 CURVE"
);
}
);
width = 747.49509;
},
{
anchors = (
{
name = _bottom;
position = "{390, -3}";
}
);
components = (
{
alignment = -1;
name = G;
}
);
hints = (
{
place = "{59, 69}";
type = Stem;
},
{
horizontal = 1;
place = "{-22, -20}";
target = down;
type = TopGhost;
},
{
horizontal = 1;
place = "{-236, 21}";
target = up;
type = BottomGhost;
}
);
layerId = "9F107B1E-3A61-4335-981B-27DD48125C7E";
paths = (
{
closed = 1;
nodes = (
"349 -51 LINE",
"349 -126 LINE",
"394 -126 LINE",
"394 -143 LINE SMOOTH",
"394 -179 OFFCURVE",
"380 -198 OFFCURVE",
"347 -198 CURVE",
"347 -236 LINE",
"407 -236 OFFCURVE",
"442 -205 OFFCURVE",
"442 -125 CURVE SMOOTH",
"442 -104 OFFCURVE",
"438 -78 OFFCURVE",
"432 -51 CURVE"
);
}
);
width = 775.00248;
}
);
leftMetricsKey = G;
rightMetricsKey = G;
unicode = 0122;
},
{
glyphname = H;
lastChange = "2021-09-01 17:33:15 +0000";
layers = (
{
guideLines = (
{
position = "{2, 699.66}";
}
);
hints = (
{
place = "{85, 114}";
type = Stem;
},
{
place = "{526, 114}";
type = Stem;
},
{
horizontal = 1;
place = "{306, 93}";
type = Stem;
},
{
horizontal = 1;
place = "{0, 21}";
target = up;
type = BottomGhost;
},
{
horizontal = 1;
place = "{700, -20}";
target = down;
type = TopGhost;
}
);
layerId = "0CF0EA28-C756-4A9E-9D7C-CFEF350B4CFE";
paths = (
{
closed = 1;
nodes = (
"80 0 LINE",
"194 0 LINE",
"194 700 LINE",
"80 700 LINE"
);
},
{
closed = 1;
nodes = (
"529 0 LINE",
"643 0 LINE",
"643 700 LINE",
"529 700 LINE"
);
},
{
closed = 1;
nodes = (
"181 307 LINE",
"555 307 LINE",
"555 402 LINE",
"181 402 LINE"
);
}
);
width = 723;
},
{
hints = (
{
place = "{114, 22}";
type = Stem;
},
{
place = "{559, 22}";
type = Stem;
},
{
horizontal = 1;
place = "{0, 21}";
target = up;
type = BottomGhost;
},
{
horizontal = 1;
place = "{700, -20}";
target = down;
type = TopGhost;
}
);
layerId = "6E968933-CD79-43C6-9231-80D77C940F4D";
paths = (
{
closed = 1;
nodes = (
"100 0 LINE",
"122 0 LINE",
"122 700 LINE",
"100 700 LINE"
);
},
{
closed = 1;
nodes = (
"569 0 LINE",
"591 0 LINE",
"591 700 LINE",
"569 700 LINE"
);
},
{
closed = 1;
nodes = (
"115 350 LINE",
"575 350 LINE",
"575 370 LINE",
"115 370 LINE"
);
}
);
width = 690.99596;
},
{
hints = (
{
place = "{53, 176}";
type = Stem;
},
{
place = "{490, 176}";
type = Stem;
},
{
horizontal = 1;
place = "{286, 141}";
type = Stem;
},
{
horizontal = 1;
place = "{0, 21}";
target = up;
type = BottomGhost;
},
{
horizontal = 1;
place = "{700, -20}";
target = down;
type = TopGhost;
}
);
layerId = "BAF31694-0472-4296-B0EA-1654553C45D2";
paths = (
{
closed = 1;
nodes = (
"55 0 LINE",
"229 0 LINE",
"229 700 LINE",
"55 700 LINE"
);
},
{
closed = 1;
nodes = (
"493 0 LINE",
"667 0 LINE",
"667 700 LINE",
"493 700 LINE"
);
},
{
closed = 1;
nodes = (
"215 282 LINE",
"519 282 LINE",
"519 428 LINE",
"215 428 LINE"
);
}
);
width = 722;
},
{
hints = (
{
place = "{372, 80}";
type = Stem;
},
{
place = "{401, 66}";
type = Stem;
},
{
horizontal = 1;
place = "{0, 21}";
target = up;
type = BottomGhost;
},
{
horizontal = 1;
place = "{700, -20}";
target = down;
type = TopGhost;
}
);
layerId = "9F107B1E-3A61-4335-981B-27DD48125C7E";
paths = (
{
closed = 1;
nodes = (
"90 0 LINE",
"170 0 LINE",
"170 700 LINE",
"90 700 LINE"
);
},
{
closed = 1;
nodes = (
"545 0 LINE",
"625 0 LINE",
"625 700 LINE",
"545 700 LINE"
);
},
{
closed = 1;
nodes = (
"156 321 LINE",
"563 321 LINE",
"563 391 LINE",
"156 391 LINE"
);
}
);
width = 714.99724;
}
);
unicode = 0048;
},
{
glyphname = I;
lastChange = "2021-09-01 17:33:15 +0000";
layers = (
{
anchors = (
{
name = ogonek;
position = "{194, 1}";
},
{
name = top;
position = "{137, 701}";
}
);
hints = (
{
place = "{85, 114}";
type = Stem;
},
{
horizontal = 1;
place = "{0, 21}";
target = up;
type = BottomGhost;
},
{
horizontal = 1;
place = "{700, -20}";
target = down;
type = TopGhost;
}
);
layerId = "0CF0EA28-C756-4A9E-9D7C-CFEF350B4CFE";
paths = (
{
closed = 1;
nodes = (
"80 0 LINE",
"194 0 LINE",
"194 700 LINE",
"80 700 LINE"
);
}
);
width = 274;
},
{
anchors = (
{
name = ogonek;
position = "{122, 0}";
},
{
name = top;
position = "{111, 679}";
}
);
hints = (
{
place = "{105, 22}";
type = Stem;
},
{
horizontal = 1;
place = "{0, 21}";
target = up;
type = BottomGhost;
},
{
horizontal = 1;
place = "{700, -20}";
target = down;
type = TopGhost;
}
);
layerId = "6E968933-CD79-43C6-9231-80D77C940F4D";
paths = (
{
closed = 1;
nodes = (
"100 0 LINE",
"122 0 LINE",
"122 700 LINE",
"100 700 LINE"
);
}
);
width = 221.99894;
},
{
anchors = (
{
name = ogonek;
position = "{230, 1}";
},
{
name = top;
position = "{142, 702}";
}
);
hints = (
{
place = "{53, 176}";
type = Stem;
},
{
horizontal = 1;
place = "{0, 21}";
target = up;
type = BottomGhost;
},
{
horizontal = 1;
place = "{700, -20}";
target = down;
type = TopGhost;
}
);
layerId = "BAF31694-0472-4296-B0EA-1654553C45D2";
paths = (
{
closed = 1;
nodes = (
"55 0 LINE",
"229 0 LINE",
"229 700 LINE",
"55 700 LINE"
);
}
);
width = 284.00378;
},
{
anchors = (
{
name = ogonek;
position = "{169, 1}";
},
{
name = top;
position = "{129, 693}";
}
);
hints = (
{
place = "{93, 80}";
type = Stem;
},
{
horizontal = 1;
place = "{0, 21}";
target = up;
type = BottomGhost;
},
{
horizontal = 1;
place = "{700, -20}";
target = down;
type = TopGhost;
}
);
layerId = "9F107B1E-3A61-4335-981B-27DD48125C7E";
paths = (
{
closed = 1;
nodes = (
"90 0 LINE",
"170 0 LINE",
"170 700 LINE",
"90 700 LINE"
);
}
);
width = 260.00335;
}
);
leftMetricsKey = H;
rightMetricsKey = H;
unicode = 0049;
},
{
glyphname = J;
lastChange = "2021-09-01 17:33:15 +0000";
layers = (
{
hints = (
{
place = "{343, 115}";
type = Stem;
},
{
horizontal = 1;
place = "{-7, 102}";
type = Stem;
},
{
horizontal = 1;
place = "{700, -20}";
target = down;
type = TopGhost;
}
);
layerId = "0CF0EA28-C756-4A9E-9D7C-CFEF350B4CFE";
paths = (
{
closed = 1;
nodes = (
"339.8 194 LINE SMOOTH",
"339.8 136 OFFCURVE",
"305.8 88 OFFCURVE",
"244.8 88 CURVE SMOOTH",
"194.8 88 OFFCURVE",
"163.8 117 OFFCURVE",
"149.8 159 CURVE",
"52.8 127 LINE",
"79.8 42 OFFCURVE",
"147.8 -7 OFFCURVE",
"244.8 -7 CURVE SMOOTH",
"364.8 -7 OFFCURVE",
"453.8 73 OFFCURVE",
"453.8 200 CURVE SMOOTH",
"453.8 700 LINE",
"339.8 700 LINE"
);
}
);
width = 529.8;
},
{
hints = (
{
place = "{359, 22}";
type = Stem;
},
{
horizontal = 1;
place = "{-7, 21}";
target = up;
type = BottomGhost;
},
{
horizontal = 1;
place = "{700, -20}";
target = down;
type = TopGhost;
}
);
layerId = "6E968933-CD79-43C6-9231-80D77C940F4D";
paths = (
{
closed = 1;
nodes = (
"363 155 LINE SMOOTH",
"363 97 OFFCURVE",
"332 13 OFFCURVE",
"228 13 CURVE SMOOTH",
"134 13 OFFCURVE",
"98 72 OFFCURVE",
"87 143 CURVE",
"66 136 LINE",
"81 47 OFFCURVE",
"135 -7 OFFCURVE",
"228 -7 CURVE SMOOTH",
"329 -7 OFFCURVE",
"385 72 OFFCURVE",
"385 155 CURVE SMOOTH",
"385 700 LINE",
"363 700 LINE"
);
}
);
width = 480.00106;
},
{
hints = (
{
place = "{334, 176}";
type = Stem;
},
{
horizontal = 1;
place = "{-6, 157}";
type = Stem;
},
{
horizontal = 1;
place = "{700, -20}";
target = down;
type = TopGhost;
}
);
layerId = "BAF31694-0472-4296-B0EA-1654553C45D2";
paths = (
{
closed = 1;
nodes = (
"335.3 218 LINE SMOOTH",
"335.3 167 OFFCURVE",
"307.3 139 OFFCURVE",
"267.3 139 CURVE SMOOTH",
"232.3 139 OFFCURVE",
"203.3 160 OFFCURVE",
"195.3 203 CURVE",
"36.3 172 LINE",
"61.3 54 OFFCURVE",
"148.3 -7 OFFCURVE",
"273.3 -7 CURVE SMOOTH",
"413.3 -7 OFFCURVE",
"509.3 75 OFFCURVE",
"509.3 227 CURVE SMOOTH",
"509.3 700 LINE",
"335.3 700 LINE"
);
}
);
width = 561.54943;
},
{
hints = (
{
place = "{130, 72}";
type = Stem;
},
{
horizontal = 1;
place = "{-3, 21}";
target = up;
type = BottomGhost;
},
{
horizontal = 1;
place = "{700, -20}";
target = down;
type = TopGhost;
}
);
layerId = "9F107B1E-3A61-4335-981B-27DD48125C7E";
paths = (
{
closed = 1;
nodes = (
"350.4 183 LINE SMOOTH",
"350.4 125 OFFCURVE",
"317.4 63 OFFCURVE",
"240.4 63 CURVE SMOOTH",
"173.4 63 OFFCURVE",
"141.4 102 OFFCURVE",
"128.4 155 CURVE",
"59.4 130 LINE",
"82.4 44 OFFCURVE",
"144.4 -7 OFFCURVE",
"240.4 -7 CURVE SMOOTH",
"353.4 -7 OFFCURVE",
"430.4 73 OFFCURVE",
"430.4 183 CURVE SMOOTH",
"430.4 700 LINE",
"350.4 700 LINE"
);
}
);
width = 515.8979;
}
);
leftMetricsKey = "=H*0.66";
rightMetricsKey = U;
unicode = 004A;
},
{
glyphname = K;
lastChange = "2021-09-01 17:33:15 +0000";
layers = (
{
anchors = (
{
name = bottom;
position = "{322, 0}";
},
{
name = top;
position = "{322, 701}";
}
);
hints = (
{
place = "{85, 114}";
type = Stem;
},
{
horizontal = 1;
place = "{0, 21}";
target = up;
type = BottomGhost;
},
{
horizontal = 1;
place = "{700, -20}";
target = down;
type = TopGhost;
}
);
layerId = "0CF0EA28-C756-4A9E-9D7C-CFEF350B4CFE";
paths = (
{
closed = 1;
nodes = (
"80 0 LINE",
"194 0 LINE",
"194 700 LINE",
"80 700 LINE"
);
},
{
closed = 1;
nodes = (
"335 355 LINE",
"637 700 LINE",
"494 700 LINE",
"189 355 LINE",
"493 0 LINE",
"642 0 LINE"
);
},
{
closed = 1;
nodes = (
"174 307 LINE",
"318 307 LINE",
"318 402 LINE",
"174 402 LINE"
);
}
);
width = 654;
},
{
anchors = (
{
name = bottom;
position = "{271, 0}";
},
{
name = top;
position = "{271, 679}";
}
);
hints = (
{
place = "{105, 22}";
type = Stem;
},
{
horizontal = 1;
place = "{0, 21}";
target = up;
type = BottomGhost;
},
{
horizontal = 1;
place = "{700, -20}";
target = down;
type = TopGhost;
}
);
layerId = "6E968933-CD79-43C6-9231-80D77C940F4D";
paths = (
{
closed = 1;
nodes = (
"100 0 LINE",
"122 0 LINE",
"122 700 LINE",
"100 700 LINE"
);
},
{
closed = 1;
nodes = (
"176 360 LINE",
"532 700 LINE",
"502 700 LINE",
"146 360 LINE",
"502 0 LINE",
"532 0 LINE"
);
},
{
closed = 1;
nodes = (
"111 350 LINE",
"174 350 LINE",
"174 370 LINE",
"111 370 LINE"
);
}
);
width = 546.99948;
},
{
anchors = (
{
name = bottom;
position = "{345, 1}";
},
{
name = top;
position = "{345, 702}";
}
);
hints = (
{
place = "{53, 176}";
type = Stem;
},
{
horizontal = 1;
place = "{0, 21}";
target = up;
type = BottomGhost;
},
{
horizontal = 1;
place = "{700, -20}";
target = down;
type = TopGhost;
}
);
layerId = "BAF31694-0472-4296-B0EA-1654553C45D2";
paths = (
{
closed = 1;
nodes = (
"55 0 LINE",
"229 0 LINE",
"229 700 LINE",
"55 700 LINE"
);
},
{
closed = 1;
nodes = (
"429 357 LINE",
"699 700 LINE",
"493 700 LINE",
"222 357 LINE",
"494 0 LINE",
"710 0 LINE"
);
},
{
closed = 1;
nodes = (
"212 282 LINE",
"384 282 LINE",
"384 428 LINE",
"212 428 LINE"
);
}
);
width = 718.25203;
},
{
anchors = (
{
name = bottom;
position = "{305, 0}";
},
{
name = top;
position = "{305, 693}";
}
);
hints = (
{
place = "{93, 80}";
type = Stem;
},
{
horizontal = 1;
place = "{0, 21}";
target = up;
type = BottomGhost;
},
{
horizontal = 1;
place = "{700, -20}";
target = down;
type = TopGhost;
}
);
layerId = "9F107B1E-3A61-4335-981B-27DD48125C7E";
paths = (
{
closed = 1;
nodes = (
"90 0 LINE",
"170 0 LINE",
"170 700 LINE",
"90 700 LINE"
);
},
{
closed = 1;
nodes = (
"274 356 LINE",
"596 700 LINE",
"493 700 LINE",
"171 356 LINE",
"493 0 LINE",
"599 0 LINE"
);
},
{
closed = 1;
nodes = (
"152 321 LINE",
"262 321 LINE",
"262 391 LINE",
"152 391 LINE"
);
}
);
width = 612.50018;
}
);
leftMetricsKey = H;
rightMetricsKey = "=H*0.15";
unicode = 004B;
},
{
glyphname = Kcommaaccent;
lastChange = "2021-09-01 17:33:15 +0000";
layers = (
{
anchors = (
{
name = _bottom;
position = "{317, 0}";
}
);
components = (
{
alignment = -1;
name = K;
}
);
hints = (
{
place = "{262, 117}";
type = Stem;
},
{
place = "{267, 112}";
type = Stem;
},
{
place = "{315, 64}";
type = Stem;
},
{
horizontal = 1;
place = "{-143, 96}";
type = Stem;
},
{
horizontal = 1;
place = "{-272, 21}";
target = up;
type = BottomGhost;
}
);
layerId = "0CF0EA28-C756-4A9E-9D7C-CFEF350B4CFE";
paths = (
{
closed = 1;
nodes = (
"262 -47 LINE",
"262 -143 LINE",
"315 -143 LINE",
"315 -165 LINE SMOOTH",
"315 -203.003 OFFCURVE",
"300 -222 OFFCURVE",
"267 -222 CURVE",
"267 -272 LINE",
"341 -272 OFFCURVE",
"379 -230 OFFCURVE",
"379 -146 CURVE SMOOTH",
"379 -117 OFFCURVE",
"375 -84 OFFCURVE",
"365 -47 CURVE"
);
}
);
width = 654;
},
{
anchors = (
{
name = _bottom;
position = "{243, 0}";
}
);
components = (
{
alignment = -1;
name = K;
}
);
hints = (
{
place = "{240, 24}";
type = Stem;
},
{
horizontal = 1;
place = "{-58, -20}";
target = down;
type = TopGhost;
},
{
horizontal = 1;
place = "{-177, 21}";
target = up;
type = BottomGhost;
}
);
layerId = "6E968933-CD79-43C6-9231-80D77C940F4D";
paths = (
{
closed = 1;
nodes = (
"218 -58 LINE",
"218 -97 LINE",
"249 -97 LINE",
"249 -105 LINE SMOOTH",
"249 -138 OFFCURVE",
"238 -158 OFFCURVE",
"206 -158 CURVE",
"206 -177 LINE",
"243 -177 OFFCURVE",
"272 -162 OFFCURVE",
"272 -91 CURVE SMOOTH",
"272 -81 OFFCURVE",
"271 -68 OFFCURVE",
"270 -58 CURVE"
);
}
);
width = 547.00298;
},
{
anchors = (
{
name = _bottom;
position = "{364, 1}";
}
);
components = (
{
alignment = -1;
name = K;
}
);
hints = (
{
place = "{111, 50}";
type = Stem;
},
{
place = "{297, 152}";
type = Stem;
},
{
place = "{359, 90}";
type = Stem;
},
{
horizontal = 1;
place = "{-164, 125}";
type = Stem;
},
{
horizontal = 1;
place = "{-312, 21}";
target = up;
type = BottomGhost;
}
);
layerId = "BAF31694-0472-4296-B0EA-1654553C45D2";
paths = (
{
closed = 1;
nodes = (
"295 -38 LINE",
"295 -164 LINE",
"359 -164 LINE",
"359 -178 LINE SMOOTH",
"359 -224 OFFCURVE",
"340 -245 OFFCURVE",
"307 -245 CURVE",
"307 -312 LINE",
"403 -312 OFFCURVE",
"449 -248 OFFCURVE",
"449 -158 CURVE SMOOTH",
"449 -121 OFFCURVE",
"443 -81 OFFCURVE",
"428 -38 CURVE"
);
}
);
width = 718.24632;
},
{
anchors = (
{
name = _bottom;
position = "{289, 0}";
}
);
components = (
{
alignment = -1;
name = K;
}
);
hints = (
{
place = "{1, 69}";
type = Stem;
},
{
horizontal = 1;
place = "{-22, -20}";
target = down;
type = TopGhost;
},
{
horizontal = 1;
place = "{-236, 21}";
target = up;
type = BottomGhost;
}
);
layerId = "9F107B1E-3A61-4335-981B-27DD48125C7E";
paths = (
{
closed = 1;
nodes = (
"246 -51 LINE",
"246 -126 LINE",
"290 -126 LINE",
"290 -143 LINE SMOOTH",
"290 -179 OFFCURVE",
"277 -198 OFFCURVE",
"244 -198 CURVE",
"244 -236 LINE",
"304 -236 OFFCURVE",
"339 -205 OFFCURVE",
"339 -125 CURVE SMOOTH",
"339 -104 OFFCURVE",
"336 -78 OFFCURVE",
"329 -51 CURVE"
);
}
);
width = 612.50487;
}
);
leftMetricsKey = H;
rightMetricsKey = K;
unicode = 0136;
},
{
glyphname = L;
lastChange = "2021-09-01 17:33:15 +0000";
layers = (
{
anchors = (
{
name = bottom;
position = "{253, 0}";
},
{
name = commaaccent;
position = "{253, 10}";
},
{
name = top;
position = "{227, 701}";
},
{
name = topright;
position = "{429, 701}";
}
);
hints = (
{
place = "{85, 114}";
type = Stem;
},
{
horizontal = 1;
place = "{0, 92}";
type = Stem;
},
{
horizontal = 1;
place = "{700, -20}";
target = down;
type = TopGhost;
}
);
layerId = "0CF0EA28-C756-4A9E-9D7C-CFEF350B4CFE";
paths = (
{
closed = 1;
nodes = (
"80 700 LINE",
"80 0 LINE",
"509 0 LINE",
"509 94.993 LINE",
"194 95 LINE",
"194 700 LINE"
);
}
);
width = 535.638;
},
{
anchors = (
{
name = bottom;
position = "{235, 0}";
},
{
name = commaaccent;
position = "{235, 10}";
},
{
name = top;
position = "{217, 679}";
},
{
name = topright;
position = "{391, 679}";
}
);
hints = (
{
place = "{103, 22}";
type = Stem;
},
{
horizontal = 1;
place = "{0, 21}";
target = up;
type = BottomGhost;
},
{
horizontal = 1;
place = "{700, -20}";
target = down;
type = TopGhost;
}
);
layerId = "6E968933-CD79-43C6-9231-80D77C940F4D";
paths = (
{
closed = 1;
nodes = (
"100 700 LINE",
"100 0 LINE",
"471 0 LINE",
"471 20 LINE",
"122 20 LINE",
"122 700 LINE"
);
}
);
width = 504.30232;
},
{
anchors = (
{
name = bottom;
position = "{253, 1}";
},
{
name = commaaccent;
position = "{253, 11}";
},
{
name = top;
position = "{222, 702}";
},
{
name = topright;
position = "{443, 702}";
}
);
hints = (
{
place = "{53, 176}";
type = Stem;
},
{
horizontal = 1;
place = "{0, 136}";
type = Stem;
},
{
horizontal = 1;
place = "{700, -20}";
target = down;
type = TopGhost;
}
);
layerId = "BAF31694-0472-4296-B0EA-1654553C45D2";
paths = (
{
closed = 1;
nodes = (
"55 700 LINE",
"55 0 LINE",
"534 0 LINE",
"534 146 LINE",
"229 146 LINE",
"229 700 LINE"
);
}
);
width = 552.3134;
},
{
anchors = (
{
name = bottom;
position = "{248, 0}";
},
{
name = commaaccent;
position = "{248, 10}";
},
{
name = top;
position = "{225, 693}";
},
{
name = topright;
position = "{417, 693}";
}
);
hints = (
{
place = "{39, 66}";
type = Stem;
},
{
horizontal = 1;
place = "{0, 21}";
target = up;
type = BottomGhost;
},
{
horizontal = 1;
place = "{700, -20}";
target = down;
type = TopGhost;
}
);
layerId = "9F107B1E-3A61-4335-981B-27DD48125C7E";
paths = (
{
closed = 1;
nodes = (
"90 700 LINE",
"90 0 LINE",
"497 0 LINE",
"497 70 LINE",
"170 70 LINE",
"170 700 LINE"
);
}
);
width = 526.97008;
}
);
leftMetricsKey = H;
rightMetricsKey = "=H*0.333";
unicode = 004C;
},
{
glyphname = Lcaron;
lastChange = "2021-09-01 17:33:15 +0000";
layers = (
{
anchors = (
{
name = _bottom;
position = "{352, 746}";
}
);
components = (
{
alignment = -1;
name = L;
}
);
hints = (
{
place = "{297, 117}";
type = Stem;
},
{
place = "{302, 112}";
type = Stem;
},
{
place = "{350, 64}";
type = Stem;
},
{
horizontal = 1;
place = "{603, 96}";
type = Stem;
},
{
horizontal = 1;
place = "{474, 21}";
target = up;
type = BottomGhost;
}
);
layerId = "0CF0EA28-C756-4A9E-9D7C-CFEF350B4CFE";
paths = (
{
closed = 1;
nodes = (
"297 700 LINE",
"297 604 LINE",
"350 604 LINE",
"350 583 LINE SMOOTH",
"350 544 OFFCURVE",
"335 525 OFFCURVE",
"302 525 CURVE",
"302 475 LINE",
"376 475 OFFCURVE",
"414 518 OFFCURVE",
"414 601 CURVE SMOOTH",
"414 630 OFFCURVE",
"410 663 OFFCURVE",
"400 700 CURVE"
);
}
);
width = 535.64;
},
{
anchors = (
{
name = _bottom;
position = "{261, 736}";
}
);
components = (
{
alignment = -1;
name = L;
}
);
hints = (
{
place = "{233, 61}";
type = Stem;
},
{
place = "{272, 23}";
type = Stem;
},
{
horizontal = 1;
place = "{555, 22}";
type = Stem;
},
{
horizontal = 1;
place = "{685, -20}";
target = down;
type = TopGhost;
}
);
layerId = "6E968933-CD79-43C6-9231-80D77C940F4D";
paths = (
{
closed = 1;
nodes = (
"233 700 LINE",
"233 646 LINE",
"272 646 LINE",
"272 618 LINE SMOOTH",
"272 589 OFFCURVE",
"262 573 OFFCURVE",
"227 573 CURVE",
"227 552 LINE",
"267 552 OFFCURVE",
"295 568 OFFCURVE",
"295 631 CURVE SMOOTH",
"295 649 OFFCURVE",
"294 671 OFFCURVE",
"290 700 CURVE"
);
}
);
width = 504.29787;
},
{
anchors = (
{
name = _bottom;
position = "{408, 739}";
}
);
components = (
{
alignment = -1;
name = L;
}
);
hints = (
{
place = "{126, 50}";
type = Stem;
},
{
place = "{341, 152}";
type = Stem;
},
{
place = "{402, 90}";
type = Stem;
},
{
horizontal = 1;
place = "{575, 124}";
type = Stem;
},
{
horizontal = 1;
place = "{426, 21}";
target = up;
type = BottomGhost;
}
);
layerId = "BAF31694-0472-4296-B0EA-1654553C45D2";
paths = (
{
closed = 1;
nodes = (
"338 700 LINE",
"338 575 LINE",
"402 575 LINE",
"402 560 LINE SMOOTH",
"402 515 OFFCURVE",
"384 494 OFFCURVE",
"350 494 CURVE",
"350 426 LINE",
"447 426 OFFCURVE",
"492 490 OFFCURVE",
"492 581 CURVE SMOOTH",
"492 617 OFFCURVE",
"486 658 OFFCURVE",
"472 700 CURVE"
);
}
);
width = 552.31009;
},
{
anchors = (
{
name = _bottom;
position = "{318, 742}";
}
);
components = (
{
alignment = -1;
name = L;
}
);
hints = (
{
place = "{276, 93}";
type = Stem;
},
{
place = "{321, 49}";
type = Stem;
},
{
horizontal = 1;
place = "{585, 68}";
type = Stem;
},
{
horizontal = 1;
place = "{257, -20}";
target = down;
type = TopGhost;
}
);
layerId = "9F107B1E-3A61-4335-981B-27DD48125C7E";
paths = (
{
closed = 1;
nodes = (
"273 700 LINE",
"273 620 LINE",
"321 620 LINE",
"321 597 LINE SMOOTH",
"321 561 OFFCURVE",
"308 543 OFFCURVE",
"274 543 CURVE",
"274 504 LINE",
"335 504 OFFCURVE",
"369 537 OFFCURVE",
"369 613 CURVE SMOOTH",
"369 638 OFFCURVE",
"367 666 OFFCURVE",
"359 700 CURVE"
);
}
);
width = 526.97045;
}
);
leftMetricsKey = L;
rightMetricsKey = L;
unicode = 013D;
},
{
glyphname = Lcommaaccent;
lastChange = "2021-09-01 17:33:15 +0000";
layers = (
{
anchors = (
{
name = _commaaccent;
position = "{248, 0}";
}
);
components = (
{
alignment = -1;
name = L;
}
);
hints = (
{
place = "{193, 117}";
type = Stem;
},
{
place = "{197, 113}";
type = Stem;
},
{
place = "{246, 64}";
type = Stem;
},
{
horizontal = 1;
place = "{-143, 96}";
type = Stem;
},
{
horizontal = 1;
place = "{-272, 21}";
target = up;
type = BottomGhost;
}
);
layerId = "0CF0EA28-C756-4A9E-9D7C-CFEF350B4CFE";
paths = (
{
closed = 1;
nodes = (
"193 -47 LINE",
"193 -143 LINE",
"246 -143 LINE",
"246 -165 LINE SMOOTH",
"246 -203.003 OFFCURVE",
"231 -222 OFFCURVE",
"197 -222 CURVE",
"197 -272 LINE",
"272 -272 OFFCURVE",
"310 -230 OFFCURVE",
"310 -146 CURVE SMOOTH",
"310 -117 OFFCURVE",
"306 -84 OFFCURVE",
"296 -47 CURVE"
);
}
);
width = 535.64;
},
{
anchors = (
{
name = _commaaccent;
position = "{231, 0}";
}
);
components = (
{
alignment = -1;
name = L;
}
);
hints = (
{
place = "{230, 24}";
type = Stem;
},
{
horizontal = 1;
place = "{-58, -20}";
target = down;
type = TopGhost;
},
{
horizontal = 1;
place = "{-177, 21}";
target = up;
type = BottomGhost;
}
);
layerId = "6E968933-CD79-43C6-9231-80D77C940F4D";
paths = (
{
closed = 1;
nodes = (
"207 -58 LINE",
"207 -97 LINE",
"238 -97 LINE",
"238 -105 LINE SMOOTH",
"238 -138 OFFCURVE",
"227 -158 OFFCURVE",
"195 -158 CURVE",
"195 -177 LINE",
"232 -177 OFFCURVE",
"261 -162 OFFCURVE",
"261 -91 CURVE SMOOTH",
"261 -81 OFFCURVE",
"260 -68 OFFCURVE",
"259 -58 CURVE"
);
}
);
width = 504.29787;
},
{
anchors = (
{
name = _commaaccent;
position = "{272, 6}";
}
);
components = (
{
alignment = -1;
name = L;
}
);
hints = (
{
place = "{203, 154}";
type = Stem;
},
{
place = "{246, 111}";
type = Stem;
},
{
place = "{-92, 73}";
type = Stem;
},
{
horizontal = 1;
place = "{-164, 125}";
type = Stem;
},
{
horizontal = 1;
place = "{-115, 21}";
target = up;
type = BottomGhost;
}
);
layerId = "BAF31694-0472-4296-B0EA-1654553C45D2";
paths = (
{
closed = 1;
nodes = (
"203 -38 LINE",
"203 -164 LINE",
"267 -164 LINE",
"267 -178 LINE SMOOTH",
"267 -224 OFFCURVE",
"249 -245 OFFCURVE",
"214 -245 CURVE",
"214 -312 LINE",
"312 -312 OFFCURVE",
"357 -248 OFFCURVE",
"357 -158 CURVE SMOOTH",
"357 -121 OFFCURVE",
"351 -81 OFFCURVE",
"336 -38 CURVE"
);
}
);
width = 552.30821;
},
{
anchors = (
{
name = _commaaccent;
position = "{242, 0}";
}
);
components = (
{
alignment = -1;
name = L;
}
);
hints = (
{
place = "{-3, 69}";
type = Stem;
},
{
horizontal = 1;
place = "{-22, -20}";
target = down;
type = TopGhost;
},
{
horizontal = 1;
place = "{-236, 21}";
target = up;
type = BottomGhost;
}
);
layerId = "9F107B1E-3A61-4335-981B-27DD48125C7E";
paths = (
{
closed = 1;
nodes = (
"198 -51 LINE",
"198 -126 LINE",
"243 -126 LINE",
"243 -143 LINE SMOOTH",
"243 -179 OFFCURVE",
"230 -198 OFFCURVE",
"196 -198 CURVE",
"196 -236 LINE",
"257 -236 OFFCURVE",
"292 -205 OFFCURVE",
"292 -125 CURVE SMOOTH",
"292 -104 OFFCURVE",
"289 -78 OFFCURVE",
"282 -51 CURVE"
);
}
);
width = 526.97045;
}
);
leftMetricsKey = L;
rightMetricsKey = L;
unicode = 013B;
},
{
glyphname = Ldot;
lastChange = "2021-09-01 17:33:15 +0000";
layers = (
{
hints = (
{
place = "{85, 114}";
type = Stem;
},
{
place = "{302, 120}";
type = Stem;
},
{
horizontal = 1;
place = "{0, 92}";
type = Stem;
},
{
horizontal = 1;
place = "{317, 120}";
type = Stem;
},
{
horizontal = 1;
place = "{699, -20}";
target = down;
type = TopGhost;
}
);
layerId = "0CF0EA28-C756-4A9E-9D7C-CFEF350B4CFE";
paths = (
{
closed = 1;
nodes = (
"429 0 LINE",
"429 92 LINE",
"194 92 LINE",
"194 700 LINE",
"80 700 LINE",
"80 0 LINE"
);
},
{
closed = 1;
nodes = (
"390 317 OFFCURVE",
"417 343 OFFCURVE",
"417 377 CURVE SMOOTH",
"417 410 OFFCURVE",
"390 437 OFFCURVE",
"357 437 CURVE SMOOTH",
"323 437 OFFCURVE",
"297 410 OFFCURVE",
"297 377 CURVE SMOOTH",
"297 343 OFFCURVE",
"323 317 OFFCURVE",
"357 317 CURVE SMOOTH"
);
}
);
width = 455.64;
},
{
hints = (
{
place = "{109, 22}";
type = Stem;
},
{
place = "{305, 61}";
type = Stem;
},
{
horizontal = 1;
place = "{345, 61}";
type = Stem;
},
{
horizontal = 1;
place = "{0, 21}";
target = up;
type = BottomGhost;
},
{
horizontal = 1;
place = "{700, -20}";
target = down;
type = TopGhost;
}
);
layerId = "6E968933-CD79-43C6-9231-80D77C940F4D";
paths = (
{
closed = 1;
nodes = (
"391 0 LINE",
"391 20 LINE",
"122 20 LINE",
"122 700 LINE",
"100 700 LINE",
"100 0 LINE"
);
},
{
closed = 1;
nodes = (
"354 345 OFFCURVE",
"368 360 OFFCURVE",
"368 376 CURVE SMOOTH",
"368 392 OFFCURVE",
"354 406 OFFCURVE",
"337 406 CURVE SMOOTH",
"321 406 OFFCURVE",
"307 392 OFFCURVE",
"307 376 CURVE SMOOTH",
"307 360 OFFCURVE",
"321 345 OFFCURVE",
"337 345 CURVE SMOOTH"
);
}
);
width = 424.29787;
},
{
hints = (
{
place = "{53, 176}";
type = Stem;
},
{
place = "{306, 150}";
type = Stem;
},
{
horizontal = 1;
place = "{0, 136}";
type = Stem;
},
{
horizontal = 1;
place = "{320, 150}";
type = Stem;
},
{
horizontal = 1;
place = "{700, -20}";
target = down;
type = TopGhost;
}
);
layerId = "BAF31694-0472-4296-B0EA-1654553C45D2";
paths = (
{
closed = 1;
nodes = (
"454 0 LINE",
"454 136 LINE",
"232 136 LINE",
"232 700 LINE",
"55 700 LINE",
"55 0 LINE"
);
},
{
closed = 1;
nodes = (
"425 320 OFFCURVE",
"458 352 OFFCURVE",
"458 395 CURVE SMOOTH",
"458 437 OFFCURVE",
"425 470 OFFCURVE",
"382 470 CURVE SMOOTH",
"340 470 OFFCURVE",
"308 437 OFFCURVE",
"308 395 CURVE SMOOTH",
"308 352 OFFCURVE",
"340 320 OFFCURVE",
"382 320 CURVE SMOOTH"
);
}
);
width = 476.31028;
},
{
hints = (
{
place = "{230, 83}";
type = Stem;
},
{
place = "{114, 80}";
type = Stem;
},
{
horizontal = 1;
place = "{328, 98}";
type = Stem;
},
{
horizontal = 1;
place = "{0, 21}";
target = up;
type = BottomGhost;
},
{
horizontal = 1;
place = "{699, -20}";
target = down;
type = TopGhost;
}
);
layerId = "9F107B1E-3A61-4335-981B-27DD48125C7E";
paths = (
{
closed = 1;
nodes = (
"417 0 LINE",
"417 65 LINE",
"169 65 LINE",
"169 700 LINE",
"90 700 LINE",
"90 0 LINE"
);
},
{
closed = 1;
nodes = (
"379 328 OFFCURVE",
"401 349 OFFCURVE",
"401 377 CURVE SMOOTH",
"401 403 OFFCURVE",
"379 425 OFFCURVE",
"352 425 CURVE SMOOTH",
"324 425 OFFCURVE",
"303 403 OFFCURVE",
"303 377 CURVE SMOOTH",
"303 349 OFFCURVE",
"324 328 OFFCURVE",
"352 328 CURVE SMOOTH"
);
}
);
width = 446.97045;
}
);
leftMetricsKey = L;
rightMetricsKey = L;
unicode = 013F;
},
{
glyphname = Lslash;
lastChange = "2021-09-01 17:33:15 +0000";
layers = (
{
hints = (
{
place = "{85, 192}";
type = Stem;
},
{
place = "{162, 115}";
type = Stem;
},
{
place = "{162, 207}";
type = Stem;
},
{
horizontal = 1;
place = "{0, 87}";
type = Stem;
},
{
horizontal = 1;
place = "{699, -20}";
target = down;
type = TopGhost;
}
);
layerId = "0CF0EA28-C756-4A9E-9D7C-CFEF350B4CFE";
paths = (
{
closed = 1;
nodes = (
"80 269 LINE",
"364 362 LINE",
"364 449 LINE",
"80 355 LINE"
);
},
{
closed = 1;
nodes = (
"157 700 LINE",
"157 0 LINE",
"506 0 LINE",
"506 87 LINE",
"272 87 LINE",
"272 700 LINE"
);
}
);
width = 532.64;
},
{
hints = (
{
place = "{196, 21}";
type = Stem;
},
{
horizontal = 1;
place = "{0, 21}";
target = up;
type = BottomGhost;
},
{
horizontal = 1;
place = "{700, -20}";
target = down;
type = TopGhost;
}
);
layerId = "6E968933-CD79-43C6-9231-80D77C940F4D";
paths = (
{
closed = 1;
nodes = (
"100 311 LINE",
"376 440 LINE",
"376 461 LINE",
"100 333 LINE"
);
},
{
closed = 1;
nodes = (
"194 700 LINE",
"194 0 LINE",
"485 0 LINE",
"485 19 LINE",
"216 19 LINE",
"216 700 LINE"
);
}
);
width = 518.30489;
},
{
hints = (
{
place = "{36, 82}";
type = Stem;
},
{
place = "{69, 49}";
type = Stem;
},
{
place = "{118, 216}";
type = Stem;
},
{
horizontal = 1;
place = "{0, 134}";
type = Stem;
},
{
horizontal = 1;
place = "{700, -20}";
target = down;
type = TopGhost;
}
);
layerId = "BAF31694-0472-4296-B0EA-1654553C45D2";
paths = (
{
closed = 1;
nodes = (
"55 251 LINE",
"378 345 LINE",
"378 495 LINE",
"55 400 LINE"
);
},
{
closed = 1;
nodes = (
"120 700 LINE",
"120 0 LINE",
"519 0 LINE",
"519 134 LINE",
"296 134 LINE",
"296 700 LINE"
);
}
);
width = 537.30783;
},
{
hints = (
{
place = "{74, 62}";
type = Stem;
},
{
horizontal = 1;
place = "{0, 21}";
target = up;
type = BottomGhost;
},
{
horizontal = 1;
place = "{699, -20}";
target = down;
type = TopGhost;
}
);
layerId = "9F107B1E-3A61-4335-981B-27DD48125C7E";
paths = (
{
closed = 1;
nodes = (
"90 285 LINE",
"371 391 LINE",
"371 454 LINE",
"90 347 LINE"
);
},
{
closed = 1;
nodes = (
"173 700 LINE",
"173 0 LINE",
"500 0 LINE",
"500 62 LINE",
"253 62 LINE",
"253 700 LINE"
);
}
);
width = 529.96808;
}
);
leftMetricsKey = L;
rightMetricsKey = L;
unicode = 0141;
},
{
glyphname = M;
lastChange = "2021-09-01 17:33:15 +0000";
layers = (
{
hints = (
{
place = "{85, 114}";
type = Stem;
},
{
place = "{703, 114}";
type = Stem;
},
{
horizontal = 1;
place = "{700, -20}";
target = down;
type = TopGhost;
},
{
horizontal = 1;
place = "{0, 21}";
target = up;
type = BottomGhost;
}
);
layerId = "0CF0EA28-C756-4A9E-9D7C-CFEF350B4CFE";
paths = (
{
closed = 1;
nodes = (
"194 479 LINE",
"403 0 LINE",
"489 0 LINE",
"698 479 LINE",
"698 0 LINE",
"812 0 LINE",
"812 700 LINE",
"686 700 LINE",
"446 150 LINE",
"206 700 LINE",
"80 700 LINE",
"80 0 LINE",
"194 0 LINE"
);
}
);
width = 892;
},
{
hints = (
{
place = "{105, 22}";
type = Stem;
},
{
place = "{712, 22}";
type = Stem;
},
{
horizontal = 1;
place = "{0, 21}";
target = up;
type = BottomGhost;
},
{
horizontal = 1;
place = "{700, -20}";
target = down;
type = TopGhost;
}
);
layerId = "6E968933-CD79-43C6-9231-80D77C940F4D";
paths = (
{
closed = 1;
nodes = (
"122 647 LINE",
"404 0 LINE",
"425 0 LINE",
"707 647 LINE",
"707 0 LINE",
"729 0 LINE",
"729 700 LINE",
"707 700 LINE",
"415 29 LINE",
"122 700 LINE",
"100 700 LINE",
"100 0 LINE",
"122 0 LINE"
);
}
);
width = 829.00298;
},
{
hints = (
{
place = "{53, 176}";
type = Stem;
},
{
place = "{678, 176}";
type = Stem;
},
{
horizontal = 1;
place = "{700, -20}";
target = down;
type = TopGhost;
},
{
horizontal = 1;
place = "{0, 21}";
target = up;
type = BottomGhost;
}
);
layerId = "BAF31694-0472-4296-B0EA-1654553C45D2";
paths = (
{
closed = 1;
nodes = (
"229 401 LINE",
"382 0 LINE",
"524 0 LINE",
"677 401 LINE",
"677 0 LINE",
"851 0 LINE",
"851 700 LINE",
"645 700 LINE",
"453 225 LINE",
"261 700 LINE",
"55 700 LINE",
"55 0 LINE",
"229 0 LINE"
);
}
);
width = 906.00397;
},
{
hints = (
{
place = "{93, 80}";
type = Stem;
},
{
place = "{706, 80}";
type = Stem;
},
{
horizontal = 1;
place = "{0, 21}";
target = up;
type = BottomGhost;
},
{
horizontal = 1;
place = "{700, -20}";
target = down;
type = TopGhost;
}
);
layerId = "9F107B1E-3A61-4335-981B-27DD48125C7E";
paths = (
{
closed = 1;
nodes = (
"170 542 LINE",
"409 0 LINE",
"466 0 LINE",
"704 542 LINE",
"704 0 LINE",
"784 0 LINE",
"784 700 LINE",
"697 700 LINE",
"438 110 LINE",
"178 700 LINE",
"90 700 LINE",
"90 0 LINE",
"170 0 LINE"
);
}
);
width = 873.99987;
}
);
leftMetricsKey = H;
rightMetricsKey = H;
unicode = 004D;
},
{
glyphname = N;
lastChange = "2021-09-01 17:33:15 +0000";
layers = (
{
anchors = (
{
name = bottom;
position = "{373, 0}";
},
{
name = top;
position = "{373, 701}";
}
);
hints = (
{
place = "{85, 114}";
type = Stem;
},
{
place = "{542, 114}";
type = Stem;
},
{
horizontal = 1;
place = "{700, -20}";
target = down;
type = TopGhost;
},
{
horizontal = 1;
place = "{0, 21}";
target = up;
type = BottomGhost;
}
);
layerId = "0CF0EA28-C756-4A9E-9D7C-CFEF350B4CFE";
paths = (
{
closed = 1;
nodes = (
"528 700 LINE",
"528 182 LINE",
"197 700 LINE",
"80 700 LINE",
"80 0 LINE",
"194 0 LINE",
"194 520 LINE",
"525 0 LINE",
"642 0 LINE",
"642 700 LINE"
);
}
);
width = 722;
},
{
anchors = (
{
name = bottom;
position = "{345, 0}";
},
{
name = top;
position = "{345, 679}";
}
);
hints = (
{
place = "{105, 22}";
type = Stem;
},
{
place = "{562, 22}";
type = Stem;
},
{
horizontal = 1;
place = "{699, -20}";
target = down;
type = TopGhost;
},
{
horizontal = 1;
place = "{0, 21}";
target = up;
type = BottomGhost;
}
);
layerId = "6E968933-CD79-43C6-9231-80D77C940F4D";
paths = (
{
closed = 1;
nodes = (
"569 700 LINE",
"569 39 LINE",
"121 700 LINE",
"100 700 LINE",
"100 0 LINE",
"122 0 LINE",
"122 661 LINE",
"570 0 LINE",
"591 0 LINE",
"591 700 LINE"
);
}
);
width = 690.99894;
},
{
anchors = (
{
name = bottom;
position = "{374, 1}";
},
{
name = top;
position = "{374, 702}";
}
);
hints = (
{
place = "{53, 176}";
type = Stem;
},
{
place = "{510, 176}";
type = Stem;
},
{
horizontal = 1;
place = "{700, -20}";
target = down;
type = TopGhost;
},
{
horizontal = 1;
place = "{0, 21}";
target = up;
type = BottomGhost;
}
);
layerId = "BAF31694-0472-4296-B0EA-1654553C45D2";
paths = (
{
closed = 1;
nodes = (
"491 700 LINE",
"491 273 LINE",
"230 700 LINE",
"55 700 LINE",
"55 0 LINE",
"229 0 LINE",
"229 424 LINE",
"490 0 LINE",
"665 0 LINE",
"665 700 LINE"
);
}
);
width = 720.00378;
},
{
anchors = (
{
name = bottom;
position = "{366, 0}";
},
{
name = top;
position = "{366, 693}";
}
);
hints = (
{
place = "{93, 80}";
type = Stem;
},
{
place = "{550, 80}";
type = Stem;
},
{
horizontal = 1;
place = "{700, -20}";
target = down;
type = TopGhost;
},
{
horizontal = 1;
place = "{0, 21}";
target = up;
type = BottomGhost;
}
);
layerId = "9F107B1E-3A61-4335-981B-27DD48125C7E";
paths = (
{
closed = 1;
nodes = (
"545 700 LINE",
"545 129 LINE",
"171 700 LINE",
"90 700 LINE",
"90 0 LINE",
"170 0 LINE",
"170 572 LINE",
"544 0 LINE",
"625 0 LINE",
"625 700 LINE"
);
}
);
width = 715.00335;
}
);
leftMetricsKey = H;
rightMetricsKey = H;
unicode = 004E;
},
{
glyphname = Ncommaaccent;
lastChange = "2021-09-01 17:33:15 +0000";
layers = (
{
anchors = (
{
name = _bottom;
position = "{361, 0}";
}
);
components = (
{
alignment = -1;
name = N;
}
);
hints = (
{
place = "{306, 117}";
type = Stem;
},
{
place = "{311, 112}";
type = Stem;
},
{
place = "{359, 64}";
type = Stem;
},
{
horizontal = 1;
place = "{-143, 96}";
type = Stem;
},
{
horizontal = 1;
place = "{-272, 21}";
target = up;
type = BottomGhost;
}
);
layerId = "0CF0EA28-C756-4A9E-9D7C-CFEF350B4CFE";
paths = (
{
closed = 1;
nodes = (
"306 -47 LINE",
"306 -143 LINE",
"359 -143 LINE",
"359 -165 LINE SMOOTH",
"359 -203.003 OFFCURVE",
"344 -222 OFFCURVE",
"311 -222 CURVE",
"311 -272 LINE",
"385 -272 OFFCURVE",
"423 -230 OFFCURVE",
"423 -146 CURVE SMOOTH",
"423 -117 OFFCURVE",
"419 -84 OFFCURVE",
"409 -47 CURVE"
);
}
);
width = 722;
},
{
anchors = (
{
name = _bottom;
position = "{324, 0}";
}
);
components = (
{
alignment = -1;
name = N;
}
);
hints = (
{
place = "{318, 24}";
type = Stem;
},
{
horizontal = 1;
place = "{-58, -20}";
target = down;
type = TopGhost;
},
{
horizontal = 1;
place = "{-177, 21}";
target = up;
type = BottomGhost;
}
);
layerId = "6E968933-CD79-43C6-9231-80D77C940F4D";
paths = (
{
closed = 1;
nodes = (
"297 -58 LINE",
"297 -97 LINE",
"329 -97 LINE",
"329 -105 LINE SMOOTH",
"329 -138 OFFCURVE",
"318 -158 OFFCURVE",
"286 -158 CURVE",
"286 -177 LINE",
"322 -177 OFFCURVE",
"352 -162 OFFCURVE",
"352 -91 CURVE SMOOTH",
"352 -81 OFFCURVE",
"350 -68 OFFCURVE",
"349 -58 CURVE"
);
}
);
width = 690.99894;
},
{
anchors = (
{
name = _bottom;
position = "{392, 1}";
}
);
components = (
{
alignment = -1;
name = N;
}
);
hints = (
{
place = "{322, 154}";
type = Stem;
},
{
place = "{366, 111}";
type = Stem;
},
{
place = "{-44, 73}";
type = Stem;
},
{
horizontal = 1;
place = "{-164, 125}";
type = Stem;
},
{
horizontal = 1;
place = "{-115, 21}";
target = up;
type = BottomGhost;
}
);
layerId = "BAF31694-0472-4296-B0EA-1654553C45D2";
paths = (
{
closed = 1;
nodes = (
"322 -38 LINE",
"322 -164 LINE",
"386 -164 LINE",
"386 -178 LINE SMOOTH",
"386 -224 OFFCURVE",
"368 -245 OFFCURVE",
"334 -245 CURVE",
"334 -312 LINE",
"431 -312 OFFCURVE",
"477 -248 OFFCURVE",
"477 -158 CURVE SMOOTH",
"477 -121 OFFCURVE",
"470 -81 OFFCURVE",
"455 -38 CURVE"
);
}
);
width = 720.00378;
},
{
anchors = (
{
name = _bottom;
position = "{347, 0}";
}
);
components = (
{
alignment = -1;
name = N;
}
);
hints = (
{
place = "{30, 69}";
type = Stem;
},
{
horizontal = 1;
place = "{-22, -20}";
target = down;
type = TopGhost;
},
{
horizontal = 1;
place = "{-236, 21}";
target = up;
type = BottomGhost;
}
);
layerId = "9F107B1E-3A61-4335-981B-27DD48125C7E";
paths = (
{
closed = 1;
nodes = (
"303 -51 LINE",
"303 -126 LINE",
"348 -126 LINE",
"348 -143 LINE SMOOTH",
"348 -179 OFFCURVE",
"334 -198 OFFCURVE",
"302 -198 CURVE",
"302 -236 LINE",
"361 -236 OFFCURVE",
"396 -205 OFFCURVE",
"396 -125 CURVE SMOOTH",
"396 -104 OFFCURVE",
"393 -78 OFFCURVE",
"387 -51 CURVE"
);
}
);
width = 715.00335;
}
);
leftMetricsKey = H;
rightMetricsKey = H;
unicode = 0145;
},
{
glyphname = O;
lastChange = "2021-09-01 17:33:15 +0000";
layers = (
{
anchors = (
{
name = top;
position = "{395, 701}";
}
);
hints = (
{
place = "{42, 117}";
type = Stem;
},
{
place = "{635, 117}";
type = Stem;
},
{
horizontal = 1;
place = "{-7, 99}";
type = Stem;
},
{
horizontal = 1;
place = "{608, 100}";
type = Stem;
}
);
layerId = "0CF0EA28-C756-4A9E-9D7C-CFEF350B4CFE";
paths = (
{
closed = 1;
nodes = (
"593 -7 OFFCURVE",
"750 140 OFFCURVE",
"750 350 CURVE SMOOTH",
"750 559 OFFCURVE",
"593 707 OFFCURVE",
"395 707 CURVE SMOOTH",
"199 707 OFFCURVE",
"40 559 OFFCURVE",
"40 350 CURVE SMOOTH",
"40 140 OFFCURVE",
"199 -7 OFFCURVE",
"395 -7 CURVE SMOOTH"
);
},
{
closed = 1;
nodes = (
"257 90 OFFCURVE",
"156 192 OFFCURVE",
"156 350 CURVE SMOOTH",
"156 509 OFFCURVE",
"257 610 OFFCURVE",
"395 610 CURVE SMOOTH",
"533 610 OFFCURVE",
"634 509 OFFCURVE",
"634 350 CURVE SMOOTH",
"634 192 OFFCURVE",
"533 90 OFFCURVE",
"395 90 CURVE SMOOTH"
);
}
);
width = 790;
},
{
anchors = (
{
name = top;
position = "{397, 679}";
}
);
hints = (
{
place = "{51, 23}";
type = Stem;
},
{
place = "{701, 23}";
type = Stem;
},
{
horizontal = 1;
place = "{691, -20}";
target = down;
type = TopGhost;
},
{
horizontal = 1;
place = "{-8, 21}";
target = up;
type = BottomGhost;
}
);
layerId = "6E968933-CD79-43C6-9231-80D77C940F4D";
paths = (
{
closed = 1;
nodes = (
"583 -7 OFFCURVE",
"723 140 OFFCURVE",
"723 350 CURVE",
"723 560 OFFCURVE",
"583 707 OFFCURVE",
"387 707 CURVE",
"191 707 OFFCURVE",
"50 560 OFFCURVE",
"50 350 CURVE",
"50 140 OFFCURVE",
"191 -7 OFFCURVE",
"387 -7 CURVE"
);
},
{
closed = 1;
nodes = (
"212 13 OFFCURVE",
"73 140 OFFCURVE",
"73 350 CURVE",
"73 560 OFFCURVE",
"212 687 OFFCURVE",
"387 687 CURVE",
"561 687 OFFCURVE",
"700 560 OFFCURVE",
"700 350 CURVE",
"700 140 OFFCURVE",
"561 13 OFFCURVE",
"387 13 CURVE"
);
}
);
width = 773.00298;
},
{
anchors = (
{
name = top;
position = "{387.5, 702}";
}
);
hints = (
{
place = "{26, 180}";
type = Stem;
},
{
place = "{568, 179}";
type = Stem;
},
{
horizontal = 1;
place = "{-7, 161}";
type = Stem;
},
{
horizontal = 1;
place = "{550, 160}";
type = Stem;
}
);
layerId = "BAF31694-0472-4296-B0EA-1654553C45D2";
paths = (
{
closed = 1;
nodes = (
"587.5 -7 OFFCURVE",
"747.5 140 OFFCURVE",
"747.5 350 CURVE SMOOTH",
"747.5 560 OFFCURVE",
"588.5 707 OFFCURVE",
"387.5 707 CURVE SMOOTH",
"189.5 707 OFFCURVE",
"27.5 560 OFFCURVE",
"27.5 350 CURVE SMOOTH",
"27.5 140 OFFCURVE",
"189.5 -7 OFFCURVE",
"387.5 -7 CURVE SMOOTH"
);
},
{
closed = 1;
nodes = (
"276.5 142 OFFCURVE",
"204.5 230 OFFCURVE",
"204.5 350 CURVE SMOOTH",
"204.5 471 OFFCURVE",
"276.5 558 OFFCURVE",
"387.5 558 CURVE SMOOTH",
"497.5 558 OFFCURVE",
"570.5 471 OFFCURVE",
"570.5 350 CURVE SMOOTH",
"570.5 230 OFFCURVE",
"497.5 142 OFFCURVE",
"387.5 142 CURVE SMOOTH"
);
}
);
width = 775.00491;
},
{
anchors = (
{
name = top;
position = "{397, 693}";
}
);
hints = (
{
place = "{15, 71}";
type = Stem;
},
{
place = "{643, 71}";
type = Stem;
},
{
horizontal = 1;
place = "{259, -20}";
target = down;
type = TopGhost;
},
{
horizontal = 1;
place = "{-3, 21}";
target = up;
type = BottomGhost;
}
);
layerId = "9F107B1E-3A61-4335-981B-27DD48125C7E";
paths = (
{
closed = 1;
nodes = (
"591 -7 OFFCURVE",
"741 140 OFFCURVE",
"741 350 CURVE",
"741 560 OFFCURVE",
"591 707 OFFCURVE",
"394 707 CURVE",
"198 707 OFFCURVE",
"45 560 OFFCURVE",
"45 350 CURVE",
"45 140 OFFCURVE",
"198 -7 OFFCURVE",
"394 -7 CURVE"
);
},
{
closed = 1;
nodes = (
"242 63 OFFCURVE",
"127 173 OFFCURVE",
"127 350 CURVE",
"127 528 OFFCURVE",
"242 637 OFFCURVE",
"394 637 CURVE",
"545 637 OFFCURVE",
"659 528 OFFCURVE",
"659 350 CURVE",
"659 173 OFFCURVE",
"545 63 OFFCURVE",
"394 63 CURVE"
);
}
);
width = 786.00112;
}
);
leftMetricsKey = "=H*0.5";
rightMetricsKey = "=H*0.5";
unicode = 004F;
},
{
glyphname = Oslash;
lastChange = "2021-09-01 17:33:15 +0000";
layers = (
{
components = (
{
alignment = -1;
name = O;
}
);
layerId = "0CF0EA28-C756-4A9E-9D7C-CFEF350B4CFE";
paths = (
{
closed = 1;
nodes = (
"150 156 LINE",
"241 109 LINE",
"654 561 LINE",
"563 608 LINE"
);
}
);
width = 790;
},
{
components = (
{
alignment = -1;
name = O;
}
);
layerId = "6E968933-CD79-43C6-9231-80D77C940F4D";
paths = (
{
closed = 1;
nodes = (
"148 104 LINE",
"164 93 LINE",
"629 596 LINE",
"615 609 LINE"
);
}
);
width = 773.00298;
},
{
components = (
{
alignment = -1;
name = O;
}
);
layerId = "BAF31694-0472-4296-B0EA-1654553C45D2";
paths = (
{
closed = 1;
nodes = (
"151 170 LINE",
"257 116 LINE",
"653 551 LINE",
"547 606 LINE"
);
}
);
width = 774.99755;
},
{
components = (
{
alignment = -1;
name = O;
}
);
layerId = "9F107B1E-3A61-4335-981B-27DD48125C7E";
paths = (
{
closed = 1;
nodes = (
"149 137 LINE",
"212 103 LINE",
"645 574 LINE",
"582 608 LINE"
);
}
);
width = 786.00112;
}
);
leftMetricsKey = O;
rightMetricsKey = O;
unicode = 00D8;
},
{
glyphname = P;
lastChange = "2021-09-01 17:33:15 +0000";
layers = (
{
hints = (
{
place = "{85, 114}";
type = Stem;
},
{
place = "{484, 117}";
type = Stem;
},
{
horizontal = 1;
place = "{284, 93}";
type = Stem;
},
{
horizontal = 1;
place = "{607, 93}";
type = Stem;
},
{
horizontal = 1;
place = "{0, 21}";
target = up;
type = BottomGhost;
}
);
layerId = "0CF0EA28-C756-4A9E-9D7C-CFEF350B4CFE";
paths = (
{
closed = 1;
nodes = (
"194 375 LINE",
"194 605 LINE",
"350 605 LINE SMOOTH",
"439 605 OFFCURVE",
"480 563 OFFCURVE",
"480 490 CURVE SMOOTH",
"480 419 OFFCURVE",
"439 375 OFFCURVE",
"350 375 CURVE SMOOTH"
);
},
{
closed = 1;
nodes = (
"596 604 OFFCURVE",
"515 700 OFFCURVE",
"350 700 CURVE SMOOTH",
"80 700 LINE",
"80 0 LINE",
"194 0 LINE",
"194 280 LINE",
"350 280 LINE SMOOTH",
"531 280 OFFCURVE",
"596 391 OFFCURVE",
"596 490 CURVE SMOOTH"
);
}
);
width = 636;
},
{
hints = (
{
place = "{105, 22}";
type = Stem;
},
{
place = "{517, 22}";
type = Stem;
},
{
horizontal = 1;
place = "{314, 23}";
type = Stem;
},
{
horizontal = 1;
place = "{677, 23}";
type = Stem;
},
{
horizontal = 1;
place = "{0, 21}";
target = up;
type = BottomGhost;
}
);
layerId = "6E968933-CD79-43C6-9231-80D77C940F4D";
paths = (
{
closed = 1;
nodes = (
"122 325 LINE",
"122 680 LINE",
"309 680 LINE",
"459 680 OFFCURVE",
"513 611 OFFCURVE",
"513 503 CURVE SMOOTH",
"513 401 OFFCURVE",
"459 325 OFFCURVE",
"309 325 CURVE SMOOTH"
);
},
{
closed = 1;
nodes = (
"535 619 OFFCURVE",
"478 700 OFFCURVE",
"309 700 CURVE SMOOTH",
"100 700 LINE",
"100 0 LINE",
"122 0 LINE",
"122 305 LINE",
"309 305 LINE SMOOTH",
"456 305 OFFCURVE",
"535 375 OFFCURVE",
"535 503 CURVE SMOOTH"
);
}
);
width = 585.00266;
},
{
hints = (
{
place = "{53, 176}";
type = Stem;
},
{
place = "{444, 179}";
type = Stem;
},
{
horizontal = 1;
place = "{248, 140}";
type = Stem;
},
{
horizontal = 1;
place = "{558, 142}";
type = Stem;
},
{
horizontal = 1;
place = "{0, 21}";
target = up;
type = BottomGhost;
}
);
layerId = "BAF31694-0472-4296-B0EA-1654553C45D2";
paths = (
{
closed = 1;
nodes = (
"229 389 LINE",
"229 554 LINE",
"366 554 LINE SMOOTH",
"428 554 OFFCURVE",
"459 522 OFFCURVE",
"459 472 CURVE SMOOTH",
"459 419 OFFCURVE",
"428 389 OFFCURVE",
"366 389 CURVE SMOOTH"
);
},
{
closed = 1;
nodes = (
"636 594 OFFCURVE",
"550 700 OFFCURVE",
"377 700 CURVE SMOOTH",
"55 700 LINE",
"55 0 LINE",
"229 0 LINE",
"229 243 LINE",
"377 243 LINE SMOOTH",
"556 243 OFFCURVE",
"636 359 OFFCURVE",
"636 472 CURVE SMOOTH"
);
}
);
width = 663.50481;
},
{
hints = (
{
place = "{93, 80}";
type = Stem;
},
{
place = "{496, 81}";
type = Stem;
},
{
horizontal = 1;
place = "{295, 67}";
type = Stem;
},
{
horizontal = 1;
place = "{633, 67}";
type = Stem;
},
{
horizontal = 1;
place = "{0, 21}";
target = up;
type = BottomGhost;
}
);
layerId = "9F107B1E-3A61-4335-981B-27DD48125C7E";
paths = (
{
closed = 1;
nodes = (
"170 356 LINE",
"170 630 LINE",
"337 630 LINE",
"449 630 OFFCURVE",
"496 579 OFFCURVE",
"496 493 CURVE SMOOTH",
"496 410 OFFCURVE",
"449 356 OFFCURVE",
"337 356 CURVE SMOOTH"
);
},
{
closed = 1;
nodes = (
"575 607 OFFCURVE",
"500 700 OFFCURVE",
"337 700 CURVE SMOOTH",
"90 700 LINE",
"90 0 LINE",
"170 0 LINE",
"170 286 LINE",
"337 286 LINE SMOOTH",
"505 286 OFFCURVE",
"575 383 OFFCURVE",
"575 493 CURVE SMOOTH"
);
}
);
width = 619.996;
}
);
leftMetricsKey = H;
rightMetricsKey = "=H*0.5";
unicode = 0050;
},
{
glyphname = Thorn;
lastChange = "2021-09-01 17:33:15 +0000";
layers = (
{
hints = (
{
place = "{85, 114}";
type = Stem;
},
{
place = "{454, 117}";
type = Stem;
},
{
horizontal = 1;
place = "{143, 89}";
type = Stem;
},
{
horizontal = 1;
place = "{469, 89}";
type = Stem;
},
{
horizontal = 1;
place = "{0, 21}";
target = up;
type = BottomGhost;
},
{
horizontal = 1;
place = "{700, -20}";
target = down;
type = TopGhost;
}
);
layerId = "0CF0EA28-C756-4A9E-9D7C-CFEF350B4CFE";
paths = (
{
closed = 1;
nodes = (
"194 232 LINE",
"194 469 LINE",
"320 469 LINE SMOOTH",
"409 469 OFFCURVE",
"449 422 OFFCURVE",
"449 350 CURVE SMOOTH",
"449 279 OFFCURVE",
"409.005 232 OFFCURVE",
"320 232 CURVE SMOOTH"
);
},
{
closed = 1;
nodes = (
"566 464 OFFCURVE",
"485 558 OFFCURVE",
"320 558 CURVE SMOOTH",
"193 558 LINE",
"193 700 LINE",
"80 700 LINE",
"80 0 LINE",
"194 0 LINE",
"194 143 LINE",
"320 143 LINE SMOOTH",
"501 143 OFFCURVE",
"566 251 OFFCURVE",
"566 350 CURVE SMOOTH"
);
}
);
width = 606;
},
{
hints = (
{
place = "{105, 22}";
type = Stem;
},
{
place = "{487, 22}";
type = Stem;
},
{
horizontal = 1;
place = "{158, 22}";
type = Stem;
},
{
horizontal = 1;
place = "{522, 21}";
type = Stem;
},
{
horizontal = 1;
place = "{700, -20}";
target = down;
type = TopGhost;
},
{
horizontal = 1;
place = "{0, 21}";
target = up;
type = BottomGhost;
}
);
layerId = "6E968933-CD79-43C6-9231-80D77C940F4D";
paths = (
{
closed = 1;
nodes = (
"122 180 LINE",
"122 522 LINE",
"279 522 LINE SMOOTH",
"429 522 OFFCURVE",
"482 458 OFFCURVE",
"482 350 CURVE SMOOTH",
"482 247 OFFCURVE",
"429 180 OFFCURVE",
"279 180 CURVE SMOOTH"
);
},
{
closed = 1;
nodes = (
"504 466 OFFCURVE",
"439 543 OFFCURVE",
"279 543 CURVE SMOOTH",
"122 543 LINE",
"122 700 LINE",
"100 700 LINE",
"100 0 LINE",
"122 0 LINE",
"122 158 LINE",
"279 158 LINE SMOOTH",
"426 158 OFFCURVE",
"504 221 OFFCURVE",
"504 350 CURVE SMOOTH"
);
}
);
width = 553.99766;
},
{
hints = (
{
place = "{53, 176}";
type = Stem;
},
{
place = "{414, 179}";
type = Stem;
},
{
horizontal = 1;
place = "{131, 133}";
type = Stem;
},
{
horizontal = 1;
place = "{437, 134}";
type = Stem;
},
{
horizontal = 1;
place = "{0, 21}";
target = up;
type = BottomGhost;
},
{
horizontal = 1;
place = "{700, -20}";
target = down;
type = TopGhost;
}
);
layerId = "BAF31694-0472-4296-B0EA-1654553C45D2";
paths = (
{
closed = 1;
nodes = (
"232 264 LINE",
"232 437 LINE",
"321 437 LINE SMOOTH",
"388 437 OFFCURVE",
"416 403 OFFCURVE",
"416 351 CURVE SMOOTH",
"416 299 OFFCURVE",
"388 264 OFFCURVE",
"321 264 CURVE SMOOTH"
);
},
{
closed = 1;
nodes = (
"595 477 OFFCURVE",
"508 572 OFFCURVE",
"336 572 CURVE SMOOTH",
"230 572 LINE",
"230 700 LINE",
"55 700 LINE",
"55 0 LINE",
"232 0 LINE",
"232 132 LINE",
"336 132 LINE SMOOTH",
"515 132 OFFCURVE",
"595 237 OFFCURVE",
"595 351 CURVE SMOOTH"
);
}
);
width = 622.50245;
},
{
hints = (
{
place = "{93, 80}";
type = Stem;
},
{
place = "{466, 81}";
type = Stem;
},
{
horizontal = 1;
place = "{149, 64}";
type = Stem;
},
{
horizontal = 1;
place = "{489, 64}";
type = Stem;
},
{
horizontal = 1;
place = "{700, -20}";
target = down;
type = TopGhost;
},
{
horizontal = 1;
place = "{0, 21}";
target = up;
type = BottomGhost;
}
);
layerId = "9F107B1E-3A61-4335-981B-27DD48125C7E";
paths = (
{
closed = 1;
nodes = (
"169 213 LINE",
"169 489 LINE",
"307 489 LINE SMOOTH",
"419 489 OFFCURVE",
"463 436 OFFCURVE",
"463 350 CURVE SMOOTH",
"463 267 OFFCURVE",
"419.004 213 OFFCURVE",
"307 213 CURVE SMOOTH"
);
},
{
closed = 1;
nodes = (
"545 465 OFFCURVE",
"470 552 OFFCURVE",
"307 552 CURVE SMOOTH",
"168 552 LINE",
"168 700 LINE",
"90 700 LINE",
"90 0 LINE",
"169 0 LINE",
"169 149 LINE",
"307 149 LINE SMOOTH",
"475 149 OFFCURVE",
"545 240 OFFCURVE",
"545 350 CURVE SMOOTH"
);
}
);
width = 589.99787;
}
);
leftMetricsKey = H;
rightMetricsKey = D;
unicode = 00DE;
},
{
glyphname = Q;
lastChange = "2021-09-01 17:33:15 +0000";
layers = (
{
components = (
{
alignment = -1;
name = O;
}
);
hints = (
{
place = "{383, 114}";
type = Stem;
},
{
horizontal = 1;
place = "{-100, 21}";
target = up;
type = BottomGhost;
},
{
horizontal = 1;
place = "{200, -20}";
target = down;
type = TopGhost;
}
);
layerId = "0CF0EA28-C756-4A9E-9D7C-CFEF350B4CFE";
paths = (
{
closed = 1;
nodes = (
"339 -100 LINE",
"453 -100 LINE",
"453 200 LINE",
"339 200 LINE"
);
}
);
width = 790;
},
{
components = (
{
alignment = -1;
name = O;
}
);
hints = (
{
place = "{386, 22}";
type = Stem;
},
{
horizontal = 1;
place = "{-100, 21}";
target = up;
type = BottomGhost;
},
{
horizontal = 1;
place = "{102, -20}";
target = down;
type = TopGhost;
}
);
layerId = "6E968933-CD79-43C6-9231-80D77C940F4D";
paths = (
{
closed = 1;
nodes = (
"376 -100 LINE",
"398 -100 LINE",
"398 102 LINE",
"376 102 LINE"
);
}
);
width = 773.00298;
},
{
components = (
{
alignment = -1;
name = O;
}
);
hints = (
{
place = "{348, 131}";
type = Stem;
},
{
horizontal = 1;
place = "{-85, 21}";
target = up;
type = BottomGhost;
},
{
horizontal = 1;
place = "{238, -20}";
target = down;
type = TopGhost;
}
);
layerId = "BAF31694-0472-4296-B0EA-1654553C45D2";
paths = (
{
closed = 1;
nodes = (
"318 -85 LINE",
"454 -85 LINE",
"454 238 LINE",
"318 238 LINE"
);
}
);
width = 774.99755;
},
{
components = (
{
alignment = -1;
name = O;
}
);
hints = (
{
place = "{384, 80}";
type = Stem;
},
{
horizontal = 1;
place = "{-100, 21}";
target = up;
type = BottomGhost;
},
{
horizontal = 1;
place = "{163, -20}";
target = down;
type = TopGhost;
}
);
layerId = "9F107B1E-3A61-4335-981B-27DD48125C7E";
paths = (
{
closed = 1;
nodes = (
"353 -100 LINE",
"433 -100 LINE",
"433 163 LINE",
"353 163 LINE"
);
}
);
width = 786.00112;
}
);
leftMetricsKey = O;
rightMetricsKey = O;
unicode = 0051;
},
{
glyphname = R;
lastChange = "2021-09-01 17:33:15 +0000";
layers = (
{
anchors = (
{
name = bottom;
position = "{351, 0}";
},
{
name = top;
position = "{321, 701}";
}
);
hints = (
{
place = "{85, 114}";
type = Stem;
},
{
place = "{484, 117}";
type = Stem;
},
{
horizontal = 1;
place = "{280, 91}";
type = Stem;
},
{
horizontal = 1;
place = "{607, 93}";
type = Stem;
},
{
horizontal = 1;
place = "{0, 21}";
target = up;
type = BottomGhost;
}
);
layerId = "0CF0EA28-C756-4A9E-9D7C-CFEF350B4CFE";
paths = (
{
closed = 1;
nodes = (
"480 420 OFFCURVE",
"439 375 OFFCURVE",
"350 375 CURVE SMOOTH",
"194 375 LINE",
"194 605 LINE",
"350 605 LINE SMOOTH",
"439 605 OFFCURVE",
"480 561 OFFCURVE",
"480 490 CURVE SMOOTH"
);
},
{
closed = 1;
nodes = (
"80 700 LINE",
"80 0 LINE",
"194 0 LINE",
"194 279.999 LINE",
"350 279.999 LINE SMOOTH",
"531 279.999 OFFCURVE",
"596 391 OFFCURVE",
"596 490 CURVE SMOOTH",
"596 604 OFFCURVE",
"515 700 OFFCURVE",
"350 700 CURVE SMOOTH"
);
},
{
closed = 1;
nodes = (
"297 317 LINE",
"478 0 LINE",
"607 0 LINE",
"419 317 LINE"
);
}
);
width = 647;
},
{
anchors = (
{
name = bottom;
position = "{341, 0}";
},
{
name = top;
position = "{292, 679}";
}
);
hints = (
{
place = "{113, 22}";
type = Stem;
},
{
place = "{514, 22}";
type = Stem;
},
{
horizontal = 1;
place = "{678, 22}";
type = Stem;
},
{
horizontal = 1;
place = "{0, 21}";
target = up;
type = BottomGhost;
}
);
layerId = "6E968933-CD79-43C6-9231-80D77C940F4D";
paths = (
{
closed = 1;
nodes = (
"513 401 OFFCURVE",
"452 325 OFFCURVE",
"309 325 CURVE SMOOTH",
"122 325 LINE",
"122 680 LINE",
"307 680 LINE SMOOTH",
"457 680 OFFCURVE",
"513 610 OFFCURVE",
"513 503 CURVE SMOOTH"
);
},
{
closed = 1;
nodes = (
"100 700 LINE",
"100 0 LINE",
"122 0 LINE",
"122 305 LINE",
"309 305 LINE SMOOTH",
"456 305 OFFCURVE",
"535 377 OFFCURVE",
"535 503 CURVE SMOOTH",
"535 619 OFFCURVE",
"476 700 OFFCURVE",
"307 700 CURVE SMOOTH"
);
},
{
closed = 1;
nodes = (
"323 313 LINE",
"516 0 LINE",
"541 0 LINE",
"348 313 LINE"
);
}
);
width = 591.00138;
},
{
anchors = (
{
name = bottom;
position = "{346, 1}";
},
{
name = top;
position = "{333, 702}";
}
);
hints = (
{
place = "{36, 48}";
type = Stem;
},
{
place = "{223, 177}";
type = Stem;
},
{
horizontal = 1;
place = "{369, 168}";
type = Stem;
},
{
horizontal = 1;
place = "{553, 147}";
type = Stem;
},
{
horizontal = 1;
place = "{0, 21}";
target = up;
type = BottomGhost;
}
);
layerId = "BAF31694-0472-4296-B0EA-1654553C45D2";
paths = (
{
closed = 1;
nodes = (
"459 419 OFFCURVE",
"428 389 OFFCURVE",
"366 389 CURVE SMOOTH",
"229 389 LINE",
"229 554 LINE",
"366 554 LINE SMOOTH",
"428 554 OFFCURVE",
"459 522 OFFCURVE",
"459 472 CURVE SMOOTH"
);
},
{
closed = 1;
nodes = (
"55 700 LINE",
"55 0 LINE",
"229 0 LINE",
"229 243 LINE",
"377 243 LINE SMOOTH",
"556 243 OFFCURVE",
"636 359 OFFCURVE",
"636 472 CURVE SMOOTH",
"636 594 OFFCURVE",
"550 700 OFFCURVE",
"377 700 CURVE SMOOTH"
);
},
{
closed = 1;
nodes = (
"283 303 LINE",
"450 0 LINE",
"642 0 LINE",
"465 303 LINE"
);
}
);
width = 669.50396;
},
{
anchors = (
{
name = bottom;
position = "{349, 0}";
},
{
name = top;
position = "{312, 693}";
}
);
hints = (
{
place = "{345, 81}";
type = Stem;
},
{
place = "{368, 65}";
type = Stem;
},
{
horizontal = 1;
place = "{634, 66}";
type = Stem;
},
{
horizontal = 1;
place = "{0, 21}";
target = up;
type = BottomGhost;
}
);
layerId = "9F107B1E-3A61-4335-981B-27DD48125C7E";
paths = (
{
closed = 1;
nodes = (
"494 411 OFFCURVE",
"446 356 OFFCURVE",
"337 356 CURVE SMOOTH",
"170 356 LINE",
"170 630 LINE",
"336 630 LINE SMOOTH",
"448 630 OFFCURVE",
"494 577 OFFCURVE",
"494 493 CURVE SMOOTH"
);
},
{
closed = 1;
nodes = (
"90 700 LINE",
"90 0 LINE",
"170 0 LINE",
"170 286 LINE",
"337 286 LINE SMOOTH",
"505 286 OFFCURVE",
"575 384 OFFCURVE",
"575 493 CURVE SMOOTH",
"575 608 OFFCURVE",
"499 700 OFFCURVE",
"336 700 CURVE SMOOTH"
);
},
{
closed = 1;
nodes = (
"308 316 LINE",
"493 0 LINE",
"584 0 LINE",
"394 316 LINE"
);
}
);
width = 628.99552;
}
);
leftMetricsKey = H;
rightMetricsKey = "=H/2";
unicode = 0052;
},
{
glyphname = Rcommaaccent;
lastChange = "2021-09-01 17:33:15 +0000";
layers = (
{
anchors = (
{
name = _bottom;
position = "{356, 0}";
}
);
components = (
{
alignment = -1;
name = R;
}
);
hints = (
{
place = "{302, 116}";
type = Stem;
},
{
place = "{306, 112}";
type = Stem;
},
{
place = "{354, 64}";
type = Stem;
},
{
horizontal = 1;
place = "{-143, 96}";
type = Stem;
},
{
horizontal = 1;
place = "{-272, 21}";
target = up;
type = BottomGhost;
}
);
layerId = "0CF0EA28-C756-4A9E-9D7C-CFEF350B4CFE";
paths = (
{
closed = 1;
nodes = (
"302 -47 LINE",
"302 -143 LINE",
"354 -143 LINE",
"354 -165 LINE SMOOTH",
"354 -203.003 OFFCURVE",
"339 -222 OFFCURVE",
"306 -222 CURVE",
"306 -272 LINE",
"380 -272 OFFCURVE",
"418 -230 OFFCURVE",
"418 -146 CURVE SMOOTH",
"418 -117 OFFCURVE",
"414 -84 OFFCURVE",
"405 -47 CURVE"
);
}
);
width = 647;
},
{
anchors = (
{
name = _bottom;
position = "{313, 0}";
}
);
components = (
{
alignment = -1;
name = R;
}
);
hints = (
{
place = "{308, 24}";
type = Stem;
},
{
horizontal = 1;
place = "{-58, -20}";
target = down;
type = TopGhost;
},
{
horizontal = 1;
place = "{-177, 21}";
target = up;
type = BottomGhost;
}
);
layerId = "6E968933-CD79-43C6-9231-80D77C940F4D";
paths = (
{
closed = 1;
nodes = (
"287 -58 LINE",
"287 -97 LINE",
"319 -97 LINE",
"319 -105 LINE SMOOTH",
"319 -138 OFFCURVE",
"308 -158 OFFCURVE",
"276 -158 CURVE",
"276 -177 LINE",
"312 -177 OFFCURVE",
"342 -162 OFFCURVE",
"342 -91 CURVE SMOOTH",
"342 -81 OFFCURVE",
"341 -68 OFFCURVE",
"339 -58 CURVE"
);
}
);
width = 590.99638;
},
{
anchors = (
{
name = _bottom;
position = "{358, 1}";
}
);
components = (
{
alignment = -1;
name = R;
}
);
hints = (
{
place = "{289, 154}";
type = Stem;
},
{
place = "{332, 111}";
type = Stem;
},
{
place = "{-46, 73}";
type = Stem;
},
{
horizontal = 1;
place = "{-164, 125}";
type = Stem;
},
{
horizontal = 1;
place = "{-115, 21}";
target = up;
type = BottomGhost;
}
);
layerId = "BAF31694-0472-4296-B0EA-1654553C45D2";
paths = (
{
closed = 1;
nodes = (
"289 -38 LINE",
"289 -164 LINE",
"353 -164 LINE",
"353 -178 LINE SMOOTH",
"353 -224 OFFCURVE",
"335 -245 OFFCURVE",
"301 -245 CURVE",
"301 -312 LINE",
"398 -312 OFFCURVE",
"443 -248 OFFCURVE",
"443 -158 CURVE SMOOTH",
"443 -121 OFFCURVE",
"437 -81 OFFCURVE",
"423 -38 CURVE"
);
}
);
width = 669.5016;
},
{
anchors = (
{
name = _bottom;
position = "{340, 0}";
}
);
components = (
{
alignment = -1;
name = R;
}
);
hints = (
{
place = "{26, 69}";
type = Stem;
},
{
horizontal = 1;
place = "{-22, -20}";
target = down;
type = TopGhost;
},
{
horizontal = 1;
place = "{-236, 21}";
target = up;
type = BottomGhost;
}
);
layerId = "9F107B1E-3A61-4335-981B-27DD48125C7E";
paths = (
{
closed = 1;
nodes = (
"296 -51 LINE",
"296 -126 LINE",
"341 -126 LINE",
"341 -143 LINE SMOOTH",
"341 -179 OFFCURVE",
"327 -198 OFFCURVE",
"295 -198 CURVE",
"295 -236 LINE",
"355 -236 OFFCURVE",
"390 -205 OFFCURVE",
"390 -125 CURVE SMOOTH",
"390 -104 OFFCURVE",
"387 -78 OFFCURVE",
"380 -51 CURVE"
);
}
);
width = 629.00364;
}
);
leftMetricsKey = R;
rightMetricsKey = R;
unicode = 0156;
},
{
glyphname = S;
lastChange = "2021-09-01 17:33:15 +0000";
layers = (
{
anchors = (
{
name = bottom;
position = "{300, -7}";
},
{
name = top;
position = "{295, 709}";
}
);
hints = (
{
place = "{59, 116}";
type = Stem;
},
{
place = "{428, 115}";
type = Stem;
},
{
horizontal = 1;
place = "{-7, 97}";
type = Stem;
},
{
horizontal = 1;
place = "{611, 98}";
type = Stem;
}
);
layerId = "0CF0EA28-C756-4A9E-9D7C-CFEF350B4CFE";
paths = (
{
closed = 1;
nodes = (
"48 150 LINE",
"70.313 51.491 OFFCURVE",
"177 -7 OFFCURVE",
"300.862 -7 CURVE SMOOTH",
"455 -7 OFFCURVE",
"540 83.578 OFFCURVE",
"540 199.573 CURVE SMOOTH",
"540 445.927 OFFCURVE",
"172 350.673 OFFCURVE",
"172 512.526 CURVE SMOOTH",
"172 572.903 OFFCURVE",
"223.212 611.484 OFFCURVE",
"293 610 CURVE SMOOTH",
"357.071 608.638 OFFCURVE",
"409.314 574.091 OFFCURVE",
"422 530 CURVE",
"527 567 LINE",
"495.324 656.996 OFFCURVE",
"409 707 OFFCURVE",
"293.346 707 CURVE SMOOTH",
"153 707 OFFCURVE",
"56 633.367 OFFCURVE",
"56 505.207 CURVE SMOOTH",
"56 252.584 OFFCURVE",
"424 359 OFFCURVE",
"424 191.874 CURVE SMOOTH",
"424 133 OFFCURVE",
"378.334 90 OFFCURVE",
"297.424 90 CURVE SMOOTH",
"219 90 OFFCURVE",
"164.783 130.402 OFFCURVE",
"153 187 CURVE"
);
}
);
width = 588;
},
{
anchors = (
{
name = bottom;
position = "{274, 0}";
},
{
name = top;
position = "{274, 680}";
}
);
hints = (
{
place = "{73, 22}";
type = Stem;
},
{
place = "{479, 22}";
type = Stem;
},
{
horizontal = 1;
place = "{-7, 21}";
target = up;
type = BottomGhost;
},
{
horizontal = 1;
place = "{692, -20}";
target = down;
type = TopGhost;
}
);
layerId = "6E968933-CD79-43C6-9231-80D77C940F4D";
paths = (
{
closed = 1;
nodes = (
"60 139 LINE",
"82.606 61.675 OFFCURVE",
"157 -7 OFFCURVE",
"283.131 -7 CURVE SMOOTH",
"425 -7 OFFCURVE",
"493 79.881 OFFCURVE",
"493 179.36 CURVE SMOOTH",
"493 422.634 OFFCURVE",
"93 294.721 OFFCURVE",
"93 525.108 CURVE SMOOTH",
"93 631.312 OFFCURVE",
"178 687 OFFCURVE",
"279.399 687 CURVE SMOOTH",
"390 687 OFFCURVE",
"445.764 620.742 OFFCURVE",
"462 572 CURVE",
"481 579 LINE",
"459.514 641.155 OFFCURVE",
"398 707 OFFCURVE",
"279.014 707 CURVE SMOOTH",
"151 707 OFFCURVE",
"71 630.786 OFFCURVE",
"71 521.794 CURVE SMOOTH",
"71 274.073 OFFCURVE",
"471 402.511 OFFCURVE",
"471 176.331 CURVE SMOOTH",
"471 79.706 OFFCURVE",
"398 13 OFFCURVE",
"279.821 13 CURVE SMOOTH",
"152 13 OFFCURVE",
"94.882 91.039 OFFCURVE",
"78 147 CURVE"
);
}
);
width = 553.00026;
},
{
anchors = (
{
name = bottom;
position = "{305, -2}";
},
{
name = top;
position = "{303, 705}";
}
);
hints = (
{
place = "{38, 179}";
type = Stem;
},
{
place = "{389, 181}";
type = Stem;
},
{
horizontal = 1;
place = "{-6, 138}";
type = Stem;
},
{
horizontal = 1;
place = "{571, 138}";
type = Stem;
}
);
layerId = "BAF31694-0472-4296-B0EA-1654553C45D2";
paths = (
{
closed = 1;
nodes = (
"33 171 LINE",
"62.62 52.63 OFFCURVE",
"177 -7 OFFCURVE",
"311.891 -7 CURVE SMOOTH",
"477.607 -7 OFFCURVE",
"571 83 OFFCURVE",
"571 202.025 CURVE SMOOTH",
"571 438.08 OFFCURVE",
"216 384.759 OFFCURVE",
"216 502.217 CURVE SMOOTH",
"216 542.208 OFFCURVE",
"257.151 568.735 OFFCURVE",
"305.008 568.218 CURVE SMOOTH",
"343.214 567.806 OFFCURVE",
"388.69 550.124 OFFCURVE",
"395 513 CURVE",
"555 541 LINE",
"529.486 647.141 OFFCURVE",
"434 707 OFFCURVE",
"297.434 707 CURVE SMOOTH",
"149 707 OFFCURVE",
"41.11 636.286 OFFCURVE",
"38.543 502.004 CURVE SMOOTH",
"33.753 251.477 OFFCURVE",
"394 326.578 OFFCURVE",
"394 203.227 CURVE SMOOTH",
"394 161 OFFCURVE",
"351.778 132 OFFCURVE",
"298.482 132 CURVE SMOOTH",
"257 132 OFFCURVE",
"201.067 149.568 OFFCURVE",
"191 203 CURVE"
);
}
);
width = 604.00491;
},
{
anchors = (
{
name = bottom;
position = "{291, -4}";
},
{
name = top;
position = "{288, 698}";
}
);
hints = (
{
place = "{23, 69}";
type = Stem;
},
{
place = "{562, 70}";
type = Stem;
},
{
horizontal = 1;
place = "{-3, 21}";
target = up;
type = BottomGhost;
},
{
horizontal = 1;
place = "{260, -20}";
target = down;
type = TopGhost;
}
);
layerId = "9F107B1E-3A61-4335-981B-27DD48125C7E";
paths = (
{
closed = 1;
nodes = (
"54 146 LINE",
"79.075 54.877 OFFCURVE",
"171 -7 OFFCURVE",
"295.222 -7 CURVE SMOOTH",
"445 -7 OFFCURVE",
"523 82.955 OFFCURVE",
"523 192.499 CURVE SMOOTH",
"523 437.283 OFFCURVE",
"143 329.395 OFFCURVE",
"143 518.955 CURVE SMOOTH",
"143 596 OFFCURVE",
"205.774 639.649 OFFCURVE",
"285.996 638.801 CURVE SMOOTH",
"367.929 637.936 OFFCURVE",
"425.316 591.102 OFFCURVE",
"440 545 CURVE",
"511 572 LINE",
"482.591 651.619 OFFCURVE",
"406 707 OFFCURVE",
"289.091 707 CURVE SMOOTH",
"153 707 OFFCURVE",
"63 631.954 OFFCURVE",
"63 511.578 CURVE SMOOTH",
"63 260.22 OFFCURVE",
"443 377.091 OFFCURVE",
"443 186.455 CURVE SMOOTH",
"443 114.631 OFFCURVE",
"389.056 61 OFFCURVE",
"293.573 61 CURVE SMOOTH",
"195 61 OFFCURVE",
"138.369 118.158 OFFCURVE",
"125 174 CURVE"
);
}
);
width = 577.00285;
}
);
leftMetricsKey = "=H*0.6";
rightMetricsKey = "=H*0.6";
unicode = 0053;
},
{
glyphname = Scommaaccent;
lastChange = "2021-09-01 17:33:15 +0000";
layers = (
{
anchors = (
{
name = _bottom;
position = "{295, 0}";
}
);
components = (
{
alignment = -1;
name = S;
}
);
hints = (
{
place = "{240, 117}";
type = Stem;
},
{
place = "{244, 113}";
type = Stem;
},
{
place = "{293, 64}";
type = Stem;
},
{
horizontal = 1;
place = "{-143, 96}";
type = Stem;
},
{
horizontal = 1;
place = "{-272, 21}";
target = up;
type = BottomGhost;
}
);
layerId = "0CF0EA28-C756-4A9E-9D7C-CFEF350B4CFE";
paths = (
{
closed = 1;
nodes = (
"240 -47 LINE",
"240 -143 LINE",
"293 -143 LINE",
"293 -165 LINE SMOOTH",
"293 -203 OFFCURVE",
"278 -222 OFFCURVE",
"244 -222 CURVE",
"244 -272 LINE",
"319 -272 OFFCURVE",
"357 -230 OFFCURVE",
"357 -146 CURVE SMOOTH",
"357 -117 OFFCURVE",
"353 -84 OFFCURVE",
"343 -47 CURVE"
);
}
);
width = 588;
},
{
anchors = (
{
name = _bottom;
position = "{291, -7}";
}
);
components = (
{
alignment = -1;
name = S;
}
);
hints = (
{
place = "{289, 24}";
type = Stem;
},
{
horizontal = 1;
place = "{-58, -20}";
target = down;
type = TopGhost;
},
{
horizontal = 1;
place = "{-177, 21}";
target = up;
type = BottomGhost;
}
);
layerId = "6E968933-CD79-43C6-9231-80D77C940F4D";
paths = (
{
closed = 1;
nodes = (
"266 -58 LINE",
"266 -97 LINE",
"298 -97 LINE",
"298 -105 LINE SMOOTH",
"298 -138 OFFCURVE",
"287 -158 OFFCURVE",
"255 -158 CURVE",
"255 -177 LINE",
"292 -177 OFFCURVE",
"321 -162 OFFCURVE",
"321 -91 CURVE SMOOTH",
"321 -81 OFFCURVE",
"320 -68 OFFCURVE",
"319 -58 CURVE"
);
}
);
width = 553.00426;
},
{
anchors = (
{
name = _bottom;
position = "{323, 1}";
}
);
components = (
{
alignment = -1;
name = S;
}
);
hints = (
{
place = "{253, 154}";
type = Stem;
},
{
place = "{296, 111}";
type = Stem;
},
{
place = "{-72, 73}";
type = Stem;
},
{
horizontal = 1;
place = "{-164, 125}";
type = Stem;
},
{
horizontal = 1;
place = "{-115, 21}";
target = up;
type = BottomGhost;
}
);
layerId = "BAF31694-0472-4296-B0EA-1654553C45D2";
paths = (
{
closed = 1;
nodes = (
"253 -38 LINE",
"253 -164 LINE",
"317 -164 LINE",
"317 -178 LINE SMOOTH",
"317 -224 OFFCURVE",
"299 -245 OFFCURVE",
"265 -245 CURVE",
"265 -312 LINE",
"362 -312 OFFCURVE",
"408 -248 OFFCURVE",
"408 -158 CURVE SMOOTH",
"408 -121 OFFCURVE",
"401 -81 OFFCURVE",
"387 -38 CURVE"
);
}
);
width = 604.00208;
},
{
anchors = (
{
name = _bottom;
position = "{294, -3}";
}
);
components = (
{
alignment = -1;
name = S;
}
);
hints = (
{
place = "{19, 69}";
type = Stem;
},
{
horizontal = 1;
place = "{-22, -20}";
target = down;
type = TopGhost;
},
{
horizontal = 1;
place = "{-236, 21}";
target = up;
type = BottomGhost;
}
);
layerId = "9F107B1E-3A61-4335-981B-27DD48125C7E";
paths = (
{
closed = 1;
nodes = (
"250 -51 LINE",
"250 -126 LINE",
"295 -126 LINE",
"295 -143 LINE SMOOTH",
"295 -179 OFFCURVE",
"281 -198 OFFCURVE",
"248 -198 CURVE",
"248 -236 LINE",
"309 -236 OFFCURVE",
"344 -205 OFFCURVE",
"344 -125 CURVE SMOOTH",
"344 -104 OFFCURVE",
"341 -78 OFFCURVE",
"334 -51 CURVE"
);
}
);
width = 576.99785;
}
);
leftMetricsKey = S;
rightMetricsKey = S;
unicode = 0218;
},
{
glyphname = Schwa;
lastChange = "2021-09-01 17:33:15 +0000";
layers = (
{
anchors = (
{
name = top;
position = "{378, 709}";
}
);
hints = (
{
place = "{51, 119}";
type = Stem;
},
{
place = "{592, 124}";
type = Stem;
},
{
horizontal = 1;
place = "{-7, 103}";
type = Stem;
},
{
horizontal = 1;
place = "{286, 107}";
type = Stem;
},
{
horizontal = 1;
place = "{604, 104}";
type = Stem;
}
);
layerId = "0CF0EA28-C756-4A9E-9D7C-CFEF350B4CFE";
paths = (
{
closed = 1;
nodes = (
"589 307 LINE SMOOTH",
"589 176 OFFCURVE",
"498 96 OFFCURVE",
"379 96 CURVE SMOOTH",
"256 96 OFFCURVE",
"171 172 OFFCURVE",
"167 286 CURVE",
"610 286 LINE",
"610 393 LINE",
"52 393 LINE",
"49 369 OFFCURVE",
"48 346 OFFCURVE",
"48 325 CURVE SMOOTH",
"48 113 OFFCURVE",
"184 -7 OFFCURVE",
"379 -7 CURVE SMOOTH",
"580 -7 OFFCURVE",
"713 140 OFFCURVE",
"713 351 CURVE SMOOTH",
"713 562 OFFCURVE",
"576 708 OFFCURVE",
"378 708 CURVE SMOOTH",
"220 708 OFFCURVE",
"104 623 OFFCURVE",
"56 488 CURVE",
"188 488 LINE",
"219 561 OFFCURVE",
"286 604 OFFCURVE",
"378 604 CURVE SMOOTH",
"503 604 OFFCURVE",
"589 511 OFFCURVE",
"589 372 CURVE SMOOTH"
);
}
);
width = 761;
},
{
anchors = (
{
name = top;
position = "{379, 706}";
}
);
hints = (
{
place = "{68, 24}";
type = Stem;
},
{
place = "{686, 24}";
type = Stem;
},
{
horizontal = 1;
place = "{-8, 21}";
target = up;
type = BottomGhost;
},
{
horizontal = 1;
place = "{691, -20}";
target = down;
type = TopGhost;
}
);
layerId = "6E968933-CD79-43C6-9231-80D77C940F4D";
paths = (
{
closed = 1;
nodes = (
"683 345 LINE SMOOTH",
"683 130 OFFCURVE",
"547 12 OFFCURVE",
"373 12 CURVE SMOOTH",
"188 12 OFFCURVE",
"72 142 OFFCURVE",
"84 338 CURVE",
"690 338 LINE",
"690 357 LINE",
"62 357 LINE",
"61 342 OFFCURVE",
"60 327 OFFCURVE",
"60 312 CURVE SMOOTH",
"60 110 OFFCURVE",
"190 -8 OFFCURVE",
"373 -8 CURVE SMOOTH",
"572 -8 OFFCURVE",
"707 134 OFFCURVE",
"707 349 CURVE SMOOTH",
"707 559 OFFCURVE",
"573 706 OFFCURVE",
"379 706 CURVE SMOOTH",
"220 706 OFFCURVE",
"93 610 OFFCURVE",
"60 463 CURVE",
"83 463 LINE",
"116 604 OFFCURVE",
"239 686 OFFCURVE",
"379 686 CURVE SMOOTH",
"550 686 OFFCURVE",
"683 560 OFFCURVE",
"683 351 CURVE SMOOTH"
);
}
);
width = 767.00234;
},
{
anchors = (
{
name = top;
position = "{377, 714}";
}
);
hints = (
{
place = "{22, 51}";
type = Stem;
},
{
place = "{542, 183}";
type = Stem;
},
{
horizontal = 1;
place = "{-8, 162}";
type = Stem;
},
{
horizontal = 1;
place = "{284, 116}";
type = Stem;
},
{
horizontal = 1;
place = "{556, 158}";
type = Stem;
}
);
layerId = "BAF31694-0472-4296-B0EA-1654553C45D2";
paths = (
{
closed = 1;
nodes = (
"543 309 LINE SMOOTH",
"543 210 OFFCURVE",
"465 153 OFFCURVE",
"375 153 CURVE SMOOTH",
"285 153 OFFCURVE",
"218 206 OFFCURVE",
"214 284 CURVE",
"566 284 LINE",
"566 400 LINE",
"37 400 LINE",
"35 380 OFFCURVE",
"33 358 OFFCURVE",
"33 339 CURVE SMOOTH",
"33 122 OFFCURVE",
"171 -8 OFFCURVE",
"378 -8 CURVE SMOOTH",
"587 -8 OFFCURVE",
"726 136 OFFCURVE",
"726 353 CURVE SMOOTH",
"726 572 OFFCURVE",
"585 714 OFFCURVE",
"377 714 CURVE SMOOTH",
"206 714 OFFCURVE",
"82 612 OFFCURVE",
"44 468 CURVE",
"234 468 LINE",
"255 523 OFFCURVE",
"311 556 OFFCURVE",
"380 556 CURVE SMOOTH",
"470 556 OFFCURVE",
"543 494 OFFCURVE",
"543 385 CURVE SMOOTH"
);
}
);
width = 759.00151;
},
{
anchors = (
{
name = top;
position = "{379, 708}";
}
);
hints = (
{
place = "{204, 76}";
type = Stem;
},
{
place = "{635, 74}";
type = Stem;
},
{
horizontal = 1;
place = "{-3, 21}";
target = up;
type = BottomGhost;
},
{
horizontal = 1;
place = "{259, -20}";
target = down;
type = TopGhost;
}
);
layerId = "9F107B1E-3A61-4335-981B-27DD48125C7E";
paths = (
{
closed = 1;
nodes = (
"625 321 LINE SMOOTH",
"625 159 OFFCURVE",
"517 65 OFFCURVE",
"378 65 CURVE SMOOTH",
"232 65 OFFCURVE",
"135 161 OFFCURVE",
"137 306 CURVE",
"641 306 LINE",
"641 380 LINE",
"57 380 LINE",
"55 359 OFFCURVE",
"54 339 OFFCURVE",
"54 320 CURVE SMOOTH",
"54 112 OFFCURVE",
"187 -7 OFFCURVE",
"378 -7 CURVE SMOOTH",
"578 -7 OFFCURVE",
"712 138 OFFCURVE",
"712 350 CURVE SMOOTH",
"712 561 OFFCURVE",
"576 707 OFFCURVE",
"379 707 CURVE SMOOTH",
"221 707 OFFCURVE",
"101 618 OFFCURVE",
"59 479 CURVE",
"150 479 LINE",
"181 577 OFFCURVE",
"269 635 OFFCURVE",
"379 635 CURVE SMOOTH",
"522 635 OFFCURVE",
"625 529 OFFCURVE",
"625 364 CURVE SMOOTH"
);
}
);
width = 766.00213;
}
);
leftMetricsKey = S;
rightMetricsKey = S;
unicode = 018F;
},
{
glyphname = T;
lastChange = "2021-09-01 17:33:15 +0000";
layers = (
{
anchors = (
{
name = bottom;
position = "{311, 0}";
},
{
name = top;
position = "{313, 701}";
}
);
hints = (
{
place = "{258, 114}";
type = Stem;
},
{
horizontal = 1;
place = "{607, 93}";
type = Stem;
},
{
horizontal = 1;
place = "{0, 21}";
target = up;
type = BottomGhost;
}
);
layerId = "0CF0EA28-C756-4A9E-9D7C-CFEF350B4CFE";
paths = (
{
closed = 1;
nodes = (
"40 605 LINE",
"256 605 LINE",
"256 0 LINE",
"370 0 LINE",
"370 605 LINE",
"585 605 LINE",
"585 700 LINE",
"40 700 LINE"
);
}
);
width = 625;
},
{
anchors = (
{
name = bottom;
position = "{294, 0}";
},
{
name = top;
position = "{297, 679}";
}
);
hints = (
{
place = "{294, 22}";
type = Stem;
},
{
horizontal = 1;
place = "{685, -20}";
target = down;
type = TopGhost;
},
{
horizontal = 1;
place = "{0, 21}";
target = up;
type = BottomGhost;
}
);
layerId = "6E968933-CD79-43C6-9231-80D77C940F4D";
paths = (
{
closed = 1;
nodes = (
"50 680 LINE",
"285 680 LINE",
"285 0 LINE",
"307 0 LINE",
"307 680 LINE",
"541 680 LINE",
"541 700 LINE",
"50 700 LINE"
);
}
);
width = 590.99968;
},
{
anchors = (
{
name = bottom;
position = "{328.5, 1}";
},
{
name = top;
position = "{328.5, 702}";
}
);
hints = (
{
place = "{242, 176}";
type = Stem;
},
{
horizontal = 1;
place = "{559, 141}";
type = Stem;
},
{
horizontal = 1;
place = "{0, 21}";
target = up;
type = BottomGhost;
}
);
layerId = "BAF31694-0472-4296-B0EA-1654553C45D2";
paths = (
{
closed = 1;
nodes = (
"27.5 554 LINE",
"244.5 554 LINE",
"244.5 0 LINE",
"418.5 0 LINE",
"418.5 554 LINE",
"636.5 554 LINE",
"636.5 700 LINE",
"27.5 700 LINE"
);
}
);
width = 664.00378;
},
{
anchors = (
{
name = bottom;
position = "{306, 0}";
},
{
name = top;
position = "{309, 693}";
}
);
hints = (
{
place = "{490, 66}";
type = Stem;
},
{
horizontal = 1;
place = "{257, -20}";
target = down;
type = TopGhost;
},
{
horizontal = 1;
place = "{0, 21}";
target = up;
type = BottomGhost;
}
);
layerId = "9F107B1E-3A61-4335-981B-27DD48125C7E";
paths = (
{
closed = 1;
nodes = (
"45 630 LINE",
"268 630 LINE",
"268 0 LINE",
"348 0 LINE",
"348 630 LINE",
"570 630 LINE",
"570 700 LINE",
"45 700 LINE"
);
}
);
width = 614.99863;
}
);
leftMetricsKey = "=H/2";
rightMetricsKey = "=H/2";
unicode = 0054;
},
{
glyphname = Tcommaaccent;
lastChange = "2021-09-01 17:33:15 +0000";
layers = (
{
components = (
{
alignment = -1;
name = T;
}
);
hints = (
{
place = "{264, 116}";
type = Stem;
},
{
place = "{268, 112}";
type = Stem;
},
{
place = "{317, 63}";
type = Stem;
},
{
horizontal = 1;
place = "{-143, 96}";
type = Stem;
},
{
horizontal = 1;
place = "{-272, 21}";
target = up;
type = BottomGhost;
}
);
layerId = "0CF0EA28-C756-4A9E-9D7C-CFEF350B4CFE";
paths = (
{
closed = 1;
nodes = (
"264 -47 LINE",
"264 -143 LINE",
"317 -143 LINE",
"317 -165 LINE SMOOTH",
"317 -203.003 OFFCURVE",
"301 -222 OFFCURVE",
"268 -222 CURVE",
"268 -272 LINE",
"342 -272 OFFCURVE",
"380 -230 OFFCURVE",
"380 -146 CURVE SMOOTH",
"380 -117 OFFCURVE",
"376 -84 OFFCURVE",
"367 -47 CURVE"
);
}
);
width = 625;
},
{
components = (
{
alignment = -1;
name = T;
}
);
hints = (
{
place = "{298, 24}";
type = Stem;
},
{
horizontal = 1;
place = "{-58, -20}";
target = down;
type = TopGhost;
},
{
horizontal = 1;
place = "{-177, 21}";
target = up;
type = BottomGhost;
}
);
layerId = "6E968933-CD79-43C6-9231-80D77C940F4D";
paths = (
{
closed = 1;
nodes = (
"276 -58 LINE",
"276 -97 LINE",
"308 -97 LINE",
"308 -105 LINE SMOOTH",
"308 -138 OFFCURVE",
"297 -158 OFFCURVE",
"265 -158 CURVE",
"265 -177 LINE",
"301 -177 OFFCURVE",
"331 -162 OFFCURVE",
"331 -91 CURVE SMOOTH",
"331 -81 OFFCURVE",
"330 -68 OFFCURVE",
"328 -58 CURVE"
);
}
);
width = 591.00468;
},
{
components = (
{
alignment = -1;
name = T;
}
);
hints = (
{
place = "{112, 49}";
type = Stem;
},
{
place = "{263, 152}";
type = Stem;
},
{
place = "{325, 89}";
type = Stem;
},
{
horizontal = 1;
place = "{-164, 125}";
type = Stem;
},
{
horizontal = 1;
place = "{-312, 21}";
target = up;
type = BottomGhost;
}
);
layerId = "BAF31694-0472-4296-B0EA-1654553C45D2";
paths = (
{
closed = 1;
nodes = (
"261 -38 LINE",
"261 -164 LINE",
"325 -164 LINE",
"325 -178 LINE SMOOTH",
"325 -224 OFFCURVE",
"306 -245 OFFCURVE",
"273 -245 CURVE",
"273 -312 LINE",
"369 -312 OFFCURVE",
"415 -248 OFFCURVE",
"415 -158 CURVE SMOOTH",
"415 -121 OFFCURVE",
"409 -81 OFFCURVE",
"394 -38 CURVE"
);
}
);
width = 663.99642;
},
{
components = (
{
alignment = -1;
name = T;
}
);
hints = (
{
place = "{22, 69}";
type = Stem;
},
{
horizontal = 1;
place = "{-22, -20}";
target = down;
type = TopGhost;
},
{
horizontal = 1;
place = "{-236, 21}";
target = up;
type = BottomGhost;
}
);
layerId = "9F107B1E-3A61-4335-981B-27DD48125C7E";
paths = (
{
closed = 1;
nodes = (
"269 -51 LINE",
"269 -126 LINE",
"314 -126 LINE",
"314 -143 LINE SMOOTH",
"314 -179 OFFCURVE",
"300 -198 OFFCURVE",
"267 -198 CURVE",
"267 -236 LINE",
"327 -236 OFFCURVE",
"362 -205 OFFCURVE",
"362 -125 CURVE SMOOTH",
"362 -104 OFFCURVE",
"359 -78 OFFCURVE",
"352 -51 CURVE"
);
}
);
width = 615.00051;
}
);
leftMetricsKey = T;
rightMetricsKey = T;
unicode = 021A;
},
{
glyphname = U;
lastChange = "2021-09-01 17:33:15 +0000";
layers = (
{
anchors = (
{
name = ogonek;
position = "{430, 0}";
},
{
name = top;
position = "{357, 701}";
}
);
hints = (
{
place = "{80, 114}";
type = Stem;
},
{
place = "{529, 114}";
type = Stem;
},
{
horizontal = 1;
place = "{-7, 100}";
type = Stem;
},
{
horizontal = 1;
place = "{700, -20}";
target = down;
type = TopGhost;
}
);
layerId = "0CF0EA28-C756-4A9E-9D7C-CFEF350B4CFE";
paths = (
{
closed = 1;
nodes = (
"76 255 LINE SMOOTH",
"76 77 OFFCURVE",
"210 -7 OFFCURVE",
"356 -7 CURVE SMOOTH",
"501 -7 OFFCURVE",
"639 77 OFFCURVE",
"639 255 CURVE SMOOTH",
"639 700 LINE",
"525 700 LINE",
"525 253 LINE SMOOTH",
"525 144 OFFCURVE",
"454 90 OFFCURVE",
"357 90 CURVE SMOOTH",
"261 90 OFFCURVE",
"190 144 OFFCURVE",
"190 253 CURVE SMOOTH",
"190 700 LINE",
"76 700 LINE"
);
}
);
width = 715;
},
{
anchors = (
{
name = ogonek;
position = "{404, 0}";
},
{
name = top;
position = "{340, 679}";
}
);
hints = (
{
place = "{108, 22}";
type = Stem;
},
{
place = "{556, 22}";
type = Stem;
},
{
horizontal = 1;
place = "{-7, 21}";
target = up;
type = BottomGhost;
},
{
horizontal = 1;
place = "{700, -20}";
target = down;
type = TopGhost;
}
);
layerId = "6E968933-CD79-43C6-9231-80D77C940F4D";
paths = (
{
closed = 1;
nodes = (
"95 265 LINE SMOOTH",
"95 73 OFFCURVE",
"205 -7 OFFCURVE",
"343 -7 CURVE SMOOTH",
"481 -7 OFFCURVE",
"586 73 OFFCURVE",
"586 265 CURVE SMOOTH",
"586 700 LINE",
"564 700 LINE",
"564 265 LINE SMOOTH",
"564 80 OFFCURVE",
"465 13 OFFCURVE",
"343 13 CURVE SMOOTH",
"220 13 OFFCURVE",
"117 80 OFFCURVE",
"117 265 CURVE SMOOTH",
"117 700 LINE",
"95 700 LINE"
);
}
);
width = 681.00046;
},
{
anchors = (
{
name = ogonek;
position = "{437.25, 2}";
},
{
name = top;
position = "{354.25, 702}";
}
);
hints = (
{
place = "{50, 176}";
type = Stem;
},
{
place = "{486, 176}";
type = Stem;
},
{
horizontal = 1;
place = "{-7, 163}";
type = Stem;
},
{
horizontal = 1;
place = "{700, -20}";
target = down;
type = TopGhost;
}
);
layerId = "BAF31694-0472-4296-B0EA-1654553C45D2";
paths = (
{
closed = 1;
nodes = (
"52.25 284 LINE SMOOTH",
"52.25 90 OFFCURVE",
"188.25 -7 OFFCURVE",
"352.25 -7 CURVE SMOOTH",
"515.25 -7 OFFCURVE",
"662.25 90 OFFCURVE",
"662.25 284 CURVE SMOOTH",
"662.25 700 LINE",
"488.25 700 LINE",
"488.25 268 LINE SMOOTH",
"488.25 187 OFFCURVE",
"435.25 142 OFFCURVE",
"355.25 142 CURVE SMOOTH",
"276.25 142 OFFCURVE",
"226.25 187 OFFCURVE",
"226.25 268 CURVE SMOOTH",
"226.25 700 LINE",
"52.25 700 LINE"
);
}
);
width = 714.49981;
},
{
anchors = (
{
name = ogonek;
position = "{422.5, 0}";
},
{
name = top;
position = "{352.5, 693}";
}
);
hints = (
{
place = "{371, 80}";
type = Stem;
},
{
place = "{204, 71}";
type = Stem;
},
{
horizontal = 1;
place = "{-3, 21}";
target = up;
type = BottomGhost;
},
{
horizontal = 1;
place = "{700, -20}";
target = down;
type = TopGhost;
}
);
layerId = "9F107B1E-3A61-4335-981B-27DD48125C7E";
paths = (
{
closed = 1;
nodes = (
"85.5 259 LINE SMOOTH",
"85.5 76 OFFCURVE",
"210.5 -7 OFFCURVE",
"353.5 -7 CURVE SMOOTH",
"495.5 -7 OFFCURVE",
"621.5 76 OFFCURVE",
"621.5 259 CURVE SMOOTH",
"621.5 700 LINE",
"541.5 700 LINE",
"541.5 258 LINE SMOOTH",
"541.5 120 OFFCURVE",
"460.5 63 OFFCURVE",
"354.5 63 CURVE SMOOTH",
"247.5 63 OFFCURVE",
"165.5 120 OFFCURVE",
"165.5 258 CURVE SMOOTH",
"165.5 700 LINE",
"85.5 700 LINE"
);
}
);
width = 706.99755;
}
);
leftMetricsKey = "=H*0.95";
rightMetricsKey = "=H*0.95";
unicode = 0055;
},
{
glyphname = V;
lastChange = "2021-09-01 17:33:15 +0000";
layers = (
{
hints = (
{
horizontal = 1;
place = "{0, 21}";
target = up;
type = BottomGhost;
},
{
horizontal = 1;
place = "{700, -20}";
target = down;
type = TopGhost;
}
);
layerId = "0CF0EA28-C756-4A9E-9D7C-CFEF350B4CFE";
paths = (
{
closed = 1;
nodes = (
"354.167 117 LINE",
"147.667 700 LINE",
"26.667 700 LINE",
"288.167 0 LINE",
"420.167 0 LINE",
"681.667 700 LINE",
"560.667 700 LINE"
);
}
);
width = 708.33;
},
{
hints = (
{
horizontal = 1;
place = "{700, -20}";
target = down;
type = TopGhost;
},
{
horizontal = 1;
place = "{0, 21}";
target = up;
type = BottomGhost;
}
);
layerId = "6E968933-CD79-43C6-9231-80D77C940F4D";
paths = (
{
closed = 1;
nodes = (
"313.336 32 LINE",
"58.336 700 LINE",
"33.336 700 LINE",
"302.336 0 LINE",
"324.336 0 LINE",
"594.336 700 LINE",
"570.336 700 LINE"
);
}
);
width = 627.6683;
},
{
hints = (
{
horizontal = 1;
place = "{0, 21}";
target = up;
type = BottomGhost;
},
{
horizontal = 1;
place = "{700, -20}";
target = down;
type = TopGhost;
}
);
layerId = "BAF31694-0472-4296-B0EA-1654553C45D2";
paths = (
{
closed = 1;
nodes = (
"376.83 176 LINE",
"205.33 700 LINE",
"18.33 700 LINE",
"266.33 0 LINE",
"487.33 0 LINE",
"735.33 700 LINE",
"548.33 700 LINE"
);
}
);
width = 753.66812;
},
{
hints = (
{
horizontal = 1;
place = "{700, -20}";
target = down;
type = TopGhost;
},
{
horizontal = 1;
place = "{0, 21}";
target = up;
type = BottomGhost;
}
);
layerId = "9F107B1E-3A61-4335-981B-27DD48125C7E";
paths = (
{
closed = 1;
nodes = (
"340 85 LINE",
"115 700 LINE",
"30 700 LINE",
"292 0 LINE",
"384 0 LINE",
"650 700 LINE",
"565 700 LINE"
);
}
);
width = 679.99769;
}
);
leftMetricsKey = "=H/3";
rightMetricsKey = "=H/3";
unicode = 0056;
},
{
glyphname = W;
lastChange = "2021-09-01 17:33:15 +0000";
layers = (
{
hints = (
{
horizontal = 1;
place = "{700, -20}";
target = down;
type = TopGhost;
}
);
layerId = "0CF0EA28-C756-4A9E-9D7C-CFEF350B4CFE";
paths = (
{
closed = 1;
nodes = (
"507.17 529 LINE",
"657.67 0 LINE",
"786.17 0 LINE",
"987.67 700 LINE",
"866.17 700 LINE",
"721.67 132 LINE",
"571.17 700 LINE",
"443.17 700 LINE",
"292.67 130 LINE",
"148.17 700 LINE",
"26.67 700 LINE",
"228.17 0 LINE",
"356.67 0 LINE"
);
}
);
width = 1014.33;
},
{
hints = (
{
horizontal = 1;
place = "{700, -20}";
target = down;
type = TopGhost;
},
{
horizontal = 1;
place = "{0, 21}";
target = up;
type = BottomGhost;
}
);
layerId = "6E968933-CD79-43C6-9231-80D77C940F4D";
paths = (
{
closed = 1;
nodes = (
"451.94 664 LINE",
"659.84 0 LINE",
"680.84 0 LINE",
"870.34 700 LINE",
"845.84 700 LINE",
"669.84 41 LINE",
"463.84 700 LINE",
"439.84 700 LINE",
"233.84 41 LINE",
"57.84 700 LINE",
"33.34 700 LINE",
"222.84 0 LINE",
"243.84 0 LINE"
);
}
);
width = 903.67298;
},
{
hints = (
{
horizontal = 1;
place = "{700, -20}";
target = down;
type = TopGhost;
}
);
layerId = "BAF31694-0472-4296-B0EA-1654553C45D2";
paths = (
{
closed = 1;
nodes = (
"521.83 453 LINE",
"632.83 0 LINE",
"846.33 0 LINE",
"1025.33 700 LINE",
"835.83 700 LINE",
"737.33 206 LINE",
"620.33 700 LINE",
"426.33 700 LINE",
"306.33 205 LINE",
"207.83 700 LINE",
"18.33 700 LINE",
"197.33 0 LINE",
"410.83 0 LINE"
);
}
);
width = 1043.6667;
},
{
hints = (
{
horizontal = 1;
place = "{700, -20}";
target = down;
type = TopGhost;
},
{
horizontal = 1;
place = "{0, 21}";
target = up;
type = BottomGhost;
}
);
layerId = "9F107B1E-3A61-4335-981B-27DD48125C7E";
paths = (
{
closed = 1;
nodes = (
"487 580 LINE",
"659 0 LINE",
"747 0 LINE",
"944 700 LINE",
"859.5 700 LINE",
"703 98 LINE",
"531.5 700 LINE",
"442.5 700 LINE",
"271 97 LINE",
"114.5 700 LINE",
"30 700 LINE",
"227 0 LINE",
"315 0 LINE"
);
}
);
width = 974.00362;
}
);
leftMetricsKey = V;
rightMetricsKey = V;
unicode = 0057;
},
{
glyphname = X;
lastChange = "2021-09-01 17:33:15 +0000";
layers = (
{
hints = (
{
horizontal = 1;
place = "{700, -20}";
target = down;
type = TopGhost;
},
{
horizontal = 1;
place = "{0, 21}";
target = up;
type = BottomGhost;
}
);
layerId = "0CF0EA28-C756-4A9E-9D7C-CFEF350B4CFE";
paths = (
{
closed = 1;
nodes = (
"484.278 0 LINE",
"612.278 0 LINE",
"180.278 700 LINE",
"53.278 700 LINE"
);
},
{
closed = 1;
nodes = (
"288.278 380 LINE",
"54.278 0 LINE",
"180.278 0 LINE",
"349.278 292 LINE"
);
},
{
closed = 1;
nodes = (
"378.278 319 LINE",
"613.278 700 LINE",
"486.278 700 LINE",
"317.278 408 LINE"
);
}
);
width = 666.556;
},
{
hints = (
{
horizontal = 1;
place = "{700, -20}";
target = down;
type = TopGhost;
},
{
horizontal = 1;
place = "{0, 21}";
target = up;
type = BottomGhost;
}
);
layerId = "6E968933-CD79-43C6-9231-80D77C940F4D";
paths = (
{
closed = 1;
nodes = (
"483.596 0 LINE",
"508.596 0 LINE",
"91.596 700 LINE",
"66.596 700 LINE"
);
},
{
closed = 1;
nodes = (
"280.596 369 LINE",
"66.596 0 LINE",
"91.596 0 LINE",
"297.596 358 LINE"
);
},
{
closed = 1;
nodes = (
"296.596 345 LINE",
"508.596 700 LINE",
"483.596 700 LINE",
"279.596 356 LINE"
);
}
);
width = 575.1945;
},
{
hints = (
{
horizontal = 1;
place = "{700, -20}";
target = down;
type = TopGhost;
},
{
horizontal = 1;
place = "{0, 21}";
target = up;
type = BottomGhost;
}
);
layerId = "BAF31694-0472-4296-B0EA-1654553C45D2";
paths = (
{
closed = 1;
nodes = (
"508.63 0 LINE",
"714.63 0 LINE",
"242.63 700 LINE",
"36.63 700 LINE"
);
},
{
closed = 1;
nodes = (
"295.63 398 LINE",
"42.63 0 LINE",
"242.63 0 LINE",
"396.63 262 LINE"
);
},
{
closed = 1;
nodes = (
"451.63 302 LINE",
"704.63 700 LINE",
"504.63 700 LINE",
"350.63 438 LINE"
);
}
);
width = 751.26616;
},
{
hints = (
{
horizontal = 1;
place = "{700, -20}";
target = down;
type = TopGhost;
},
{
horizontal = 1;
place = "{0, 21}";
target = up;
type = BottomGhost;
}
);
layerId = "9F107B1E-3A61-4335-981B-27DD48125C7E";
paths = (
{
closed = 1;
nodes = (
"484.94 0 LINE",
"574.94 0 LINE",
"147.94 700 LINE",
"59.94 700 LINE"
);
},
{
closed = 1;
nodes = (
"286.94 376 LINE",
"59.94 0 LINE",
"147.94 0 LINE",
"330.94 317 LINE"
);
},
{
closed = 1;
nodes = (
"348.94 329 LINE",
"574.94 700 LINE",
"486.94 700 LINE",
"303.94 389 LINE"
);
}
);
width = 634.87835;
}
);
leftMetricsKey = "=H*0.666";
rightMetricsKey = "=H*0.666";
unicode = 0058;
},
{
glyphname = Y;
lastChange = "2021-09-01 17:33:15 +0000";
layers = (
{
anchors = (
{
name = top;
position = "{313.67, 701}";
}
);
hints = (
{
place = "{259, 114}";
type = Stem;
},
{
horizontal = 1;
place = "{700, -20}";
target = down;
type = TopGhost;
},
{
horizontal = 1;
place = "{0, 21}";
target = up;
type = BottomGhost;
}
);
layerId = "0CF0EA28-C756-4A9E-9D7C-CFEF350B4CFE";
paths = (
{
closed = 1;
nodes = (
"313.67 356 LINE",
"152.67 700 LINE",
"26.67 700 LINE",
"256.67 253 LINE",
"256.67 0 LINE",
"370.67 0 LINE",
"370.67 254 LINE",
"601.67 700 LINE",
"474.67 700 LINE"
);
}
);
width = 628.33;
},
{
anchors = (
{
name = top;
position = "{264.34, 679}";
}
);
hints = (
{
place = "{255, 22}";
type = Stem;
},
{
horizontal = 1;
place = "{700, -20}";
target = down;
type = TopGhost;
},
{
horizontal = 1;
place = "{0, 21}";
target = up;
type = BottomGhost;
}
);
layerId = "6E968933-CD79-43C6-9231-80D77C940F4D";
paths = (
{
closed = 1;
nodes = (
"264.34 316 LINE",
"57.34 700 LINE",
"33.34 700 LINE",
"253.34 294 LINE",
"253.34 0 LINE",
"275.34 0 LINE",
"275.34 294 LINE",
"493.34 700 LINE",
"471.34 700 LINE"
);
}
);
width = 526.67489;
},
{
anchors = (
{
name = top;
position = "{350.83, 702}";
}
);
hints = (
{
place = "{263, 176}";
type = Stem;
},
{
horizontal = 1;
place = "{700, -20}";
target = down;
type = TopGhost;
},
{
horizontal = 1;
place = "{0, 21}";
target = up;
type = BottomGhost;
}
);
layerId = "BAF31694-0472-4296-B0EA-1654553C45D2";
paths = (
{
closed = 1;
nodes = (
"350.83 411 LINE",
"217.33 700 LINE",
"18.33 700 LINE",
"263.83 230 LINE",
"263.83 0 LINE",
"437.83 0 LINE",
"437.83 230 LINE",
"683.33 700 LINE",
"484.33 700 LINE"
);
}
);
width = 701.67151;
},
{
anchors = (
{
name = top;
position = "{296, 693}";
}
);
hints = (
{
place = "{258, 80}";
type = Stem;
},
{
horizontal = 1;
place = "{700, -20}";
target = down;
type = TopGhost;
},
{
horizontal = 1;
place = "{0, 21}";
target = up;
type = BottomGhost;
}
);
layerId = "9F107B1E-3A61-4335-981B-27DD48125C7E";
paths = (
{
closed = 1;
nodes = (
"296 345 LINE",
"119 700 LINE",
"30 700 LINE",
"256 268 LINE",
"256 0 LINE",
"336 0 LINE",
"336 269 LINE",
"562 700 LINE",
"473 700 LINE"
);
}
);
width = 591.99933;
}
);
leftMetricsKey = V;
rightMetricsKey = V;
unicode = 0059;
},
{
glyphname = Z;
lastChange = "2021-09-01 17:33:15 +0000";
layers = (
{
anchors = (
{
name = top;
position = "{282.278, 701}";
}
);
hints = (
{
horizontal = 1;
place = "{0, 99}";
type = Stem;
},
{
horizontal = 1;
place = "{601, 100}";
type = Stem;
}
);
layerId = "0CF0EA28-C756-4A9E-9D7C-CFEF350B4CFE";
paths = (
{
closed = 1;
nodes = (
"551.278 700 LINE",
"53.278 700 LINE",
"53.278 605 LINE",
"415.278 605 LINE",
"53.278 85 LINE",
"53.278 0 LINE",
"551.278 0 LINE",
"551.278 95 LINE",
"188.278 95 LINE",
"551.278 615 LINE"
);
}
);
width = 604.558;
},
{
anchors = (
{
name = top;
position = "{276.596, 679}";
}
);
hints = (
{
horizontal = 1;
place = "{678, 22}";
type = Stem;
},
{
horizontal = 1;
place = "{0, 21}";
target = up;
type = BottomGhost;
}
);
layerId = "6E968933-CD79-43C6-9231-80D77C940F4D";
paths = (
{
closed = 1;
nodes = (
"514.596 700 LINE",
"78.596 700 LINE",
"78.596 678 LINE",
"490.596 678 LINE",
"66.596 20 LINE",
"66.596 0 LINE",
"524.596 0 LINE",
"524.596 21 LINE",
"90.596 21 LINE",
"514.596 679 LINE"
);
}
);
width = 591.19681;
},
{
anchors = (
{
name = top;
position = "{285.63, 702}";
}
);
hints = (
{
horizontal = 1;
place = "{0, 144}";
type = Stem;
},
{
horizontal = 1;
place = "{557, 144}";
type = Stem;
}
);
layerId = "BAF31694-0472-4296-B0EA-1654553C45D2";
paths = (
{
closed = 1;
nodes = (
"575.63 700 LINE",
"36.63 700 LINE",
"36.63 554 LINE",
"372.63 554 LINE",
"36.63 136 LINE",
"36.63 0 LINE",
"575.63 0 LINE",
"575.63 146 LINE",
"236.63 146 LINE",
"575.63 563 LINE"
);
}
);
width = 612.26205;
},
{
anchors = (
{
name = top;
position = "{280.94, 693}";
}
);
hints = (
{
horizontal = 1;
place = "{630, 71}";
type = Stem;
},
{
horizontal = 1;
place = "{0, 21}";
target = up;
type = BottomGhost;
}
);
layerId = "9F107B1E-3A61-4335-981B-27DD48125C7E";
paths = (
{
closed = 1;
nodes = (
"538.94 700 LINE",
"63.94 700 LINE",
"63.94 630 LINE",
"444.94 630 LINE",
"59.94 63 LINE",
"59.94 0 LINE",
"542.94 0 LINE",
"542.94 70 LINE",
"152.94 70 LINE",
"538.94 637 LINE"
);
}
);
width = 602.8773;
}
);
leftMetricsKey = "=H*0.666";
rightMetricsKey = "=H*0.666";
unicode = 005A;
},
{
glyphname = a;
lastChange = "2021-09-01 17:33:15 +0000";
layers = (
{
anchors = (
{
name = ogonek;
position = "{462.493, 0}";
},
{
name = top;
position = "{271.493, 510}";
}
);
guideLines = (
{
position = "{-2.509, 81.65}";
showMeasurement = 1;
},
{
position = "{-2.509, 419.86}";
},
{
position = "{-2.509, 299}";
},
{
position = "{-2.509, 207}";
}
);
hints = (
{
place = "{48, 117}";
type = Stem;
},
{
place = "{359, 116}";
type = Stem;
},
{
horizontal = 1;
place = "{-9, 99}";
type = Stem;
},
{
horizontal = 1;
place = "{411, 98}";
type = Stem;
}
);
layerId = "0CF0EA28-C756-4A9E-9D7C-CFEF350B4CFE";
paths = (
{
closed = 1;
nodes = (
"470.493 0 LINE",
"470.493 334.816 LINE SMOOTH",
"470.493 434.816 OFFCURVE",
"401.151 507 OFFCURVE",
"273.357 507 CURVE SMOOTH",
"165.493 507 OFFCURVE",
"87.856 455.575 OFFCURVE",
"62.493 367 CURVE",
"157.493 332 LINE",
"171.8 385.721 OFFCURVE",
"213.493 412 OFFCURVE",
"267.53 412 CURVE SMOOTH",
"328.263 412 OFFCURVE",
"356.493 378.844 OFFCURVE",
"356.493 346.168 CURVE SMOOTH",
"356.493 322.269 OFFCURVE",
"341.387 310.204 OFFCURVE",
"307.742 304.357 CURVE SMOOTH",
"225.537 290.228 LINE SMOOTH",
"137.675 275.231 OFFCURVE",
"44.493 242.003 OFFCURVE",
"44.493 134.984 CURVE SMOOTH",
"44.493 42.599 OFFCURVE",
"113.966 -7 OFFCURVE",
"213.271 -7 CURVE SMOOTH",
"285.493 -7 OFFCURVE",
"324.735 19.235 OFFCURVE",
"356.493 61 CURVE",
"365.493 0 LINE"
);
},
{
closed = 1;
nodes = (
"356.493 214 LINE SMOOTH",
"356.493 130 OFFCURVE",
"302.141 89 OFFCURVE",
"232.184 89 CURVE SMOOTH",
"189.969 89 OFFCURVE",
"158.493 103.93 OFFCURVE",
"158.493 140.324 CURVE SMOOTH",
"158.493 173 OFFCURVE",
"183.753 194.275 OFFCURVE",
"238.642 202.92 CURVE SMOOTH",
"308.866 214.542 LINE SMOOTH",
"331.968 218.365 OFFCURVE",
"349.393 224.362 OFFCURVE",
"356.493 230 CURVE"
);
}
);
width = 535.2902;
},
{
anchors = (
{
name = ogonek;
position = "{438.001, 0}";
},
{
name = top;
position = "{262.616, 505}";
}
);
hints = (
{
place = "{66, 22}";
type = Stem;
},
{
horizontal = 1;
place = "{-6, 21}";
target = up;
type = BottomGhost;
},
{
horizontal = 1;
place = "{497, -20}";
target = down;
type = TopGhost;
}
);
layerId = "6E968933-CD79-43C6-9231-80D77C940F4D";
paths = (
{
closed = 1;
nodes = (
"444.001 0 LINE",
"444.001 349 LINE SMOOTH",
"444.001 454.927 OFFCURVE",
"372.984 507 OFFCURVE",
"264.414 507 CURVE SMOOTH",
"165.616 507 OFFCURVE",
"96.625 463.883 OFFCURVE",
"72.616 367 CURVE",
"91.616 360 LINE",
"112.506 452.611 OFFCURVE",
"183.616 487 OFFCURVE",
"266.642 487 CURVE SMOOTH",
"373.629 487 OFFCURVE",
"422.001 429.899 OFFCURVE",
"422.001 348.874 CURVE SMOOTH",
"422.001 313.2 OFFCURVE",
"407.42 295.236 OFFCURVE",
"353.689 287.713 CURVE SMOOTH",
"247.616 275 LINE SMOOTH",
"192.615 268.981 OFFCURVE",
"55.616 250 OFFCURVE",
"55.616 125.657 CURVE SMOOTH",
"55.616 36.762 OFFCURVE",
"125.616 -7 OFFCURVE",
"223.334 -7 CURVE SMOOTH",
"328.616 -7 OFFCURVE",
"396.897 43.799 OFFCURVE",
"422.001 138 CURVE",
"422.001 0 LINE"
);
},
{
closed = 1;
nodes = (
"422.001 234 LINE SMOOTH",
"422.001 105.997 OFFCURVE",
"352.191 13 OFFCURVE",
"220.532 13 CURVE SMOOTH",
"140.717 13 OFFCURVE",
"77.616 47.181 OFFCURVE",
"77.616 126.096 CURVE SMOOTH",
"77.616 208 OFFCURVE",
"145.646 242.623 OFFCURVE",
"246.616 254.72 CURVE SMOOTH",
"353.027 267.469 LINE SMOOTH",
"386.793 271.515 OFFCURVE",
"411.9 279.484 OFFCURVE",
"422.001 290.481 CURVE"
);
}
);
width = 525.00027;
},
{
anchors = (
{
name = ogonek;
position = "{488.591, 0}";
},
{
name = top;
position = "{268.591, 499}";
}
);
hints = (
{
place = "{20, 50}";
type = Stem;
},
{
place = "{152, 49}";
type = Stem;
},
{
horizontal = 1;
place = "{167, 170}";
type = Stem;
},
{
horizontal = 1;
place = "{366, 143}";
type = Stem;
}
);
layerId = "BAF31694-0472-4296-B0EA-1654553C45D2";
paths = (
{
closed = 1;
nodes = (
"497.591 0 LINE",
"497.591 312 LINE SMOOTH",
"497.591 434 OFFCURVE",
"412.292 507 OFFCURVE",
"273.176 507 CURVE SMOOTH",
"165.591 507 OFFCURVE",
"88.809 463.341 OFFCURVE",
"56.591 370 CURVE",
"195.591 320 LINE",
"205.902 353.501 OFFCURVE",
"232.591 373 OFFCURVE",
"267.298 373 CURVE SMOOTH",
"305.729 373 OFFCURVE",
"323.591 347.799 OFFCURVE",
"323.591 329.226 CURVE SMOOTH",
"323.591 313.668 OFFCURVE",
"311.076 302.916 OFFCURVE",
"295.395 300.201 CURVE SMOOTH",
"213.725 286.062 LINE SMOOTH",
"109.561 268.029 OFFCURVE",
"30.591 233.895 OFFCURVE",
"30.591 137.28 CURVE SMOOTH",
"30.591 43.78 OFFCURVE",
"104.591 -7 OFFCURVE",
"191.753 -7 CURVE SMOOTH",
"256.591 -7 OFFCURVE",
"287.724 21.134 OFFCURVE",
"323.591 62 CURVE",
"334.591 0 LINE"
);
},
{
closed = 1;
nodes = (
"323.591 200 LINE SMOOTH",
"323.591 146.035 OFFCURVE",
"294.174 119 OFFCURVE",
"250.406 119 CURVE SMOOTH",
"221.16 119 OFFCURVE",
"198.591 129.498 OFFCURVE",
"198.591 154.803 CURVE SMOOTH",
"198.591 174.49 OFFCURVE",
"211.805 190.919 OFFCURVE",
"240.271 195.907 CURVE SMOOTH",
"291.591 204.9 LINE SMOOTH",
"302.861 206.875 OFFCURVE",
"314.784 209.61 OFFCURVE",
"323.591 214 CURVE"
);
}
);
width = 542.15468;
},
{
anchors = (
{
name = ogonek;
position = "{459.007, 0}";
},
{
name = top;
position = "{270.062, 508}";
}
);
hints = (
{
place = "{282, 70}";
type = Stem;
},
{
horizontal = 1;
place = "{-2, 21}";
target = up;
type = BottomGhost;
},
{
horizontal = 1;
place = "{186, -20}";
target = down;
type = TopGhost;
}
);
layerId = "9F107B1E-3A61-4335-981B-27DD48125C7E";
paths = (
{
closed = 1;
nodes = (
"463.007 0 LINE",
"463.007 338 LINE SMOOTH",
"463.007 439.821 OFFCURVE",
"390.145 507 OFFCURVE",
"272.182 507 CURVE SMOOTH",
"167.062 507 OFFCURVE",
"95.329 453.655 OFFCURVE",
"70.062 367 CURVE",
"138.062 343 LINE",
"155.337 405.431 OFFCURVE",
"204.062 436 OFFCURVE",
"269.787 436 CURVE SMOOTH",
"348.643 436 OFFCURVE",
"383.062 392 OFFCURVE",
"383.062 345.065 CURVE",
"383.062 318.763 OFFCURVE",
"368.777 303.831 OFFCURVE",
"331.448 299.083 CURVE SMOOTH",
"230.983 286.304 LINE SMOOTH",
"144.284 275.276 OFFCURVE",
"50.062 241 OFFCURVE",
"50.062 134.949 CURVE SMOOTH",
"50.062 43.441 OFFCURVE",
"120.062 -7 OFFCURVE",
"219.201 -7 CURVE SMOOTH",
"303.062 -7 OFFCURVE",
"354.129 29.092 OFFCURVE",
"383.062 90 CURVE",
"389.062 0 LINE"
);
},
{
closed = 1;
nodes = (
"383.062 224 LINE SMOOTH",
"383.062 135 OFFCURVE",
"326.154 63 OFFCURVE",
"227.892 63 CURVE SMOOTH",
"173.062 63 OFFCURVE",
"130.062 85.418 OFFCURVE",
"130.062 139.191 CURVE SMOOTH",
"130.062 186 OFFCURVE",
"162.266 212.504 OFFCURVE",
"230.891 221.339 CURVE SMOOTH",
"335.062 234.75 LINE SMOOTH",
"360.892 238.075 OFFCURVE",
"376.646 243.766 OFFCURVE",
"383.062 248.5 CURVE"
);
}
);
width = 535.90223;
},
{
associatedMasterId = "6E968933-CD79-43C6-9231-80D77C940F4D";
layerId = "6E4CF43C-7357-46F6-B177-E4D44CE7ABF2";
width = 600;
},
{
associatedMasterId = "6E968933-CD79-43C6-9231-80D77C940F4D";
layerId = "0AB37D12-DD1B-4F6C-A243-298BB94F98F2";
width = 600;
}
);
leftMetricsKey = "=l*0.618";
rightMetricsKey = "=l*0.9";
unicode = 0061;
},
{
glyphname = ae;
lastChange = "2021-09-01 17:33:15 +0000";
layers = (
{
anchors = (
{
name = bottom;
position = "{608.36, 5}";
},
{
name = ogonek;
position = "{694.36, 5}";
},
{
name = right;
position = "{3396.36, 238}";
},
{
name = top;
position = "{608.36, 496}";
}
);
guideLines = (
{
position = "{0.72, 426.08}";
}
);
hints = (
{
place = "{48, 117}";
type = Stem;
},
{
place = "{727, 119}";
type = Stem;
},
{
horizontal = 1;
place = "{-9, 97}";
type = Stem;
},
{
horizontal = 1;
place = "{207, 92}";
type = Stem;
},
{
horizontal = 1;
place = "{411, 97}";
type = Stem;
},
{
horizontal = 1;
place = "{413, 96}";
type = Stem;
},
{
horizontal = 1;
place = "{-9, 99}";
type = Stem;
},
{
place = "{48, 117}";
type = Stem;
},
{
place = "{359, 116}";
type = Stem;
},
{
horizontal = 1;
place = "{-9, 99}";
type = Stem;
},
{
horizontal = 1;
place = "{411, 98}";
type = Stem;
},
{
place = "{727.25, 119}";
type = Stem;
},
{
horizontal = 1;
place = "{-8, 96}";
type = Stem;
},
{
horizontal = 1;
place = "{207, 92}";
type = Stem;
},
{
horizontal = 1;
place = "{413, 96}";
type = Stem;
},
{
place = "{46, 117}";
type = Stem;
},
{
place = "{357, 116}";
type = Stem;
},
{
horizontal = 1;
place = "{-9, 99}";
type = Stem;
},
{
horizontal = 1;
place = "{411, 98}";
type = Stem;
}
);
layerId = "0CF0EA28-C756-4A9E-9D7C-CFEF350B4CFE";
paths = (
{
closed = 1;
nodes = (
"709.36 -7 OFFCURVE",
"785.36 44 OFFCURVE",
"824.36 121 CURVE",
"729.36 153 LINE",
"707.36 108 OFFCURVE",
"663.36 90 OFFCURVE",
"594.36 90 CURVE SMOOTH",
"525.36 90 OFFCURVE",
"473.36 133 OFFCURVE",
"466.36 207 CURVE",
"830.36 207 LINE",
"834.36 228 OFFCURVE",
"835.36 245 OFFCURVE",
"835.36 262 CURVE SMOOTH",
"835.36 410 OFFCURVE",
"737.36 507 OFFCURVE",
"594.36 507 CURVE SMOOTH",
"445.36 507 OFFCURVE",
"358.36 409 OFFCURVE",
"358.36 252 CURVE SMOOTH",
"358.36 96 OFFCURVE",
"453.36 -7 OFFCURVE",
"597.36 -7 CURVE SMOOTH"
);
},
{
closed = 1;
nodes = (
"470.36 299 LINE",
"482.36 368 OFFCURVE",
"530.36 412 OFFCURVE",
"592.36 412 CURVE SMOOTH",
"663.36 412 OFFCURVE",
"716.36 371 OFFCURVE",
"719.36 299 CURVE"
);
},
{
closed = 1;
nodes = (
"465.493 222.189 LINE",
"465.493 334.816 LINE SMOOTH",
"465.493 434.816 OFFCURVE",
"401.151 507 OFFCURVE",
"273.357 507 CURVE SMOOTH",
"165.493 507 OFFCURVE",
"87.856 455.575 OFFCURVE",
"62.493 367 CURVE",
"157.493 332 LINE",
"171.8 385.721 OFFCURVE",
"213.493 412 OFFCURVE",
"267.53 412 CURVE SMOOTH",
"328.263 412 OFFCURVE",
"356.493 378.844 OFFCURVE",
"356.493 346.168 CURVE SMOOTH",
"356.493 322.269 OFFCURVE",
"341.398 310.142 OFFCURVE",
"307.742 304.357 CURVE SMOOTH",
"225.537 290.228 LINE SMOOTH",
"137.692 275.13 OFFCURVE",
"44.493 242.003 OFFCURVE",
"44.493 134.984 CURVE SMOOTH",
"44.493 42.599 OFFCURVE",
"113.966 -7 OFFCURVE",
"213.271 -7 CURVE SMOOTH",
"294.493 -7 OFFCURVE",
"393.953 29.834 OFFCURVE",
"429.941 127.679 CURVE",
"421.04 197.44 LINE"
);
},
{
closed = 1;
nodes = (
"356.493 214 LINE SMOOTH",
"356.493 130 OFFCURVE",
"302.141 89 OFFCURVE",
"232.184 89 CURVE SMOOTH",
"189.969 89 OFFCURVE",
"158.493 103.93 OFFCURVE",
"158.493 140.324 CURVE SMOOTH",
"158.493 173 OFFCURVE",
"183.822 193.847 OFFCURVE",
"238.642 202.92 CURVE SMOOTH",
"308.866 214.542 LINE SMOOTH",
"331.968 218.365 OFFCURVE",
"349.393 224.362 OFFCURVE",
"356.493 230 CURVE"
);
}
);
width = 878.5642;
},
{
anchors = (
{
name = bottom;
position = "{659.847, 1}";
},
{
name = ogonek;
position = "{701.847, -3}";
},
{
name = right;
position = "{3553.847, 243}";
},
{
name = top;
position = "{659.847, 501}";
}
);
hints = (
{
place = "{61, 22}";
type = Stem;
},
{
place = "{430, 23}";
type = Stem;
},
{
place = "{859, 22}";
type = Stem;
},
{
horizontal = 1;
place = "{497, -20}";
target = down;
type = TopGhost;
},
{
horizontal = 1;
place = "{-6, 21}";
target = up;
type = BottomGhost;
},
{
place = "{66, 22}";
type = Stem;
},
{
horizontal = 1;
place = "{-6, 21}";
target = up;
type = BottomGhost;
},
{
horizontal = 1;
place = "{497, -20}";
target = down;
type = TopGhost;
},
{
place = "{427.847, 22}";
type = Stem;
},
{
place = "{860.847, 22}";
type = Stem;
},
{
horizontal = 1;
place = "{497, -20}";
target = down;
type = TopGhost;
},
{
horizontal = 1;
place = "{-6, 21}";
target = up;
type = BottomGhost;
},
{
place = "{65, 22}";
type = Stem;
},
{
horizontal = 1;
place = "{-6, 21}";
target = up;
type = BottomGhost;
},
{
horizontal = 1;
place = "{497, -20}";
target = down;
type = TopGhost;
}
);
layerId = "6E968933-CD79-43C6-9231-80D77C940F4D";
paths = (
{
closed = 1;
nodes = (
"765.847 -7 OFFCURVE",
"840.847 48 OFFCURVE",
"872.847 129 CURVE",
"854.847 136 LINE",
"822.847 58 OFFCURVE",
"750.847 13 OFFCURVE",
"653.847 13 CURVE SMOOTH",
"544.847 13 OFFCURVE",
"444.847 85 OFFCURVE",
"442.847 250 CURVE",
"879.847 250 LINE",
"880.847 267 OFFCURVE",
"879.847 281 OFFCURVE",
"879.847 291 CURVE SMOOTH",
"879.847 398 OFFCURVE",
"806.847 507 OFFCURVE",
"653.847 507 CURVE SMOOTH",
"514.847 507 OFFCURVE",
"423.847 412 OFFCURVE",
"423.847 255 CURVE SMOOTH",
"423.847 94 OFFCURVE",
"514.847 -7 OFFCURVE",
"653.847 -7 CURVE SMOOTH"
);
},
{
closed = 1;
nodes = (
"442.847 270 LINE",
"447.847 421 OFFCURVE",
"546.847 487 OFFCURVE",
"653.847 487 CURVE SMOOTH",
"767.847 487 OFFCURVE",
"867.847 411 OFFCURVE",
"857.847 270 CURVE"
);
},
{
closed = 1;
nodes = (
"440.001 259.598 LINE",
"440.001 349 LINE SMOOTH",
"440.001 454.927 OFFCURVE",
"372.984 507 OFFCURVE",
"264.414 507 CURVE SMOOTH",
"165.616 507 OFFCURVE",
"96.625 463.883 OFFCURVE",
"72.616 367 CURVE",
"91.616 360 LINE",
"112.506 452.611 OFFCURVE",
"183.616 487 OFFCURVE",
"266.642 487 CURVE SMOOTH",
"373.629 487 OFFCURVE",
"422.001 429.899 OFFCURVE",
"422.001 348.874 CURVE SMOOTH",
"422.001 313.2 OFFCURVE",
"407.559 294.169 OFFCURVE",
"353.689 287.713 CURVE SMOOTH",
"247.616 275 LINE SMOOTH",
"192.68 268.416 OFFCURVE",
"55.616 250 OFFCURVE",
"55.616 125.657 CURVE SMOOTH",
"55.616 36.762 OFFCURVE",
"125.616 -7 OFFCURVE",
"223.334 -7 CURVE SMOOTH",
"328.616 -7 OFFCURVE",
"413.028 46.71 OFFCURVE",
"437.445 180.098 CURVE",
"431.23 250 LINE"
);
},
{
closed = 1;
nodes = (
"422.001 234 LINE SMOOTH",
"422.001 105.997 OFFCURVE",
"352.191 13 OFFCURVE",
"220.532 13 CURVE SMOOTH",
"140.717 13 OFFCURVE",
"77.616 47.181 OFFCURVE",
"77.616 126.096 CURVE SMOOTH",
"77.616 208 OFFCURVE",
"145.646 242.623 OFFCURVE",
"246.616 254.72 CURVE SMOOTH",
"353.027 267.469 LINE SMOOTH",
"386.793 271.515 OFFCURVE",
"411.9 279.484 OFFCURVE",
"422.001 290.481 CURVE"
);
}
);
width = 934.28927;
},
{
anchors = (
{
name = bottom;
position = "{575.375, 8}";
},
{
name = ogonek;
position = "{565.766, 145.805}";
},
{
name = right;
position = "{3262.375, 236}";
},
{
name = top;
position = "{267.591, 499}";
}
);
hints = (
{
place = "{20, 50}";
type = Stem;
},
{
place = "{309, 51}";
type = Stem;
},
{
horizontal = 1;
place = "{-4, 41}";
type = Stem;
},
{
horizontal = 1;
place = "{84, 141}";
type = Stem;
},
{
horizontal = 1;
place = "{291, 106}";
type = Stem;
},
{
horizontal = 1;
place = "{365, 143}";
type = Stem;
},
{
horizontal = 1;
place = "{-9, 134}";
type = Stem;
},
{
place = "{20, 50}";
type = Stem;
},
{
place = "{152, 49}";
type = Stem;
},
{
horizontal = 1;
place = "{167, 170}";
type = Stem;
},
{
horizontal = 1;
place = "{366, 143}";
type = Stem;
},
{
place = "{468.675, 51}";
type = Stem;
},
{
horizontal = 1;
place = "{-7, 142}";
type = Stem;
},
{
horizontal = 1;
place = "{205, 104}";
type = Stem;
},
{
horizontal = 1;
place = "{370, 138}";
type = Stem;
},
{
place = "{21, 50}";
type = Stem;
},
{
place = "{153, 49}";
type = Stem;
},
{
horizontal = 1;
place = "{167, 170}";
type = Stem;
},
{
horizontal = 1;
place = "{366, 143}";
type = Stem;
}
);
layerId = "BAF31694-0472-4296-B0EA-1654553C45D2";
paths = (
{
closed = 1;
nodes = (
"678.375 -6 OFFCURVE",
"761.375 40 OFFCURVE",
"804.375 139 CURVE",
"656.375 176 LINE",
"639.375 147 OFFCURVE",
"613.375 133 OFFCURVE",
"570.375 133 CURVE SMOOTH",
"531.375 133 OFFCURVE",
"491.375 162 OFFCURVE",
"482.375 206 CURVE",
"807.375 206 LINE",
"810.375 227 OFFCURVE",
"811.375 244 OFFCURVE",
"811.375 258 CURVE SMOOTH",
"811.375 411 OFFCURVE",
"708.375 507 OFFCURVE",
"560.375 507 CURVE SMOOTH",
"409.375 507 OFFCURVE",
"323.375 414 OFFCURVE",
"323.375 256 CURVE SMOOTH",
"323.375 97 OFFCURVE",
"413.375 -7 OFFCURVE",
"561.375 -7 CURVE SMOOTH"
);
},
{
closed = 1;
nodes = (
"484.375 302 LINE",
"488.375 340 OFFCURVE",
"519.385 371.163 OFFCURVE",
"559.375 372 CURVE SMOOTH",
"602.377 372.9 OFFCURVE",
"630.375 341 OFFCURVE",
"632.375 302 CURVE"
);
},
{
closed = 1;
nodes = (
"477.591 216.938 LINE",
"477.591 312 LINE SMOOTH",
"477.591 434 OFFCURVE",
"412.292 507 OFFCURVE",
"273.176 507 CURVE SMOOTH",
"165.591 507 OFFCURVE",
"88.809 463.341 OFFCURVE",
"56.591 370 CURVE",
"195.591 320 LINE",
"205.902 353.501 OFFCURVE",
"232.591 373 OFFCURVE",
"267.298 373 CURVE SMOOTH",
"305.729 373 OFFCURVE",
"323.591 347.799 OFFCURVE",
"323.591 329.226 CURVE SMOOTH",
"323.591 313.668 OFFCURVE",
"311.076 302.916 OFFCURVE",
"295.395 300.201 CURVE SMOOTH",
"213.725 286.062 LINE SMOOTH",
"109.561 268.029 OFFCURVE",
"30.591 233.895 OFFCURVE",
"30.591 137.28 CURVE SMOOTH",
"30.591 43.78 OFFCURVE",
"104.591 -7 OFFCURVE",
"191.753 -7 CURVE SMOOTH",
"286.591 -7 OFFCURVE",
"352.923 13.885 OFFCURVE",
"403.617 91.775 CURVE",
"387.849 185.61 LINE"
);
},
{
closed = 1;
nodes = (
"323.591 200 LINE SMOOTH",
"323.591 146.035 OFFCURVE",
"294.174 119 OFFCURVE",
"250.406 119 CURVE SMOOTH",
"221.16 119 OFFCURVE",
"198.591 129.498 OFFCURVE",
"198.591 154.803 CURVE SMOOTH",
"198.591 174.49 OFFCURVE",
"211.805 190.919 OFFCURVE",
"240.271 195.907 CURVE SMOOTH",
"291.591 204.9 LINE SMOOTH",
"302.861 206.875 OFFCURVE",
"314.784 209.61 OFFCURVE",
"323.591 214 CURVE"
);
}
);
width = 841.07468;
},
{
anchors = (
{
name = bottom;
position = "{626.918, 4}";
},
{
name = ogonek;
position = "{696.918, 2}";
},
{
name = right;
position = "{3454.918, 240}";
},
{
name = top;
position = "{626.918, 498}";
}
);
hints = (
{
place = "{152, 66}";
type = Stem;
},
{
place = "{418, 69}";
type = Stem;
},
{
place = "{580, 68}";
type = Stem;
},
{
horizontal = 1;
place = "{186, -20}";
target = down;
type = TopGhost;
},
{
horizontal = 1;
place = "{-2, 21}";
target = up;
type = BottomGhost;
},
{
place = "{282, 70}";
type = Stem;
},
{
horizontal = 1;
place = "{-2, 21}";
target = up;
type = BottomGhost;
},
{
horizontal = 1;
place = "{186, -20}";
target = down;
type = TopGhost;
},
{
place = "{487.318, 66}";
type = Stem;
},
{
place = "{778.318, 68}";
type = Stem;
},
{
horizontal = 1;
place = "{186, -20}";
target = down;
type = TopGhost;
},
{
horizontal = 1;
place = "{-2, 21}";
target = up;
type = BottomGhost;
},
{
place = "{282, 70}";
type = Stem;
},
{
horizontal = 1;
place = "{-2, 21}";
target = up;
type = BottomGhost;
},
{
horizontal = 1;
place = "{186, -20}";
target = down;
type = TopGhost;
}
);
layerId = "9F107B1E-3A61-4335-981B-27DD48125C7E";
paths = (
{
closed = 1;
nodes = (
"733.918 -7 OFFCURVE",
"806.918 45 OFFCURVE",
"843.918 123 CURVE",
"778.918 149 LINE",
"753.918 91 OFFCURVE",
"697.918 64 OFFCURVE",
"619.918 64 CURVE SMOOTH",
"534.918 64 OFFCURVE",
"465.918 115 OFFCURVE",
"460.918 224 CURVE",
"851.918 224 LINE",
"854.918 243 OFFCURVE",
"854.918 259 OFFCURVE",
"854.918 273 CURVE SMOOTH",
"854.918 406 OFFCURVE",
"766.918 507 OFFCURVE",
"619.918 507 CURVE SMOOTH",
"474.918 507 OFFCURVE",
"385.918 412 OFFCURVE",
"385.918 255 CURVE SMOOTH",
"385.918 96 OFFCURVE",
"479.918 -7 OFFCURVE",
"621.918 -7 CURVE SMOOTH"
);
},
{
closed = 1;
nodes = (
"462.918 289 LINE",
"471.918 388 OFFCURVE",
"538.918 436 OFFCURVE",
"617.918 436 CURVE SMOOTH",
"704.918 436 OFFCURVE",
"775.918 386 OFFCURVE",
"773.918 289 CURVE"
);
},
{
closed = 1;
nodes = (
"460.007 249.761 LINE",
"460.007 338 LINE SMOOTH",
"460.007 439.821 OFFCURVE",
"390.145 507 OFFCURVE",
"272.182 507 CURVE SMOOTH",
"167.062 507 OFFCURVE",
"95.329 453.655 OFFCURVE",
"70.062 367 CURVE",
"138.062 343 LINE",
"155.337 405.431 OFFCURVE",
"204.062 436 OFFCURVE",
"269.787 436 CURVE SMOOTH",
"348.643 436 OFFCURVE",
"383.062 392 OFFCURVE",
"383.062 345.065 CURVE",
"383.062 318.763 OFFCURVE",
"368.777 303.831 OFFCURVE",
"331.448 299.083 CURVE SMOOTH",
"230.983 286.304 LINE SMOOTH",
"144.284 275.276 OFFCURVE",
"50.062 241 OFFCURVE",
"50.062 134.949 CURVE SMOOTH",
"50.062 43.441 OFFCURVE",
"120.062 -7 OFFCURVE",
"219.201 -7 CURVE SMOOTH",
"303.062 -7 OFFCURVE",
"392.267 24.503 OFFCURVE",
"430.576 124.63 CURVE",
"423.348 200.566 LINE"
);
},
{
closed = 1;
nodes = (
"383.062 224 LINE SMOOTH",
"383.062 135 OFFCURVE",
"326.154 63 OFFCURVE",
"227.892 63 CURVE SMOOTH",
"173.062 63 OFFCURVE",
"130.062 85.418 OFFCURVE",
"130.062 139.191 CURVE SMOOTH",
"130.062 186 OFFCURVE",
"162.266 212.504 OFFCURVE",
"230.891 221.339 CURVE SMOOTH",
"335.062 234.75 LINE SMOOTH",
"360.892 238.075 OFFCURVE",
"376.646 243.766 OFFCURVE",
"383.062 248.5 CURVE"
);
}
);
width = 903.51523;
}
);
leftMetricsKey = a;
rightMetricsKey = e;
unicode = 00E6;
},
{
glyphname = b;
lastChange = "2021-09-01 17:33:15 +0000";
layers = (
{
hints = (
{
place = "{77, 114}";
type = Stem;
},
{
place = "{467, 116}";
type = Stem;
},
{
horizontal = 1;
place = "{-8, 98}";
type = Stem;
},
{
horizontal = 1;
place = "{410, 98}";
type = Stem;
},
{
horizontal = 1;
place = "{720, -20}";
target = down;
type = TopGhost;
}
);
layerId = "0CF0EA28-C756-4A9E-9D7C-CFEF350B4CFE";
rightMetricsKey = "=l*0.5";
paths = (
{
closed = 1;
nodes = (
"186 423 LINE",
"186 720 LINE",
"72 720 LINE",
"72 0 LINE",
"176 0 LINE",
"184 62 LINE",
"219 23 OFFCURVE",
"275 -7 OFFCURVE",
"350 -7 CURVE SMOOTH",
"483 -7 OFFCURVE",
"577 95 OFFCURVE",
"577 250 CURVE SMOOTH",
"577 404 OFFCURVE",
"484 507 OFFCURVE",
"350 507 CURVE SMOOTH",
"270 507 OFFCURVE",
"207 471 OFFCURVE",
"174 426 CURVE"
);
},
{
closed = 1;
nodes = (
"461 147 OFFCURVE",
"397 91 OFFCURVE",
"324 91 CURVE SMOOTH",
"251 91 OFFCURVE",
"186 147 OFFCURVE",
"186 250 CURVE SMOOTH",
"186 352 OFFCURVE",
"251 409 OFFCURVE",
"324 409 CURVE SMOOTH",
"397 409 OFFCURVE",
"461 352 OFFCURVE",
"461 250 CURVE SMOOTH"
);
}
);
width = 613.005;
},
{
hints = (
{
place = "{93, 22}";
type = Stem;
},
{
place = "{549, 22}";
type = Stem;
},
{
horizontal = 1;
place = "{-6, 21}";
target = up;
type = BottomGhost;
},
{
horizontal = 1;
place = "{720, -20}";
target = down;
type = TopGhost;
}
);
layerId = "6E968933-CD79-43C6-9231-80D77C940F4D";
paths = (
{
closed = 1;
nodes = (
"112 351 LINE",
"112 720 LINE",
"90 720 LINE",
"90 0 LINE",
"112 0 LINE",
"112 145 LINE",
"141 61 OFFCURVE",
"212 -7 OFFCURVE",
"327 -7 CURVE SMOOTH",
"471 -7 OFFCURVE",
"566 90 OFFCURVE",
"566 250 CURVE SMOOTH",
"566 409 OFFCURVE",
"471 507 OFFCURVE",
"327 507 CURVE SMOOTH",
"208 507 OFFCURVE",
"139 441 OFFCURVE",
"111 353 CURVE"
);
},
{
closed = 1;
nodes = (
"544 102 OFFCURVE",
"462 13 OFFCURVE",
"327 13 CURVE SMOOTH",
"198 13 OFFCURVE",
"112 107 OFFCURVE",
"112 250 CURVE SMOOTH",
"112 393 OFFCURVE",
"198 487 OFFCURVE",
"327 487 CURVE SMOOTH",
"462 487 OFFCURVE",
"544 397 OFFCURVE",
"544 250 CURVE SMOOTH"
);
}
);
width = 620.00245;
},
{
hints = (
{
place = "{49, 176}";
type = Stem;
},
{
place = "{399, 179}";
type = Stem;
},
{
horizontal = 1;
place = "{-7, 153}";
type = Stem;
},
{
horizontal = 1;
place = "{355, 153}";
type = Stem;
},
{
horizontal = 1;
place = "{720, -20}";
target = down;
type = TopGhost;
}
);
layerId = "BAF31694-0472-4296-B0EA-1654553C45D2";
paths = (
{
closed = 1;
nodes = (
"223.5 422 LINE",
"223.5 720 LINE",
"49.5 720 LINE",
"49.5 0 LINE",
"207.5 0 LINE",
"216.5 63 LINE",
"249.5 29 OFFCURVE",
"298.5 -7 OFFCURVE",
"357.5 -7 CURVE SMOOTH",
"481.5 -7 OFFCURVE",
"576.5 92 OFFCURVE",
"576.5 250 CURVE SMOOTH",
"576.5 409 OFFCURVE",
"482.5 507 OFFCURVE",
"357.5 507 CURVE SMOOTH",
"283.5 507 OFFCURVE",
"227.5 468 OFFCURVE",
"199.5 422 CURVE"
);
},
{
closed = 1;
nodes = (
"399.5 183 OFFCURVE",
"358.5 146 OFFCURVE",
"311.5 146 CURVE SMOOTH",
"264.5 146 OFFCURVE",
"223.5 182 OFFCURVE",
"223.5 250 CURVE SMOOTH",
"223.5 317 OFFCURVE",
"264.5 355 OFFCURVE",
"311.5 355 CURVE SMOOTH",
"358.5 355 OFFCURVE",
"399.5 318 OFFCURVE",
"399.5 250 CURVE SMOOTH"
);
}
);
width = 606.20005;
},
{
hints = (
{
place = "{30, 70}";
type = Stem;
},
{
place = "{462, 70}";
type = Stem;
},
{
horizontal = 1;
place = "{-2, 21}";
target = up;
type = BottomGhost;
},
{
horizontal = 1;
place = "{720, -20}";
target = down;
type = TopGhost;
}
);
layerId = "9F107B1E-3A61-4335-981B-27DD48125C7E";
paths = (
{
closed = 1;
nodes = (
"161 398 LINE",
"161 720 LINE",
"81 720 LINE",
"81 0 LINE",
"155 0 LINE",
"160 93 LINE",
"192 37 OFFCURVE",
"254 -7 OFFCURVE",
"344 -7 CURVE SMOOTH",
"481 -7 OFFCURVE",
"576 93 OFFCURVE",
"576 250 CURVE SMOOTH",
"576 406 OFFCURVE",
"482 507 OFFCURVE",
"344 507 CURVE SMOOTH",
"249 507 OFFCURVE",
"184 460 OFFCURVE",
"153 399 CURVE"
);
},
{
closed = 1;
nodes = (
"495 130 OFFCURVE",
"424 63 OFFCURVE",
"328 63 CURVE SMOOTH",
"234 63 OFFCURVE",
"161 132 OFFCURVE",
"161 250 CURVE SMOOTH",
"161 367 OFFCURVE",
"234 437 OFFCURVE",
"328 437 CURVE SMOOTH",
"424 437 OFFCURVE",
"495 369 OFFCURVE",
"495 250 CURVE SMOOTH"
);
}
);
width = 624.60404;
}
);
leftMetricsKey = l;
rightMetricsKey = o;
unicode = 0062;
},
{
glyphname = c;
lastChange = "2021-09-01 17:33:15 +0000";
layers = (
{
anchors = (
{
name = bottom;
position = "{283.2, 5}";
},
{
name = top;
position = "{283.2, 496}";
}
);
hints = (
{
place = "{46, 117}";
type = Stem;
},
{
horizontal = 1;
place = "{-8, 98}";
type = Stem;
},
{
horizontal = 1;
place = "{410, 98}";
type = Stem;
}
);
layerId = "0CF0EA28-C756-4A9E-9D7C-CFEF350B4CFE";
paths = (
{
closed = 1;
nodes = (
"395.2 -7 OFFCURVE",
"480.2 45 OFFCURVE",
"518.2 124 CURVE",
"422.2 158 LINE",
"398.2 109 OFFCURVE",
"348.2 90 OFFCURVE",
"292.2 90 CURVE SMOOTH",
"220.2 90 OFFCURVE",
"159.2 152 OFFCURVE",
"159.2 250 CURVE SMOOTH",
"159.2 344 OFFCURVE",
"220.2 410 OFFCURVE",
"292.2 410 CURVE SMOOTH",
"349.2 410 OFFCURVE",
"398.2 386 OFFCURVE",
"418.2 340 CURVE",
"516.2 374 LINE",
"479.2 459 OFFCURVE",
"397.2 507 OFFCURVE",
"289.2 507 CURVE SMOOTH",
"145.2 507 OFFCURVE",
"43.2 403 OFFCURVE",
"43.2 250 CURVE SMOOTH",
"43.2 93 OFFCURVE",
"145.2 -7 OFFCURVE",
"289.2 -7 CURVE SMOOTH"
);
}
);
width = 570.036;
},
{
anchors = (
{
name = bottom;
position = "{292, 1}";
},
{
name = top;
position = "{292, 501}";
}
);
hints = (
{
place = "{64, 22}";
type = Stem;
},
{
horizontal = 1;
place = "{497, -20}";
target = down;
type = TopGhost;
},
{
horizontal = 1;
place = "{-6, 21}";
target = up;
type = BottomGhost;
}
);
layerId = "6E968933-CD79-43C6-9231-80D77C940F4D";
paths = (
{
closed = 1;
nodes = (
"407 -7 OFFCURVE",
"486 43 OFFCURVE",
"516 128 CURVE",
"497 133 LINE",
"469 55 OFFCURVE",
"392 13 OFFCURVE",
"295 13 CURVE SMOOTH",
"181 13 OFFCURVE",
"76 85 OFFCURVE",
"76 250 CURVE SMOOTH",
"76 414 OFFCURVE",
"181 487 OFFCURVE",
"295 487 CURVE SMOOTH",
"392 487 OFFCURVE",
"468 442 OFFCURVE",
"496 365 CURVE",
"514 371 LINE",
"484 455 OFFCURVE",
"407 507 OFFCURVE",
"295 507 CURVE SMOOTH",
"156 507 OFFCURVE",
"54 411 OFFCURVE",
"54 250 CURVE SMOOTH",
"54 89 OFFCURVE",
"156 -7 OFFCURVE",
"295 -7 CURVE SMOOTH"
);
}
);
width = 580.80379;
},
{
anchors = (
{
name = bottom;
position = "{275.7, 11}";
},
{
name = top;
position = "{275.7, 490}";
}
);
hints = (
{
place = "{29, 177}";
type = Stem;
},
{
horizontal = 1;
place = "{-7, 150}";
type = Stem;
},
{
horizontal = 1;
place = "{357, 150}";
type = Stem;
}
);
layerId = "BAF31694-0472-4296-B0EA-1654553C45D2";
paths = (
{
closed = 1;
nodes = (
"394.7 -6 OFFCURVE",
"491.7 56 OFFCURVE",
"525.7 157 CURVE",
"368.7 192 LINE",
"353.7 156 OFFCURVE",
"325.7 142 OFFCURVE",
"288.7 142 CURVE SMOOTH",
"247.7 142 OFFCURVE",
"203.7 181 OFFCURVE",
"203.7 250 CURVE SMOOTH",
"203.7 316 OFFCURVE",
"247.7 358 OFFCURVE",
"288.7 358 CURVE SMOOTH",
"325.7 358 OFFCURVE",
"351.7 343 OFFCURVE",
"365.7 308 CURVE",
"522.7 342 LINE",
"488.7 447 OFFCURVE",
"396.7 507 OFFCURVE",
"282.7 507 CURVE SMOOTH",
"134.7 507 OFFCURVE",
"29.7 408 OFFCURVE",
"29.7 250 CURVE SMOOTH",
"29.7 91 OFFCURVE",
"134.7 -7 OFFCURVE",
"282.7 -7 CURVE SMOOTH"
);
}
);
width = 561.344;
},
{
anchors = (
{
name = bottom;
position = "{287.6, 4}";
},
{
name = top;
position = "{287.6, 498}";
}
);
hints = (
{
place = "{280, 70}";
type = Stem;
},
{
horizontal = 1;
place = "{186, -20}";
target = down;
type = TopGhost;
},
{
horizontal = 1;
place = "{-2, 21}";
target = up;
type = BottomGhost;
}
);
layerId = "9F107B1E-3A61-4335-981B-27DD48125C7E";
paths = (
{
closed = 1;
nodes = (
"400.6 -7 OFFCURVE",
"481.6 46 OFFCURVE",
"518.6 125 CURVE",
"450.6 149 LINE",
"426.6 89 OFFCURVE",
"370.6 62 OFFCURVE",
"295.6 62 CURVE SMOOTH",
"207.6 62 OFFCURVE",
"129.6 127 OFFCURVE",
"129.6 250 CURVE SMOOTH",
"129.6 370 OFFCURVE",
"207.6 437 OFFCURVE",
"295.6 437 CURVE SMOOTH",
"371.6 437 OFFCURVE",
"426.6 407 OFFCURVE",
"448.6 349 CURVE",
"517.6 373 LINE",
"481.6 456 OFFCURVE",
"402.6 507 OFFCURVE",
"292.6 507 CURVE SMOOTH",
"150.6 507 OFFCURVE",
"48.6 406 OFFCURVE",
"48.6 250 CURVE SMOOTH",
"48.6 92 OFFCURVE",
"150.6 -7 OFFCURVE",
"292.6 -7 CURVE SMOOTH"
);
}
);
width = 576.91842;
}
);
leftMetricsKey = o;
rightMetricsKey = "=o*1.2";
unicode = 0063;
},
{
glyphname = d;
lastChange = "2021-09-01 17:33:15 +0000";
layers = (
{
anchors = (
{
name = bottom;
position = "{311.2, 0}";
},
{
name = center;
position = "{311.2, 250}";
},
{
name = top;
position = "{311.2, 720}";
},
{
name = topright;
position = "{598.2, 720}";
}
);
hints = (
{
place = "{38, 116}";
type = Stem;
},
{
place = "{431, 114}";
type = Stem;
},
{
horizontal = 1;
place = "{-8, 98}";
type = Stem;
},
{
horizontal = 1;
place = "{410, 98}";
type = Stem;
},
{
horizontal = 1;
place = "{720, -20}";
target = down;
type = TopGhost;
}
);
layerId = "0CF0EA28-C756-4A9E-9D7C-CFEF350B4CFE";
paths = (
{
closed = 1;
nodes = (
"413.2 471 OFFCURVE",
"350.2 507 OFFCURVE",
"270.2 507 CURVE SMOOTH",
"136.2 507 OFFCURVE",
"43.2 404 OFFCURVE",
"43.2 250 CURVE SMOOTH",
"43.2 95 OFFCURVE",
"137.2 -7 OFFCURVE",
"270.2 -7 CURVE SMOOTH",
"345.2 -7 OFFCURVE",
"401.2 23 OFFCURVE",
"436.2 62 CURVE",
"444.2 0 LINE",
"548.2 0 LINE",
"548.2 720 LINE",
"434.2 720 LINE",
"434.2 423 LINE",
"446.2 426 LINE"
);
},
{
closed = 1;
nodes = (
"159.2 352 OFFCURVE",
"223.2 409 OFFCURVE",
"296.2 409 CURVE SMOOTH",
"369.2 409 OFFCURVE",
"434.2 352 OFFCURVE",
"434.2 250 CURVE SMOOTH",
"434.2 147 OFFCURVE",
"369.2 91 OFFCURVE",
"296.2 91 CURVE SMOOTH",
"223.2 91 OFFCURVE",
"159.2 147 OFFCURVE",
"159.2 250 CURVE SMOOTH"
);
}
);
width = 620.2;
},
{
anchors = (
{
name = bottom;
position = "{311, 0}";
},
{
name = center;
position = "{311, 250}";
},
{
name = top;
position = "{311, 720}";
},
{
name = topright;
position = "{597, 720}";
}
);
hints = (
{
place = "{47, 22}";
type = Stem;
},
{
place = "{503, 22}";
type = Stem;
},
{
horizontal = 1;
place = "{-6, 21}";
target = up;
type = BottomGhost;
},
{
horizontal = 1;
place = "{721, -20}";
target = down;
type = TopGhost;
}
);
layerId = "6E968933-CD79-43C6-9231-80D77C940F4D";
paths = (
{
closed = 1;
nodes = (
"481 441 OFFCURVE",
"412 507 OFFCURVE",
"293 507 CURVE SMOOTH",
"149 507 OFFCURVE",
"54 409 OFFCURVE",
"54 250 CURVE SMOOTH",
"54 90 OFFCURVE",
"149 -7 OFFCURVE",
"293 -7 CURVE SMOOTH",
"408 -7 OFFCURVE",
"479 61 OFFCURVE",
"508 145 CURVE",
"508 0 LINE",
"530 0 LINE",
"530 720 LINE",
"508 720 LINE",
"508 351 LINE",
"509 353 LINE"
);
},
{
closed = 1;
nodes = (
"76 397 OFFCURVE",
"158 487 OFFCURVE",
"293 487 CURVE SMOOTH",
"422 487 OFFCURVE",
"508 393 OFFCURVE",
"508 250 CURVE SMOOTH",
"508 107 OFFCURVE",
"422 13 OFFCURVE",
"293 13 CURVE SMOOTH",
"158 13 OFFCURVE",
"76 102 OFFCURVE",
"76 250 CURVE SMOOTH"
);
}
);
width = 620.00277;
},
{
anchors = (
{
name = bottom;
position = "{300.7, 0}";
},
{
name = center;
position = "{300.7, 195}";
},
{
name = top;
position = "{300.7, 720}";
},
{
name = topright;
position = "{517.7, 638}";
}
);
hints = (
{
place = "{24, 179}";
type = Stem;
},
{
place = "{377, 176}";
type = Stem;
},
{
horizontal = 1;
place = "{-7, 153}";
type = Stem;
},
{
horizontal = 1;
place = "{355, 153}";
type = Stem;
},
{
horizontal = 1;
place = "{720, -20}";
target = down;
type = TopGhost;
}
);
layerId = "BAF31694-0472-4296-B0EA-1654553C45D2";
paths = (
{
closed = 1;
nodes = (
"378.7 468 OFFCURVE",
"322.7 507 OFFCURVE",
"248.7 507 CURVE SMOOTH",
"123.7 507 OFFCURVE",
"29.7 409 OFFCURVE",
"29.7 250 CURVE SMOOTH",
"29.7 92 OFFCURVE",
"124.7 -7 OFFCURVE",
"248.7 -7 CURVE SMOOTH",
"307.7 -7 OFFCURVE",
"356.7 29 OFFCURVE",
"389.7 63 CURVE",
"398.7 0 LINE",
"556.7 0 LINE",
"556.7 720 LINE",
"382.7 720 LINE",
"382.7 422 LINE",
"406.7 422 LINE"
);
},
{
closed = 1;
nodes = (
"206.7 318 OFFCURVE",
"247.7 355 OFFCURVE",
"294.7 355 CURVE SMOOTH",
"341.7 355 OFFCURVE",
"382.7 317 OFFCURVE",
"382.7 250 CURVE SMOOTH",
"382.7 182 OFFCURVE",
"341.7 146 OFFCURVE",
"294.7 146 CURVE SMOOTH",
"247.7 146 OFFCURVE",
"206.7 183 OFFCURVE",
"206.7 250 CURVE SMOOTH"
);
}
);
width = 606.21217;
},
{
anchors = (
{
name = bottom;
position = "{312.6, 0}";
},
{
name = center;
position = "{312.6, 250}";
},
{
name = top;
position = "{312.6, 720}";
},
{
name = topright;
position = "{600.6, 720}";
}
);
hints = (
{
place = "{13, 70}";
type = Stem;
},
{
place = "{445, 70}";
type = Stem;
},
{
horizontal = 1;
place = "{-2, 21}";
target = up;
type = BottomGhost;
},
{
horizontal = 1;
place = "{720, -20}";
target = down;
type = TopGhost;
}
);
layerId = "9F107B1E-3A61-4335-981B-27DD48125C7E";
paths = (
{
closed = 1;
nodes = (
"440.6 460 OFFCURVE",
"375.6 507 OFFCURVE",
"280.6 507 CURVE SMOOTH",
"142.6 507 OFFCURVE",
"48.6 406 OFFCURVE",
"48.6 250 CURVE SMOOTH",
"48.6 93 OFFCURVE",
"143.6 -7 OFFCURVE",
"280.6 -7 CURVE SMOOTH",
"370.6 -7 OFFCURVE",
"432.6 37 OFFCURVE",
"464.6 93 CURVE",
"469.6 0 LINE",
"543.6 0 LINE",
"543.6 720 LINE",
"463.6 720 LINE",
"463.6 398 LINE",
"471.6 399 LINE"
);
},
{
closed = 1;
nodes = (
"129.6 369 OFFCURVE",
"200.6 437 OFFCURVE",
"296.6 437 CURVE SMOOTH",
"390.6 437 OFFCURVE",
"463.6 367 OFFCURVE",
"463.6 250 CURVE SMOOTH",
"463.6 132 OFFCURVE",
"390.6 63 OFFCURVE",
"296.6 63 CURVE SMOOTH",
"200.6 63 OFFCURVE",
"129.6 130 OFFCURVE",
"129.6 250 CURVE SMOOTH"
);
}
);
width = 624.59604;
}
);
leftMetricsKey = o;
rightMetricsKey = l;
unicode = 0064;
},
{
glyphname = eth;
lastChange = "2021-09-01 17:33:15 +0000";
layers = (
{
hints = (
{
place = "{46, 117}";
type = Stem;
},
{
place = "{442, 117}";
type = Stem;
},
{
horizontal = 1;
place = "{-8, 96}";
type = Stem;
},
{
horizontal = 1;
place = "{413, 96}";
type = Stem;
}
);
layerId = "0CF0EA28-C756-4A9E-9D7C-CFEF350B4CFE";
paths = (
{
closed = 1;
nodes = (
"418.862 643.023 LINE",
"401.204 663.3 OFFCURVE",
"381.961 682.395 OFFCURVE",
"361.2 700 CURVE",
"241.2 700 LINE",
"273.557 673.353 OFFCURVE",
"301.712 643.227 OFFCURVE",
"326.051 612.548 CURVE",
"245.2 586 LINE",
"245.2 521 LINE",
"364.061 560.029 LINE",
"385.3 527.961 OFFCURVE",
"402.529 497.136 OFFCURVE",
"416.2 471 CURVE",
"381.2 496 OFFCURVE",
"342.2 509 OFFCURVE",
"289.2 509 CURVE SMOOTH",
"153.2 509 OFFCURVE",
"43.2 408 OFFCURVE",
"43.2 251 CURVE SMOOTH",
"43.2 94 OFFCURVE",
"152.2 -8 OFFCURVE",
"296.2 -8 CURVE SMOOTH",
"443.2 -8 OFFCURVE",
"556.2 92 OFFCURVE",
"556.2 287 CURVE SMOOTH",
"556.2 389.656 OFFCURVE",
"522.063 498.651 OFFCURVE",
"458.896 591.169 CURVE",
"513.2 609 LINE",
"513.2 674 LINE"
);
},
{
closed = 1;
nodes = (
"223.2 88 OFFCURVE",
"160.2 143 OFFCURVE",
"160.2 251 CURVE SMOOTH",
"160.2 359 OFFCURVE",
"225.2 413 OFFCURVE",
"297.2 413 CURVE SMOOTH",
"371.2 413 OFFCURVE",
"439.2 359 OFFCURVE",
"439.2 251 CURVE SMOOTH",
"439.2 143 OFFCURVE",
"368.2 88 OFFCURVE",
"296.2 88 CURVE SMOOTH"
);
}
);
width = 599.4;
},
{
hints = (
{
place = "{56, 22}";
type = Stem;
},
{
place = "{522, 22}";
type = Stem;
},
{
horizontal = 1;
place = "{-6, 21}";
target = up;
type = BottomGhost;
}
);
layerId = "6E968933-CD79-43C6-9231-80D77C940F4D";
paths = (
{
closed = 1;
nodes = (
"388.444 641.575 LINE",
"367.888 661.504 OFFCURVE",
"345.108 680.969 OFFCURVE",
"320 700 CURVE",
"295 700 LINE",
"322.837 678.142 OFFCURVE",
"347.497 656.388 OFFCURVE",
"369.34 634.622 CURVE",
"233 585 LINE",
"233 565 LINE",
"383.725 619.858 LINE",
"464.171 526.735 OFFCURVE",
"508.317 450.615 OFFCURVE",
"524 340 CURVE",
"486.651 461.986 OFFCURVE",
"396 507 OFFCURVE",
"299 507 CURVE SMOOTH",
"150 507 OFFCURVE",
"54 407 OFFCURVE",
"54 259 CURVE SMOOTH",
"54 99 OFFCURVE",
"146 -7 OFFCURVE",
"299 -7 CURVE SMOOTH",
"443 -7 OFFCURVE",
"545 88 OFFCURVE",
"545 285 CURVE SMOOTH",
"545 413.17 OFFCURVE",
"503.202 525.945 OFFCURVE",
"403.092 626.906 CURVE",
"516 668 LINE",
"516 688 LINE"
);
},
{
closed = 1;
nodes = (
"169 13 OFFCURVE",
"77 100 OFFCURVE",
"77 259 CURVE SMOOTH",
"77 405 OFFCURVE",
"172 487 OFFCURVE",
"299 487 CURVE SMOOTH",
"420 487 OFFCURVE",
"521 407 OFFCURVE",
"521 251 CURVE SMOOTH",
"521 100 OFFCURVE",
"423 13 OFFCURVE",
"299 13 CURVE SMOOTH"
);
}
);
width = 598.99511;
},
{
hints = (
{
place = "{20, 50}";
type = Stem;
},
{
place = "{197, 179}";
type = Stem;
},
{
horizontal = 1;
place = "{187, 170}";
type = Stem;
},
{
horizontal = 1;
place = "{172, 151}";
type = Stem;
}
);
layerId = "BAF31694-0472-4296-B0EA-1654553C45D2";
paths = (
{
closed = 1;
nodes = (
"431.073 643.4 LINE",
"415.357 664.158 OFFCURVE",
"398.503 683.214 OFFCURVE",
"380.7 700 CURVE",
"209.7 700 LINE",
"235.969 677.672 OFFCURVE",
"260.512 645.568 OFFCURVE",
"282.575 611.66 CURVE",
"232.7 601 LINE",
"232.7 530 LINE",
"320.387 548.742 LINE",
"332.878 526.651 OFFCURVE",
"344.058 505.947 OFFCURVE",
"353.7 489 CURVE",
"331.7 500 OFFCURVE",
"308.7 506 OFFCURVE",
"279.7 506 CURVE SMOOTH",
"140.7 506 OFFCURVE",
"29.7 409 OFFCURVE",
"29.7 252 CURVE SMOOTH",
"29.7 94 OFFCURVE",
"149.7 -6 OFFCURVE",
"295.7 -6 CURVE SMOOTH",
"440.7 -6 OFFCURVE",
"557.7 93 OFFCURVE",
"557.7 283 CURVE SMOOTH",
"557.7 377.059 OFFCURVE",
"525.2 488.271 OFFCURVE",
"472.028 581.154 CURVE",
"494.7 586 LINE",
"494.7 657 LINE"
);
},
{
closed = 1;
nodes = (
"252.7 144 OFFCURVE",
"208.7 177 OFFCURVE",
"208.7 251 CURVE SMOOTH",
"208.7 324 OFFCURVE",
"251.7 356 OFFCURVE",
"293.7 356 CURVE SMOOTH",
"335.7 356 OFFCURVE",
"378.7 324 OFFCURVE",
"378.7 251 CURVE SMOOTH",
"378.7 177 OFFCURVE",
"336.7 144 OFFCURVE",
"295.7 144 CURVE SMOOTH"
);
}
);
width = 587.40198;
},
{
hints = (
{
place = "{16, 68}";
type = Stem;
},
{
place = "{454, 68}";
type = Stem;
},
{
horizontal = 1;
place = "{-2, 21}";
target = up;
type = BottomGhost;
}
);
layerId = "9F107B1E-3A61-4335-981B-27DD48125C7E";
paths = (
{
closed = 1;
nodes = (
"408.529 642.659 LINE",
"389.719 662.779 OFFCURVE",
"369.075 681.955 OFFCURVE",
"346.6 700 CURVE",
"262.6 700 LINE",
"294.255 674.734 OFFCURVE",
"321.524 648.204 OFFCURVE",
"344.995 621.094 CURVE",
"241.6 586 LINE",
"241.6 538 LINE",
"375.086 583.307 LINE",
"414.926 528.791 OFFCURVE",
"440.903 473.241 OFFCURVE",
"457.6 422 CURVE",
"422.6 481 OFFCURVE",
"363.6 508 OFFCURVE",
"294.6 508 CURVE SMOOTH",
"153.6 508 OFFCURVE",
"48.6 408 OFFCURVE",
"48.6 254 CURVE SMOOTH",
"48.6 96 OFFCURVE",
"151.6 -8 OFFCURVE",
"298.6 -8 CURVE SMOOTH",
"444.6 -8 OFFCURVE",
"552.6 91 OFFCURVE",
"552.6 286 CURVE SMOOTH",
"552.6 398.109 OFFCURVE",
"515.065 510.217 OFFCURVE",
"440.395 605.474 CURVE",
"515.6 631 LINE",
"515.6 679 LINE"
);
},
{
closed = 1;
nodes = (
"204.6 60 OFFCURVE",
"130.6 127 OFFCURVE",
"130.6 254 CURVE SMOOTH",
"130.6 376 OFFCURVE",
"206.6 441 OFFCURVE",
"299.6 441 CURVE SMOOTH",
"390.6 441 OFFCURVE",
"471.6 377 OFFCURVE",
"471.6 251 CURVE SMOOTH",
"471.6 127 OFFCURVE",
"389.6 60 OFFCURVE",
"298.6 60 CURVE SMOOTH"
);
}
);
width = 601.20317;
}
);
leftMetricsKey = o;
rightMetricsKey = o;
unicode = 00F0;
},
{
glyphname = dcaron;
lastChange = "2021-09-01 17:33:15 +0000";
layers = (
{
components = (
{
alignment = -1;
name = d;
}
);
hints = (
{
place = "{588, 117}";
type = Stem;
},
{
place = "{592, 113}";
type = Stem;
},
{
place = "{635, 70}";
type = Stem;
},
{
horizontal = 1;
place = "{572, 97}";
type = Stem;
},
{
horizontal = 1;
place = "{459, 21}";
target = up;
type = BottomGhost;
}
);
layerId = "0CF0EA28-C756-4A9E-9D7C-CFEF350B4CFE";
paths = (
{
closed = 1;
nodes = (
"588 669 LINE",
"588 572 LINE",
"635 572 LINE",
"635 559 LINE SMOOTH",
"635 529 OFFCURVE",
"622 514 OFFCURVE",
"591 514 CURVE",
"591 459 LINE",
"667 459 OFFCURVE",
"705 498 OFFCURVE",
"705 575 CURVE SMOOTH",
"705 602 OFFCURVE",
"700 633 OFFCURVE",
"691 669 CURVE"
);
}
);
width = 777;
},
{
components = (
{
alignment = -1;
name = d;
}
);
hints = (
{
place = "{572, 57}";
type = Stem;
},
{
place = "{606, 24}";
type = Stem;
},
{
horizontal = 1;
place = "{672, -20}";
target = down;
type = TopGhost;
},
{
horizontal = 1;
place = "{547, 21}";
target = up;
type = BottomGhost;
}
);
layerId = "6E968933-CD79-43C6-9231-80D77C940F4D";
paths = (
{
closed = 1;
nodes = (
"572 686 LINE",
"572 635 LINE",
"607 635 LINE",
"607 609 LINE SMOOTH",
"607 582 OFFCURVE",
"598 568 OFFCURVE",
"565 568 CURVE",
"565 547 LINE",
"604 547 OFFCURVE",
"630 562 OFFCURVE",
"630 621 CURVE SMOOTH",
"630 638 OFFCURVE",
"629 659 OFFCURVE",
"626 686 CURVE"
);
}
);
width = 719.99957;
},
{
components = (
{
alignment = -1;
name = d;
}
);
hints = (
{
place = "{250, 50}";
type = Stem;
},
{
place = "{568, 157}";
type = Stem;
},
{
place = "{595, 130}";
type = Stem;
},
{
horizontal = 1;
place = "{528, 129}";
type = Stem;
},
{
horizontal = 1;
place = "{401, 21}";
target = up;
type = BottomGhost;
}
);
layerId = "BAF31694-0472-4296-B0EA-1654553C45D2";
paths = (
{
closed = 1;
nodes = (
"592 657 LINE",
"592 528 LINE",
"647 528 LINE",
"647 521 LINE SMOOTH",
"645 494 OFFCURVE",
"630 480 OFFCURVE",
"602 480 CURVE",
"602 401 LINE",
"703 401 OFFCURVE",
"750 460 OFFCURVE",
"750 544 CURVE SMOOTH",
"750 576 OFFCURVE",
"744 614 OFFCURVE",
"729 657 CURVE"
);
}
);
width = 799.50642;
},
{
components = (
{
alignment = -1;
name = d;
}
);
hints = (
{
place = "{611, 65}";
type = Stem;
},
{
place = "{585, 70}";
type = Stem;
},
{
horizontal = 1;
place = "{252, -20}";
target = down;
type = TopGhost;
},
{
horizontal = 1;
place = "{492, 21}";
target = up;
type = BottomGhost;
}
);
layerId = "9F107B1E-3A61-4335-981B-27DD48125C7E";
paths = (
{
closed = 1;
nodes = (
"582 675 LINE",
"582 596 LINE",
"625 596 LINE",
"625 578 LINE SMOOTH",
"625 549 OFFCURVE",
"613 534 OFFCURVE",
"581 534 CURVE",
"581 492 LINE",
"643 492 OFFCURVE",
"677 522 OFFCURVE",
"677 592 CURVE SMOOTH",
"677 616 OFFCURVE",
"673 643 OFFCURVE",
"667 675 CURVE"
);
}
);
width = 757.99984;
}
);
leftMetricsKey = d;
rightMetricsKey = d;
unicode = 010F;
},
{
glyphname = dcroat;
lastChange = "2021-09-01 17:33:15 +0000";
layers = (
{
components = (
{
alignment = -1;
name = d;
}
);
hints = (
{
horizontal = 1;
place = "{525, 69}";
type = Stem;
}
);
layerId = "0CF0EA28-C756-4A9E-9D7C-CFEF350B4CFE";
paths = (
{
closed = 1;
nodes = (
"367 525 LINE",
"608 525 LINE",
"608 594 LINE",
"367 594 LINE"
);
}
);
width = 680;
},
{
components = (
{
alignment = -1;
name = d;
}
);
hints = (
{
horizontal = 1;
place = "{589, 21}";
target = up;
type = BottomGhost;
},
{
horizontal = 1;
place = "{607, -20}";
target = down;
type = TopGhost;
}
);
layerId = "6E968933-CD79-43C6-9231-80D77C940F4D";
paths = (
{
closed = 1;
nodes = (
"313 600 LINE",
"584 600 LINE",
"584 619 LINE",
"313 619 LINE"
);
}
);
width = 674.00106;
},
{
components = (
{
alignment = -1;
name = d;
}
);
hints = (
{
horizontal = 1;
place = "{507, 93}";
type = Stem;
}
);
layerId = "BAF31694-0472-4296-B0EA-1654553C45D2";
paths = (
{
closed = 1;
nodes = (
"309 507 LINE",
"598 507 LINE",
"598 600 LINE",
"309 600 LINE"
);
}
);
width = 647.51415;
},
{
components = (
{
alignment = -1;
name = d;
}
);
hints = (
{
horizontal = 1;
place = "{221, 21}";
target = up;
type = BottomGhost;
},
{
horizontal = 1;
place = "{228, -20}";
target = down;
type = TopGhost;
}
);
layerId = "9F107B1E-3A61-4335-981B-27DD48125C7E";
paths = (
{
closed = 1;
nodes = (
"347 553 LINE",
"599 553 LINE",
"599 603 LINE",
"347 603 LINE"
);
}
);
width = 679.9954;
}
);
leftMetricsKey = d;
rightMetricsKey = d;
unicode = 0111;
},
{
glyphname = e;
lastChange = "2021-09-01 17:33:15 +0000";
layers = (
{
anchors = (
{
name = bottom;
position = "{291.2, 5}";
},
{
name = ogonek;
position = "{377.2, 5}";
},
{
name = right;
position = "{3079.2, 238}";
},
{
name = top;
position = "{291.2, 496}";
}
);
hints = (
{
place = "{414, 119}";
type = Stem;
},
{
horizontal = 1;
place = "{-8, 96}";
type = Stem;
},
{
horizontal = 1;
place = "{207, 92}";
type = Stem;
},
{
horizontal = 1;
place = "{413, 96}";
type = Stem;
}
);
layerId = "0CF0EA28-C756-4A9E-9D7C-CFEF350B4CFE";
paths = (
{
closed = 1;
nodes = (
"404.2 -7 OFFCURVE",
"480.2 44 OFFCURVE",
"519.2 121 CURVE",
"424.2 153 LINE",
"402.2 108 OFFCURVE",
"358.2 90 OFFCURVE",
"289.2 90 CURVE SMOOTH",
"220.2 90 OFFCURVE",
"168.2 133 OFFCURVE",
"161.2 207 CURVE",
"525.2 207 LINE",
"529.2 228 OFFCURVE",
"530.2 245 OFFCURVE",
"530.2 262 CURVE SMOOTH",
"530.2 410 OFFCURVE",
"432.2 507 OFFCURVE",
"289.2 507 CURVE SMOOTH",
"140.2 507 OFFCURVE",
"43.2 409 OFFCURVE",
"43.2 252 CURVE SMOOTH",
"43.2 96 OFFCURVE",
"148.2 -7 OFFCURVE",
"292.2 -7 CURVE SMOOTH"
);
},
{
closed = 1;
nodes = (
"162.2 299 LINE",
"174.2 368 OFFCURVE",
"222.2 412 OFFCURVE",
"284.2 412 CURVE SMOOTH",
"355.2 412 OFFCURVE",
"408.2 371 OFFCURVE",
"411.2 299 CURVE"
);
}
);
width = 573.4;
},
{
anchors = (
{
name = bottom;
position = "{290, 1}";
},
{
name = ogonek;
position = "{332, -3}";
},
{
name = right;
position = "{3184, 243}";
},
{
name = top;
position = "{290, 501}";
}
);
hints = (
{
place = "{59, 22}";
type = Stem;
},
{
place = "{492, 22}";
type = Stem;
},
{
horizontal = 1;
place = "{497, -20}";
target = down;
type = TopGhost;
},
{
horizontal = 1;
place = "{-6, 21}";
target = up;
type = BottomGhost;
}
);
layerId = "6E968933-CD79-43C6-9231-80D77C940F4D";
paths = (
{
closed = 1;
nodes = (
"399 -7 OFFCURVE",
"474 48 OFFCURVE",
"506 129 CURVE",
"488 136 LINE",
"456 58 OFFCURVE",
"384 13 OFFCURVE",
"287 13 CURVE SMOOTH",
"178 13 OFFCURVE",
"78 85 OFFCURVE",
"76 250 CURVE",
"513 250 LINE",
"514 267 OFFCURVE",
"513 281 OFFCURVE",
"513 291 CURVE SMOOTH",
"513 398 OFFCURVE",
"440 507 OFFCURVE",
"287 507 CURVE SMOOTH",
"148 507 OFFCURVE",
"54 412 OFFCURVE",
"54 255 CURVE SMOOTH",
"54 94 OFFCURVE",
"148 -7 OFFCURVE",
"287 -7 CURVE SMOOTH"
);
},
{
closed = 1;
nodes = (
"76 270 LINE",
"81 421 OFFCURVE",
"180 487 OFFCURVE",
"287 487 CURVE SMOOTH",
"401 487 OFFCURVE",
"501 411 OFFCURVE",
"491 270 CURVE"
);
}
);
width = 567.44702;
},
{
anchors = (
{
name = bottom;
position = "{283.7, 8}";
},
{
name = ogonek;
position = "{365.7, 7}";
},
{
name = right;
position = "{2970.7, 236}";
},
{
name = top;
position = "{283.7, 494}";
}
);
hints = (
{
place = "{176, 51}";
type = Stem;
},
{
horizontal = 1;
place = "{-7, 142}";
type = Stem;
},
{
horizontal = 1;
place = "{205, 104}";
type = Stem;
},
{
horizontal = 1;
place = "{370, 138}";
type = Stem;
}
);
layerId = "BAF31694-0472-4296-B0EA-1654553C45D2";
paths = (
{
closed = 1;
nodes = (
"400.7 -6 OFFCURVE",
"483.7 40 OFFCURVE",
"526.7 139 CURVE",
"378.7 176 LINE",
"361.7 147 OFFCURVE",
"335.7 133 OFFCURVE",
"292.7 133 CURVE SMOOTH",
"253.7 133 OFFCURVE",
"213.7 162 OFFCURVE",
"204.7 206 CURVE",
"529.7 206 LINE",
"532.7 227 OFFCURVE",
"533.7 244 OFFCURVE",
"533.7 258 CURVE SMOOTH",
"533.7 411 OFFCURVE",
"430.7 507 OFFCURVE",
"282.7 507 CURVE SMOOTH",
"131.7 507 OFFCURVE",
"29.7 414 OFFCURVE",
"29.7 256 CURVE SMOOTH",
"29.7 97 OFFCURVE",
"135.7 -7 OFFCURVE",
"283.7 -7 CURVE SMOOTH"
);
},
{
closed = 1;
nodes = (
"206.7 302 LINE",
"211.7 340 OFFCURVE",
"243.71 371.143 OFFCURVE",
"282.7 372 CURVE SMOOTH",
"324.702 372.923 OFFCURVE",
"352.7 341 OFFCURVE",
"354.7 302 CURVE"
);
}
);
width = 563.40104;
},
{
anchors = (
{
name = bottom;
position = "{291.6, 4}";
},
{
name = ogonek;
position = "{361.6, 2}";
},
{
name = right;
position = "{3119.6, 240}";
},
{
name = top;
position = "{291.6, 498}";
}
);
hints = (
{
place = "{152, 66}";
type = Stem;
},
{
place = "{443, 68}";
type = Stem;
},
{
horizontal = 1;
place = "{186, -20}";
target = down;
type = TopGhost;
},
{
horizontal = 1;
place = "{-2, 21}";
target = up;
type = BottomGhost;
}
);
layerId = "9F107B1E-3A61-4335-981B-27DD48125C7E";
paths = (
{
closed = 1;
nodes = (
"403.6 -7 OFFCURVE",
"476.6 45 OFFCURVE",
"513.6 123 CURVE",
"448.6 149 LINE",
"423.6 91 OFFCURVE",
"367.6 64 OFFCURVE",
"289.6 64 CURVE SMOOTH",
"204.6 64 OFFCURVE",
"135.6 115 OFFCURVE",
"130.6 224 CURVE",
"521.6 224 LINE",
"524.6 243 OFFCURVE",
"524.6 259 OFFCURVE",
"524.6 273 CURVE SMOOTH",
"524.6 406 OFFCURVE",
"436.6 507 OFFCURVE",
"289.6 507 CURVE SMOOTH",
"144.6 507 OFFCURVE",
"48.6 412 OFFCURVE",
"48.6 255 CURVE SMOOTH",
"48.6 96 OFFCURVE",
"149.6 -7 OFFCURVE",
"291.6 -7 CURVE SMOOTH"
);
},
{
closed = 1;
nodes = (
"131.6 289 LINE",
"140.6 388 OFFCURVE",
"207.6 436 OFFCURVE",
"286.6 436 CURVE SMOOTH",
"373.6 436 OFFCURVE",
"444.6 386 OFFCURVE",
"442.6 289 CURVE"
);
}
);
width = 573.20263;
}
);
leftMetricsKey = o;
rightMetricsKey = o;
unicode = 0065;
},
{
glyphname = f;
lastChange = "2021-09-01 17:33:15 +0000";
layers = (
{
hints = (
{
place = "{94, 115}";
type = Stem;
},
{
place = "{94, 199}";
type = Stem;
},
{
horizontal = 1;
place = "{400, 99}";
type = Stem;
},
{
horizontal = 1;
place = "{0, 21}";
target = up;
type = BottomGhost;
}
);
layerId = "0CF0EA28-C756-4A9E-9D7C-CFEF350B4CFE";
paths = (
{
closed = 1;
nodes = (
"93.395 0 LINE",
"207.395 0 LINE",
"207.395 553 LINE SMOOTH",
"207.395 606 OFFCURVE",
"228.395 632 OFFCURVE",
"291.395 626 CURVE",
"291.395 720 LINE",
"154.395 734 OFFCURVE",
"93.395 670 OFFCURVE",
"93.395 553 CURVE SMOOTH"
);
},
{
closed = 1;
nodes = (
"32.395 405 LINE",
"298.395 405 LINE",
"298.395 500 LINE",
"32.395 500 LINE"
);
}
);
width = 330.79;
},
{
hints = (
{
place = "{128, 22}";
type = Stem;
},
{
horizontal = 1;
place = "{472, 25}";
type = Stem;
},
{
horizontal = 1;
place = "{498, 198}";
type = Stem;
},
{
horizontal = 1;
place = "{0, 21}";
target = up;
type = BottomGhost;
}
);
layerId = "6E968933-CD79-43C6-9231-80D77C940F4D";
paths = (
{
closed = 1;
nodes = (
"126.495 0 LINE",
"148.495 0 LINE",
"148.495 569 LINE SMOOTH",
"148.495 657 OFFCURVE",
"181.495 706 OFFCURVE",
"290.495 698 CURVE",
"290.495 719 LINE",
"167.495 729 OFFCURVE",
"126.495 667 OFFCURVE",
"126.495 569 CURVE SMOOTH"
);
},
{
closed = 1;
nodes = (
"40.495 478 LINE",
"290.495 478 LINE",
"290.495 500 LINE",
"40.495 500 LINE"
);
}
);
width = 330.99372;
},
{
hints = (
{
place = "{40, 49}";
type = Stem;
},
{
place = "{76, 212}";
type = Stem;
},
{
horizontal = 1;
place = "{352, 148}";
type = Stem;
},
{
horizontal = 1;
place = "{0, 21}";
target = up;
type = BottomGhost;
}
);
layerId = "BAF31694-0472-4296-B0EA-1654553C45D2";
paths = (
{
closed = 1;
nodes = (
"78.275 0 LINE",
"252.275 0 LINE",
"252.275 513 LINE SMOOTH",
"252.275 560 OFFCURVE",
"278.275 581 OFFCURVE",
"328.275 573 CURVE",
"328.275 720 LINE",
"180.275 737 OFFCURVE",
"78.275 682 OFFCURVE",
"78.275 529 CURVE SMOOTH"
);
},
{
closed = 1;
nodes = (
"22.275 354 LINE",
"331.275 354 LINE",
"331.275 500 LINE",
"22.275 500 LINE"
);
}
);
width = 353.55007;
},
{
hints = (
{
place = "{107, 80}";
type = Stem;
},
{
horizontal = 1;
place = "{236, 134}";
type = Stem;
},
{
horizontal = 1;
place = "{437, 136}";
type = Stem;
},
{
horizontal = 1;
place = "{0, 21}";
target = up;
type = BottomGhost;
}
);
layerId = "9F107B1E-3A61-4335-981B-27DD48125C7E";
paths = (
{
closed = 1;
nodes = (
"106.45 0 LINE",
"186.45 0 LINE",
"186.45 559 LINE SMOOTH",
"186.45 625 OFFCURVE",
"212.45 660 OFFCURVE",
"292.45 653 CURVE",
"292.45 720 LINE",
"160.45 730 OFFCURVE",
"106.45 669 OFFCURVE",
"106.45 559 CURVE SMOOTH"
);
},
{
closed = 1;
nodes = (
"36.45 430 LINE",
"296.45 430 LINE",
"296.45 500 LINE",
"36.45 500 LINE"
);
}
);
width = 332.89958;
}
);
leftMetricsKey = "=l*0.45";
rightMetricsKey = "=l*0.45";
unicode = 0066;
},
{
glyphname = g;
lastChange = "2021-09-01 17:33:15 +0000";
layers = (
{
anchors = (
{
name = top;
position = "{309.2, 496}";
}
);
hints = (
{
place = "{46, 117}";
type = Stem;
},
{
place = "{438, 115}";
type = Stem;
},
{
horizontal = 1;
place = "{-200, 96}";
type = Stem;
},
{
horizontal = 1;
place = "{-8, 98}";
type = Stem;
},
{
horizontal = 1;
place = "{410, 98}";
type = Stem;
}
);
layerId = "0CF0EA28-C756-4A9E-9D7C-CFEF350B4CFE";
paths = (
{
closed = 1;
nodes = (
"437.2 439 LINE",
"403.2 477 OFFCURVE",
"346.2 507 OFFCURVE",
"272.2 507 CURVE SMOOTH",
"139.2 507 OFFCURVE",
"43.2 404 OFFCURVE",
"43.2 250 CURVE SMOOTH",
"43.2 95 OFFCURVE",
"139.2 -7 OFFCURVE",
"272.2 -7 CURVE",
"353.2 -7 OFFCURVE",
"414.2 34 OFFCURVE",
"446.2 76 CURVE",
"435.2 76 LINE",
"435.2 75 LINE SMOOTH",
"435.2 -52 OFFCURVE",
"317.2 -99 OFFCURVE",
"179.2 -106 CURVE",
"196.2 -200 LINE",
"398.2 -196 OFFCURVE",
"550.2 -100 OFFCURVE",
"550.2 75 CURVE SMOOTH",
"550.2 500 LINE",
"445.2 500 LINE"
);
},
{
closed = 1;
nodes = (
"159.2 352 OFFCURVE",
"226.2 408 OFFCURVE",
"298.2 408 CURVE SMOOTH",
"371.2 408 OFFCURVE",
"435.2 352 OFFCURVE",
"435.2 250 CURVE SMOOTH",
"435.2 147 OFFCURVE",
"371.2 91 OFFCURVE",
"298.2 91 CURVE SMOOTH",
"226.2 91 OFFCURVE",
"159.2 147 OFFCURVE",
"159.2 250 CURVE SMOOTH"
);
}
);
width = 622.2;
},
{
anchors = (
{
name = top;
position = "{302, 501}";
}
);
hints = (
{
place = "{52, 22}";
type = Stem;
},
{
place = "{503, 22}";
type = Stem;
},
{
horizontal = 1;
place = "{-187, 210}";
type = Stem;
},
{
horizontal = 1;
place = "{497, -20}";
target = down;
type = TopGhost;
}
);
layerId = "6E968933-CD79-43C6-9231-80D77C940F4D";
paths = (
{
closed = 1;
nodes = (
"511 359 LINE",
"482 441 OFFCURVE",
"407 507 OFFCURVE",
"292 507 CURVE SMOOTH",
"148 507 OFFCURVE",
"54 409 OFFCURVE",
"54 250 CURVE SMOOTH",
"54 90 OFFCURVE",
"148 -7 OFFCURVE",
"292 -7 CURVE",
"408 -5 OFFCURVE",
"484 61 OFFCURVE",
"512 147 CURVE",
"510 147 LINE",
"510 120 LINE SMOOTH",
"510 -104 OFFCURVE",
"370 -173 OFFCURVE",
"195 -180 CURVE",
"198 -200 LINE",
"380 -194 OFFCURVE",
"533 -120 OFFCURVE",
"533 120 CURVE SMOOTH",
"533 500 LINE",
"511 500 LINE"
);
},
{
closed = 1;
nodes = (
"76 397 OFFCURVE",
"158 487 OFFCURVE",
"294 487 CURVE SMOOTH",
"422 487 OFFCURVE",
"510 393 OFFCURVE",
"510 250 CURVE SMOOTH",
"510 107 OFFCURVE",
"422 13 OFFCURVE",
"294 13 CURVE SMOOTH",
"158 13 OFFCURVE",
"76 102 OFFCURVE",
"76 250 CURVE SMOOTH"
);
}
);
width = 623.0034;
},
{
anchors = (
{
name = top;
position = "{309.7, 490}";
}
);
hints = (
{
place = "{29, 179}";
type = Stem;
},
{
place = "{382, 176}";
type = Stem;
},
{
horizontal = 1;
place = "{-201, 136}";
type = Stem;
},
{
horizontal = 1;
place = "{-7, 153}";
type = Stem;
},
{
horizontal = 1;
place = "{355, 153}";
type = Stem;
}
);
layerId = "BAF31694-0472-4296-B0EA-1654553C45D2";
paths = (
{
closed = 1;
nodes = (
"388.7 441 LINE",
"357.7 474 OFFCURVE",
"309.7 507 OFFCURVE",
"248.7 507 CURVE SMOOTH",
"124.7 507 OFFCURVE",
"29.7 409 OFFCURVE",
"29.7 250 CURVE SMOOTH",
"29.7 92 OFFCURVE",
"124.7 -7 OFFCURVE",
"248.7 -7 CURVE",
"323.7 -7 OFFCURVE",
"379.7 30 OFFCURVE",
"408.7 77 CURVE",
"382.7 61 LINE",
"382.7 59 LINE SMOOTH",
"382.7 -42 OFFCURVE",
"274.7 -61 OFFCURVE",
"168.7 -66 CURVE",
"195.7 -200 LINE",
"404.7 -195 OFFCURVE",
"556.7 -113 OFFCURVE",
"556.7 71 CURVE SMOOTH",
"556.7 500 LINE",
"398.7 500 LINE"
);
},
{
closed = 1;
nodes = (
"206.7 318 OFFCURVE",
"248.7 354 OFFCURVE",
"295.7 354 CURVE SMOOTH",
"342.7 354 OFFCURVE",
"382.7 317 OFFCURVE",
"382.7 250 CURVE SMOOTH",
"382.7 182 OFFCURVE",
"342.7 146 OFFCURVE",
"295.7 146 CURVE SMOOTH",
"248.7 146 OFFCURVE",
"206.7 183 OFFCURVE",
"206.7 250 CURVE SMOOTH"
);
}
);
width = 606.21142;
},
{
anchors = (
{
name = top;
position = "{307.6, 498}";
}
);
hints = (
{
place = "{-106, 68}";
type = Stem;
},
{
place = "{184, 70}";
type = Stem;
},
{
horizontal = 1;
place = "{186, 140}";
type = Stem;
},
{
horizontal = 1;
place = "{186, -20}";
target = down;
type = TopGhost;
}
);
layerId = "9F107B1E-3A61-4335-981B-27DD48125C7E";
paths = (
{
closed = 1;
nodes = (
"466.6 409 LINE",
"433.6 464 OFFCURVE",
"370.6 507 OFFCURVE",
"280.6 507 CURVE SMOOTH",
"143.6 507 OFFCURVE",
"48.6 406 OFFCURVE",
"48.6 250 CURVE SMOOTH",
"48.6 93 OFFCURVE",
"143.6 -7 OFFCURVE",
"280.6 -7 CURVE",
"374.6 -6 OFFCURVE",
"441.6 44 OFFCURVE",
"472.6 103 CURVE",
"464.6 103 LINE",
"464.6 92 LINE SMOOTH",
"464.6 -72 OFFCURVE",
"338.6 -124 OFFCURVE",
"186.6 -131 CURVE",
"198.6 -200 LINE",
"392.6 -195 OFFCURVE",
"544.6 -108 OFFCURVE",
"544.6 92 CURVE SMOOTH",
"544.6 500 LINE",
"471.6 500 LINE"
);
},
{
closed = 1;
nodes = (
"129.6 369 OFFCURVE",
"201.6 437 OFFCURVE",
"297.6 437 CURVE SMOOTH",
"390.6 437 OFFCURVE",
"464.6 367 OFFCURVE",
"464.6 250 CURVE SMOOTH",
"464.6 132 OFFCURVE",
"390.6 62 OFFCURVE",
"297.6 62 CURVE SMOOTH",
"201.6 62 OFFCURVE",
"129.6 130 OFFCURVE",
"129.6 250 CURVE SMOOTH"
);
}
);
width = 625.59628;
}
);
leftMetricsKey = o;
rightMetricsKey = l;
unicode = 0067;
},
{
glyphname = gcommaaccent;
lastChange = "2021-09-01 17:33:15 +0000";
layers = (
{
components = (
{
alignment = -1;
name = g;
}
);
hints = (
{
place = "{218, 70}";
type = Stem;
},
{
place = "{218, 116}";
type = Stem;
},
{
place = "{218, 112}";
type = Stem;
},
{
horizontal = 1;
place = "{531, 97}";
type = Stem;
},
{
horizontal = 1;
place = "{741, -20}";
target = down;
type = TopGhost;
}
);
layerId = "0CF0EA28-C756-4A9E-9D7C-CFEF350B4CFE";
paths = (
{
closed = 1;
nodes = (
"353 531 LINE",
"353 628 LINE",
"307 628 LINE",
"307 641 LINE SMOOTH",
"307 671 OFFCURVE",
"320 686 OFFCURVE",
"350 686 CURVE",
"350 741 LINE",
"276 741 OFFCURVE",
"238 702 OFFCURVE",
"238 625 CURVE SMOOTH",
"238 599 OFFCURVE",
"241 568 OFFCURVE",
"250 531 CURVE"
);
}
);
width = 622.2;
},
{
components = (
{
alignment = -1;
name = g;
}
);
hints = (
{
place = "{287, 24}";
type = Stem;
},
{
place = "{293, 58}";
type = Stem;
},
{
horizontal = 1;
place = "{537, 21}";
target = up;
type = BottomGhost;
},
{
horizontal = 1;
place = "{688, -20}";
target = down;
type = TopGhost;
}
);
layerId = "6E968933-CD79-43C6-9231-80D77C940F4D";
paths = (
{
closed = 1;
nodes = (
"344 549 LINE",
"344 600 LINE",
"309 600 LINE",
"309 626 LINE SMOOTH",
"309 653 OFFCURVE",
"318 667 OFFCURVE",
"351 667 CURVE",
"351 688 LINE",
"312 688 OFFCURVE",
"286 673 OFFCURVE",
"286 614 CURVE SMOOTH",
"286 597 OFFCURVE",
"287 576 OFFCURVE",
"290 549 CURVE"
);
}
);
width = 623.00319;
},
{
components = (
{
alignment = -1;
name = g;
}
);
hints = (
{
place = "{93, 30}";
type = Stem;
},
{
place = "{216, 157}";
type = Stem;
},
{
place = "{216, 148}";
type = Stem;
},
{
horizontal = 1;
place = "{513, 129}";
type = Stem;
},
{
horizontal = 1;
place = "{769, -20}";
target = down;
type = TopGhost;
}
);
layerId = "BAF31694-0472-4296-B0EA-1654553C45D2";
paths = (
{
closed = 1;
nodes = (
"373 529 LINE",
"373 658 LINE",
"319 658 LINE",
"321 673 LINE SMOOTH",
"325 696 OFFCURVE",
"339 707 OFFCURVE",
"363 707 CURVE",
"363 785 LINE",
"263 785 OFFCURVE",
"216 726 OFFCURVE",
"216 642 CURVE SMOOTH",
"216 611 OFFCURVE",
"222 573 OFFCURVE",
"236 529 CURVE"
);
}
);
width = 606.21142;
},
{
components = (
{
alignment = -1;
name = g;
}
);
hints = (
{
place = "{244, 82}";
type = Stem;
},
{
place = "{442, 82}";
type = Stem;
},
{
horizontal = 1;
place = "{201, 21}";
target = up;
type = BottomGhost;
},
{
horizontal = 1;
place = "{721, -20}";
target = down;
type = TopGhost;
}
);
layerId = "9F107B1E-3A61-4335-981B-27DD48125C7E";
paths = (
{
closed = 1;
nodes = (
"347 538 LINE",
"347 618 LINE",
"305 618 LINE",
"305 635 LINE SMOOTH",
"305 664 OFFCURVE",
"317 679 OFFCURVE",
"348 679 CURVE",
"348 721 LINE",
"287 721 OFFCURVE",
"254 691 OFFCURVE",
"254 621 CURVE SMOOTH",
"254 598 OFFCURVE",
"256 571 OFFCURVE",
"263 538 CURVE"
);
}
);
width = 625.5962;
}
);
leftMetricsKey = g;
rightMetricsKey = g;
unicode = 0123;
},
{
glyphname = h;
lastChange = "2021-09-01 17:33:15 +0000";
layers = (
{
hints = (
{
place = "{77, 114}";
type = Stem;
},
{
place = "{411, 113}";
type = Stem;
},
{
horizontal = 1;
place = "{410, 98}";
type = Stem;
},
{
horizontal = 1;
place = "{720, -20}";
target = down;
type = TopGhost;
},
{
horizontal = 1;
place = "{0, 21}";
target = up;
type = BottomGhost;
}
);
layerId = "0CF0EA28-C756-4A9E-9D7C-CFEF350B4CFE";
paths = (
{
closed = 1;
nodes = (
"72 0 LINE",
"186 0 LINE",
"186 720 LINE",
"72 720 LINE"
);
},
{
closed = 1;
nodes = (
"405 0 LINE",
"518 0 LINE",
"518 292 LINE SMOOTH",
"518 433 OFFCURVE",
"440 507 OFFCURVE",
"327 507 CURVE SMOOTH",
"239 507 OFFCURVE",
"168 460 OFFCURVE",
"146 388 CURVE",
"174 275 LINE",
"186 276 LINE",
"186 363 OFFCURVE",
"228 408 OFFCURVE",
"298 408 CURVE SMOOTH",
"368 408 OFFCURVE",
"405 364 OFFCURVE",
"405 277 CURVE SMOOTH"
);
}
);
width = 582.8;
},
{
hints = (
{
place = "{102, 22}";
type = Stem;
},
{
horizontal = 1;
place = "{720, -20}";
target = down;
type = TopGhost;
},
{
horizontal = 1;
place = "{0, 21}";
target = up;
type = BottomGhost;
}
);
layerId = "6E968933-CD79-43C6-9231-80D77C940F4D";
paths = (
{
closed = 1;
nodes = (
"90 0 LINE",
"112 0 LINE",
"112 720 LINE",
"90 720 LINE"
);
},
{
closed = 1;
nodes = (
"477 0 LINE",
"499 0 LINE",
"499 281 LINE SMOOTH",
"499 441 OFFCURVE",
"413 507 OFFCURVE",
"303 507 CURVE SMOOTH",
"194 507 OFFCURVE",
"109 440 OFFCURVE",
"103 308 CURVE",
"110 251 LINE",
"112 251 LINE",
"112 405 OFFCURVE",
"190 487 OFFCURVE",
"302 487 CURVE SMOOTH",
"411 487 OFFCURVE",
"477 414 OFFCURVE",
"477 282 CURVE SMOOTH"
);
}
);
width = 579.99979;
},
{
hints = (
{
place = "{33, 48}";
type = Stem;
},
{
place = "{191, 176}";
type = Stem;
},
{
horizontal = 1;
place = "{373, 169}";
type = Stem;
},
{
horizontal = 1;
place = "{720, -20}";
target = down;
type = TopGhost;
},
{
horizontal = 1;
place = "{0, 21}";
target = up;
type = BottomGhost;
}
);
layerId = "BAF31694-0472-4296-B0EA-1654553C45D2";
paths = (
{
closed = 1;
nodes = (
"49.5 0 LINE",
"223.5 0 LINE",
"223.5 720 LINE",
"49.5 720 LINE"
);
},
{
closed = 1;
nodes = (
"372.5 0 LINE",
"546.5 0 LINE",
"546.5 292 LINE SMOOTH",
"546.5 427 OFFCURVE",
"473.5 507 OFFCURVE",
"356.5 507 CURVE SMOOTH",
"265.5 507 OFFCURVE",
"205.5 436 OFFCURVE",
"181.5 373 CURVE",
"197.5 265 LINE",
"223.5 260 LINE",
"223.5 318 OFFCURVE",
"251.5 360 OFFCURVE",
"298.5 360 CURVE SMOOTH",
"345.5 360 OFFCURVE",
"372.5 329 OFFCURVE",
"372.5 272 CURVE SMOOTH"
);
}
);
width = 591.04717;
},
{
hints = (
{
place = "{295, 70}";
type = Stem;
},
{
horizontal = 1;
place = "{720, -20}";
target = down;
type = TopGhost;
},
{
horizontal = 1;
place = "{0, 21}";
target = up;
type = BottomGhost;
}
);
layerId = "9F107B1E-3A61-4335-981B-27DD48125C7E";
paths = (
{
closed = 1;
nodes = (
"81 0 LINE",
"161 0 LINE",
"161 720 LINE",
"81 720 LINE"
);
},
{
closed = 1;
nodes = (
"434 0 LINE",
"514 0 LINE",
"514 286 LINE SMOOTH",
"514 432 OFFCURVE",
"432 507 OFFCURVE",
"321 507 CURVE SMOOTH",
"225 507 OFFCURVE",
"148 452 OFFCURVE",
"132 358 CURVE",
"153 266 LINE",
"161 266 LINE",
"161 378 OFFCURVE",
"216 438 OFFCURVE",
"302 438 CURVE SMOOTH",
"387 438 OFFCURVE",
"434 381 OFFCURVE",
"434 277 CURVE SMOOTH"
);
}
);
width = 586.90242;
}
);
leftMetricsKey = l;
rightMetricsKey = n;
unicode = 0068;
},
{
glyphname = i;
lastChange = "2021-09-01 17:33:15 +0000";
layers = (
{
anchors = (
{
name = ogonek;
position = "{192, 6}";
}
);
hints = (
{
place = "{76, 142}";
type = Stem;
},
{
place = "{90, 114}";
type = Stem;
},
{
horizontal = 1;
place = "{579, 140}";
type = Stem;
},
{
horizontal = 1;
place = "{0, 21}";
target = up;
type = BottomGhost;
}
);
layerId = "0CF0EA28-C756-4A9E-9D7C-CFEF350B4CFE";
paths = (
{
closed = 1;
nodes = (
"85 0 LINE",
"199 0 LINE",
"199 500 LINE",
"85 500 LINE"
);
},
{
closed = 1;
nodes = (
"182 579 OFFCURVE",
"213 610 OFFCURVE",
"213 649 CURVE SMOOTH",
"213 689 OFFCURVE",
"182 720 OFFCURVE",
"143 720 CURVE SMOOTH",
"103 720 OFFCURVE",
"72 689 OFFCURVE",
"72 649 CURVE SMOOTH",
"72 610 OFFCURVE",
"103 579 OFFCURVE",
"143 579 CURVE SMOOTH"
);
}
);
width = 285;
},
{
anchors = (
{
name = ogonek;
position = "{122, 1}";
}
);
hints = (
{
place = "{95, 44}";
type = Stem;
},
{
place = "{116, 23}";
type = Stem;
},
{
horizontal = 1;
place = "{666, -20}";
target = down;
type = TopGhost;
},
{
horizontal = 1;
place = "{0, 21}";
target = up;
type = BottomGhost;
}
);
layerId = "6E968933-CD79-43C6-9231-80D77C940F4D";
paths = (
{
closed = 1;
nodes = (
"101 0 LINE",
"123 0 LINE",
"123 500 LINE",
"101 500 LINE"
);
},
{
closed = 1;
nodes = (
"124 635 OFFCURVE",
"134 643 OFFCURVE",
"134 657 CURVE SMOOTH",
"134 672 OFFCURVE",
"124 680 OFFCURVE",
"112 680 CURVE SMOOTH",
"100 680 OFFCURVE",
"90 672 OFFCURVE",
"90 657 CURVE SMOOTH",
"90 643 OFFCURVE",
"100 635 OFFCURVE",
"112 635 CURVE SMOOTH"
);
}
);
width = 224.00319;
},
{
anchors = (
{
name = ogonek;
position = "{225.5, 11}";
}
);
hints = (
{
place = "{48, 204}";
type = Stem;
},
{
place = "{62, 176}";
type = Stem;
},
{
horizontal = 1;
place = "{538, 183}";
type = Stem;
},
{
horizontal = 1;
place = "{0, 21}";
target = up;
type = BottomGhost;
}
);
layerId = "BAF31694-0472-4296-B0EA-1654553C45D2";
paths = (
{
closed = 1;
nodes = (
"63.5 0 LINE",
"237.5 0 LINE",
"237.5 500 LINE",
"63.5 500 LINE"
);
},
{
closed = 1;
nodes = (
"212.5 537 OFFCURVE",
"253.5 577 OFFCURVE",
"253.5 628 CURVE SMOOTH",
"253.5 680 OFFCURVE",
"212.5 720 OFFCURVE",
"151.5 720 CURVE SMOOTH",
"90.5 720 OFFCURVE",
"49.5 680 OFFCURVE",
"49.5 628 CURVE SMOOTH",
"49.5 577 OFFCURVE",
"90.5 537 OFFCURVE",
"151.5 537 CURVE SMOOTH"
);
}
);
width = 303.00896;
},
{
anchors = (
{
name = ogonek;
position = "{168, 4}";
}
);
hints = (
{
place = "{92, 88}";
type = Stem;
},
{
place = "{405, 96}";
type = Stem;
},
{
horizontal = 1;
place = "{250, -20}";
target = down;
type = TopGhost;
},
{
horizontal = 1;
place = "{0, 21}";
target = up;
type = BottomGhost;
}
);
layerId = "9F107B1E-3A61-4335-981B-27DD48125C7E";
paths = (
{
closed = 1;
nodes = (
"94 0 LINE",
"173 0 LINE",
"173 500 LINE",
"94 500 LINE"
);
},
{
closed = 1;
nodes = (
"163 600 OFFCURVE",
"186 623 OFFCURVE",
"186 652 CURVE SMOOTH",
"186 683 OFFCURVE",
"163 705 OFFCURVE",
"134 705 CURVE SMOOTH",
"104 705 OFFCURVE",
"81 683 OFFCURVE",
"81 652 CURVE SMOOTH",
"81 623 OFFCURVE",
"104 600 OFFCURVE",
"134 600 CURVE SMOOTH"
);
}
);
width = 267.0012;
}
);
leftMetricsKey = l;
rightMetricsKey = l;
unicode = 0069;
},
{
glyphname = idotless;
lastChange = "2021-09-01 17:33:15 +0000";
layers = (
{
anchors = (
{
name = ogonek;
position = "{223, 14}";
},
{
name = top;
position = "{129, 496}";
}
);
hints = (
{
place = "{77, 114}";
type = Stem;
},
{
horizontal = 1;
place = "{0, 21}";
target = up;
type = BottomGhost;
},
{
horizontal = 1;
place = "{501, -20}";
target = down;
type = TopGhost;
}
);
layerId = "0CF0EA28-C756-4A9E-9D7C-CFEF350B4CFE";
paths = (
{
closed = 1;
nodes = (
"72 0 LINE",
"186 0 LINE",
"186 500 LINE",
"72 500 LINE"
);
}
);
width = 258;
},
{
anchors = (
{
name = ogonek;
position = "{165, 10}";
},
{
name = top;
position = "{101, 501}";
}
);
hints = (
{
place = "{95, 22}";
type = Stem;
},
{
horizontal = 1;
place = "{0, 21}";
target = up;
type = BottomGhost;
},
{
horizontal = 1;
place = "{501, -20}";
target = down;
type = TopGhost;
}
);
layerId = "6E968933-CD79-43C6-9231-80D77C940F4D";
paths = (
{
closed = 1;
nodes = (
"90 0 LINE",
"112 0 LINE",
"112 500 LINE",
"90 500 LINE"
);
}
);
width = 202.00404;
},
{
anchors = (
{
name = ogonek;
position = "{249.5, 20}";
},
{
name = top;
position = "{137.5, 490}";
}
);
hints = (
{
place = "{49, 176}";
type = Stem;
},
{
horizontal = 1;
place = "{0, 21}";
target = up;
type = BottomGhost;
},
{
horizontal = 1;
place = "{501, -20}";
target = down;
type = TopGhost;
}
);
layerId = "BAF31694-0472-4296-B0EA-1654553C45D2";
paths = (
{
closed = 1;
nodes = (
"49.5 0 LINE",
"225.5 0 LINE",
"225.5 500 LINE",
"49.5 500 LINE"
);
}
);
width = 275.00925;
},
{
anchors = (
{
name = ogonek;
position = "{204, 13}";
},
{
name = top;
position = "{121, 498}";
}
);
hints = (
{
place = "{84, 80}";
type = Stem;
},
{
horizontal = 1;
place = "{0, 21}";
target = up;
type = BottomGhost;
},
{
horizontal = 1;
place = "{501, -20}";
target = down;
type = TopGhost;
}
);
layerId = "9F107B1E-3A61-4335-981B-27DD48125C7E";
paths = (
{
closed = 1;
nodes = (
"81 0 LINE",
"161 0 LINE",
"161 500 LINE",
"81 500 LINE"
);
}
);
width = 241.99651;
}
);
leftMetricsKey = l;
rightMetricsKey = l;
unicode = 0131;
},
{
glyphname = j;
lastChange = "2021-09-01 17:33:15 +0000";
layers = (
{
hints = (
{
place = "{81, 142}";
type = Stem;
},
{
place = "{95, 114}";
type = Stem;
},
{
horizontal = 1;
place = "{579, 140}";
type = Stem;
}
);
layerId = "0CF0EA28-C756-4A9E-9D7C-CFEF350B4CFE";
leftMetricsKey = "=l*-0.3";
paths = (
{
closed = 1;
nodes = (
"96.4 500 LINE",
"210.4 500 LINE",
"210.4 32 LINE SMOOTH",
"210.4 -124 OFFCURVE",
"103.4 -197 OFFCURVE",
"-4.6 -200 CURVE",
"-21.6 -107 LINE",
"55.4 -100 OFFCURVE",
"96.4 -47 OFFCURVE",
"96.4 33 CURVE SMOOTH"
);
},
{
closed = 1;
nodes = (
"193.4 579 OFFCURVE",
"224.4 610 OFFCURVE",
"224.4 649 CURVE SMOOTH",
"224.4 689 OFFCURVE",
"193.4 720 OFFCURVE",
"153.4 720 CURVE SMOOTH",
"113.4 720 OFFCURVE",
"82.4 689 OFFCURVE",
"82.4 649 CURVE SMOOTH",
"82.4 610 OFFCURVE",
"113.4 579 OFFCURVE",
"153.4 579 CURVE SMOOTH"
);
}
);
width = 296.405;
},
{
hints = (
{
place = "{106, 44}";
type = Stem;
},
{
place = "{124, 23}";
type = Stem;
},
{
horizontal = 1;
place = "{666, -20}";
target = down;
type = TopGhost;
}
);
layerId = "6E968933-CD79-43C6-9231-80D77C940F4D";
paths = (
{
closed = 1;
nodes = (
"105 500 LINE",
"127 500 LINE",
"127 -21 LINE SMOOTH",
"127 -138 OFFCURVE",
"59 -194 OFFCURVE",
"-24 -200 CURVE",
"-27 -180 LINE",
"57 -174 OFFCURVE",
"105 -116 OFFCURVE",
"105 -21 CURVE SMOOTH"
);
},
{
closed = 1;
nodes = (
"131 635 OFFCURVE",
"141 643 OFFCURVE",
"141 657 CURVE SMOOTH",
"141 672 OFFCURVE",
"131 680 OFFCURVE",
"119 680 CURVE SMOOTH",
"107 680 OFFCURVE",
"97 672 OFFCURVE",
"97 657 CURVE SMOOTH",
"97 643 OFFCURVE",
"107 635 OFFCURVE",
"119 635 CURVE SMOOTH"
);
}
);
width = 231.00181;
},
{
hints = (
{
place = "{69, 204}";
type = Stem;
},
{
place = "{83, 176}";
type = Stem;
},
{
horizontal = 1;
place = "{538, 183}";
type = Stem;
}
);
layerId = "BAF31694-0472-4296-B0EA-1654553C45D2";
paths = (
{
closed = 1;
nodes = (
"92.15 500 LINE",
"266.15 500 LINE",
"266.15 46 LINE SMOOTH",
"266.15 -127 OFFCURVE",
"134.15 -196 OFFCURVE",
"9.15 -200 CURVE",
"-14.85 -57 LINE",
"52.15 -49 OFFCURVE",
"92.15 -7 OFFCURVE",
"92.15 47 CURVE SMOOTH"
);
},
{
closed = 1;
nodes = (
"241.15 537 OFFCURVE",
"282.15 577 OFFCURVE",
"282.15 628 CURVE SMOOTH",
"282.15 680 OFFCURVE",
"241.15 720 OFFCURVE",
"180.15 720 CURVE SMOOTH",
"119.15 720 OFFCURVE",
"78.15 680 OFFCURVE",
"78.15 628 CURVE SMOOTH",
"78.15 577 OFFCURVE",
"119.15 537 OFFCURVE",
"180.15 537 CURVE SMOOTH"
);
}
);
width = 331.65656;
},
{
hints = (
{
place = "{99, 88}";
type = Stem;
},
{
place = "{408, 96}";
type = Stem;
},
{
horizontal = 1;
place = "{250, -20}";
target = down;
type = TopGhost;
}
);
layerId = "9F107B1E-3A61-4335-981B-27DD48125C7E";
paths = (
{
closed = 1;
nodes = (
"97.7 500 LINE",
"177.7 500 LINE",
"177.7 12 LINE SMOOTH",
"177.7 -129 OFFCURVE",
"85.7 -196 OFFCURVE",
"-13.3 -200 CURVE",
"-24.3 -131 LINE",
"52.7 -124 OFFCURVE",
"97.7 -73 OFFCURVE",
"97.7 13 CURVE SMOOTH"
);
},
{
closed = 1;
nodes = (
"168.7 600 OFFCURVE",
"191.7 623 OFFCURVE",
"191.7 652 CURVE SMOOTH",
"191.7 683 OFFCURVE",
"168.7 705 OFFCURVE",
"139.7 705 CURVE SMOOTH",
"109.7 705 OFFCURVE",
"86.7 683 OFFCURVE",
"86.7 652 CURVE SMOOTH",
"86.7 623 OFFCURVE",
"109.7 600 OFFCURVE",
"139.7 600 CURVE SMOOTH"
);
}
);
width = 272.70005;
}
);
leftMetricsKey = "=l*-0.3";
rightMetricsKey = l;
unicode = 006A;
},
{
glyphname = k;
lastChange = "2021-09-01 17:33:15 +0000";
layers = (
{
anchors = (
{
name = bottom;
position = "{258, 5}";
}
);
hints = (
{
place = "{77, 114}";
type = Stem;
},
{
horizontal = 1;
place = "{0, 21}";
target = up;
type = BottomGhost;
},
{
horizontal = 1;
place = "{720, -20}";
target = down;
type = TopGhost;
}
);
layerId = "0CF0EA28-C756-4A9E-9D7C-CFEF350B4CFE";
paths = (
{
closed = 1;
nodes = (
"72 0 LINE",
"186 0 LINE",
"186 720 LINE",
"72 720 LINE"
);
},
{
closed = 1;
nodes = (
"319 250 LINE",
"547 500 LINE",
"404 500 LINE",
"184 250 LINE",
"404 0 LINE",
"548 0 LINE"
);
},
{
closed = 1;
nodes = (
"94 204 LINE",
"289 204 LINE",
"289 296 LINE",
"94 296 LINE"
);
}
);
width = 562.4;
},
{
anchors = (
{
name = bottom;
position = "{203, 1}";
}
);
hints = (
{
place = "{95, 22}";
type = Stem;
},
{
horizontal = 1;
place = "{0, 21}";
target = up;
type = BottomGhost;
},
{
horizontal = 1;
place = "{688, -20}";
target = down;
type = TopGhost;
}
);
layerId = "6E968933-CD79-43C6-9231-80D77C940F4D";
paths = (
{
closed = 1;
nodes = (
"90 0 LINE",
"112 0 LINE",
"112 720 LINE",
"90 720 LINE"
);
},
{
closed = 1;
nodes = (
"190 253 LINE",
"437 500 LINE",
"407 500 LINE",
"163 253 LINE",
"411 0 LINE",
"441 0 LINE"
);
},
{
closed = 1;
nodes = (
"100 243 LINE",
"179 243 LINE",
"179 263 LINE",
"100 263 LINE"
);
}
);
width = 458.99843;
},
{
anchors = (
{
name = bottom;
position = "{281.5, 11}";
}
);
hints = (
{
place = "{49, 176}";
type = Stem;
},
{
horizontal = 1;
place = "{0, 21}";
target = up;
type = BottomGhost;
},
{
horizontal = 1;
place = "{720, -20}";
target = down;
type = TopGhost;
}
);
layerId = "BAF31694-0472-4296-B0EA-1654553C45D2";
paths = (
{
closed = 1;
nodes = (
"49.5 0 LINE",
"225.5 0 LINE",
"225.5 720 LINE",
"49.5 720 LINE"
);
},
{
closed = 1;
nodes = (
"391.5 255 LINE",
"597.5 500 LINE",
"384.5 500 LINE",
"194.5 255 LINE",
"386.5 0 LINE",
"599.5 0 LINE"
);
},
{
closed = 1;
nodes = (
"144.5 187 LINE",
"329.5 187 LINE",
"329.5 323 LINE",
"144.5 323 LINE"
);
}
);
width = 609.40521;
},
{
anchors = (
{
name = bottom;
position = "{240, 4}";
}
);
hints = (
{
place = "{84, 80}";
type = Stem;
},
{
horizontal = 1;
place = "{0, 21}";
target = up;
type = BottomGhost;
},
{
horizontal = 1;
place = "{708, -20}";
target = down;
type = TopGhost;
}
);
layerId = "9F107B1E-3A61-4335-981B-27DD48125C7E";
paths = (
{
closed = 1;
nodes = (
"81 0 LINE",
"161 0 LINE",
"161 720 LINE",
"81 720 LINE"
);
},
{
closed = 1;
nodes = (
"274 250 LINE",
"510 500 LINE",
"404 500 LINE",
"178 250 LINE",
"404 0 LINE",
"511 0 LINE"
);
},
{
closed = 1;
nodes = (
"99 217.5 LINE",
"250 217.5 LINE",
"250 282.5 LINE",
"99 282.5 LINE"
);
}
);
width = 527.20191;
}
);
leftMetricsKey = l;
rightMetricsKey = "=l*0.2";
unicode = 006B;
},
